<svg version="1.1" xmlns="http://www.w3.org/2000/svg" viewBox="0 0 713.8277890721974 602.1006755661623" width="713.8277890721974" height="602.1006755661623" filter="invert(93%) hue-rotate(180deg)" class="excalidraw-svg">
  <!-- svg-source:excalidraw -->
  
  <defs>
    <style class="style-fonts">
      
    </style>
    
  </defs>
  <rect x="0" y="0" width="713.8277890721974" height="602.1006755661623" fill="#ffffff"></rect><g stroke-linecap="round"><g transform="translate(700.3875911121205 10.546990048699058) rotate(0 1.5786548127299511 290.53974490581237)"><path d="M-1 0.33 C-0.58 97.09, 2.64 483.66, 3.44 580.38 M0.68 -0.55 C0.89 96.38, 2.18 484.51, 2.64 581.55" stroke="#1e1e1e" stroke-width="2" fill="none"></path></g></g><mask></mask><g stroke-linecap="round" transform="translate(10 231.3079763493497) rotate(0 130.41742303065263 85.61896296228656)"><path d="M32 0 C73.07 -1.85, 111.51 0.06, 228.83 0 M32 0 C106.85 1.19, 182.68 1.78, 228.83 0 M228.83 0 C251.13 1.84, 260.31 12.35, 260.83 32 M228.83 0 C248.96 0.07, 262.45 12.19, 260.83 32 M260.83 32 C261.66 66.45, 260.61 105.58, 260.83 139.24 M260.83 32 C261.17 67.17, 261.03 100.21, 260.83 139.24 M260.83 139.24 C260.96 161.52, 248.84 172.33, 228.83 171.24 M260.83 139.24 C260.79 160.84, 248.31 171.67, 228.83 171.24 M228.83 171.24 C165.22 170.51, 97.96 172.55, 32 171.24 M228.83 171.24 C155.35 169.34, 83.42 169.9, 32 171.24 M32 171.24 C8.69 173.01, 0.34 162.5, 0 139.24 M32 171.24 C12.08 169.9, -2.01 158.71, 0 139.24 M0 139.24 C-0.46 109.05, 0.45 77.64, 0 32 M0 139.24 C1.2 105.9, 0.61 74.91, 0 32 M0 32 C-0.06 12.62, 11.54 -1.49, 32 0 M0 32 C-0.95 11.79, 11.13 -0.87, 32 0" stroke="#1e1e1e" stroke-width="2" fill="none"></path></g><g stroke-linecap="round"><g transform="translate(270.8243426786994 315.5038002629335) rotate(0 36.906646457831755 -43.88100801221897)"><path d="M-0.8 0.56 C11.6 -13.72, 61.13 -71.94, 73.63 -86.84 M0.98 -0.2 C13.27 -14.7, 60.47 -73.84, 72.58 -88.48" stroke="#1e1e1e" stroke-width="2" fill="none"></path></g></g><mask></mask><g stroke-linecap="round"><g transform="translate(270.8243426786994 316.391775918193) rotate(0 35.51902621037743 36.85098969326657)"><path d="M-0.87 0.46 C11.18 13.11, 60.14 62.45, 72.05 74.76 M0.87 -0.35 C12.88 12.09, 60.18 61.09, 71.64 73.19" stroke="#1e1e1e" stroke-width="2" fill="none"></path></g></g><mask></mask><g stroke-linecap="round"><g transform="translate(344.7333515427179 228.27009141445805) rotate(0 2.842170943040401e-14 81.54218651390849)"><path d="M0.11 -0.89 C0.33 26.36, 0.52 136.41, 0.53 163.82 M-1.29 1.26 C-1.12 28.13, -0.27 135.37, -0.14 162.08" stroke="#1e1e1e" stroke-width="2" fill="none"></path></g></g><mask></mask><g stroke-linecap="round"><g transform="translate(345.68215360642625 310.52967777779673) rotate(0 177.06837269536254 -3.47192887637965)"><path d="M0.43 -0.47 C59.55 -1.38, 295.14 -4.75, 354.08 -6.03" stroke="#1e1e1e" stroke-width="2.5" fill="none" stroke-dasharray="8 10"></path></g></g><mask></mask><g transform="translate(478.7727605343132 167.0232842207709) rotate(0 -19.09560882008816 53.236242771154764)" stroke="none"><path fill="#1e1e1e" d="M -1.93,4.82 Q -1.93,4.82 -3.62,4.23 -5.31,3.64 -7.87,6.37 -10.44,9.09 -11.69,12.39 -12.94,15.69 -13.67,17.82 -14.39,19.95 -14.36,22.34 -14.33,24.74 -13.81,27.75 -13.30,30.76 -12.18,35.26 -11.06,39.76 -10.59,43.05 -10.11,46.34 -9.39,49.05 -8.67,51.77 -7.99,54.88 -7.31,57.99 -6.69,60.57 -6.07,63.16 -5.70,65.55 -5.33,67.94 -4.73,73.15 -4.13,78.36 -4.06,81.11 -3.99,83.85 -3.87,88.14 -3.75,92.44 -4.12,95.48 -4.50,98.52 -4.99,100.71 -5.48,102.90 -6.47,105.33 -7.46,107.76 -9.46,109.72 -11.47,111.68 -15.05,113.05 -18.64,114.42 -21.33,114.18 -24.02,113.93 -27.26,112.00 -30.49,110.07 -32.34,108.79 -34.19,107.52 -36.13,105.57 -38.07,103.62 -39.40,102.61 -40.72,101.59 -41.48,100.97 -42.25,100.36 -42.77,99.53 -43.30,98.70 -43.54,97.75 -43.77,96.80 -43.69,95.82 -43.61,94.84 -43.22,93.94 -42.83,93.04 -42.17,92.31 -41.51,91.58 -40.66,91.10 -39.80,90.61 -38.84,90.43 -37.87,90.25 -36.90,90.38 -35.93,90.52 -35.05,90.96 -34.17,91.39 -33.48,92.09 -32.79,92.79 -32.35,93.67 -31.92,94.55 -31.79,95.52 -31.66,96.49 -31.84,97.46 -32.03,98.42 -32.52,99.27 -33.00,100.13 -33.73,100.78 -34.47,101.44 -35.37,101.82 -36.27,102.21 -37.25,102.28 -38.23,102.36 -39.18,102.12 -40.13,101.88 -40.96,101.35 -41.79,100.82 -42.40,100.06 -43.01,99.29 -43.35,98.37 -43.68,97.45 -43.71,96.46 -43.73,95.48 -43.44,94.54 -43.15,93.61 -42.58,92.81 -42.00,92.01 -41.20,91.44 -40.41,90.87 -39.47,90.59 -38.53,90.30 -37.55,90.33 -36.57,90.36 -35.64,90.70 -34.72,91.04 -34.72,91.04 -34.73,91.04 -31.06,94.32 -27.39,97.60 -24.61,99.79 -21.84,101.97 -19.46,101.59 -17.09,101.21 -16.22,99.20 -15.35,97.19 -15.08,94.84 -14.80,92.49 -14.78,88.34 -14.76,84.18 -14.85,81.60 -14.94,79.02 -15.17,76.37 -15.39,73.72 -16.02,69.75 -16.65,65.78 -17.31,63.20 -17.97,60.63 -18.74,57.87 -19.50,55.12 -20.63,51.86 -21.76,48.60 -22.49,45.66 -23.23,42.72 -23.91,40.33 -24.59,37.94 -25.52,34.21 -26.44,30.48 -26.86,27.51 -27.27,24.55 -27.13,22.15 -26.98,19.76 -26.30,16.86 -25.62,13.97 -24.33,10.83 -23.05,7.69 -22.19,5.64 -21.33,3.60 -19.41,-0.11 -17.48,-3.83 -15.48,-5.34 -13.47,-6.85 -9.78,-7.28 -6.09,-7.70 -3.71,-7.00 -1.34,-6.30 0.29,-5.56 1.93,-4.82 2.48,-4.52 3.03,-4.22 3.49,-3.80 3.95,-3.37 4.30,-2.85 4.64,-2.33 4.85,-1.74 5.07,-1.15 5.13,-0.52 5.19,0.09 5.11,0.71 5.02,1.33 4.79,1.91 4.56,2.49 4.19,3.00 3.82,3.51 3.35,3.92 2.87,4.33 2.31,4.61 1.75,4.89 1.14,5.03 0.53,5.17 -0.09,5.16 -0.72,5.15 -1.32,4.98 -1.93,4.82 -1.93,4.82 L -1.93,4.82 Z"></path></g><g transform="translate(433.6376851413776 221.4168366173855) rotate(0 33.56197913833671 -2.8932740636496987)" stroke="none"><path fill="#1e1e1e" d="M -0.58,-4.37 Q -0.58,-4.37 4.43,-4.80 9.46,-5.23 15.31,-5.68 21.16,-6.13 25.36,-6.30 29.56,-6.47 32.86,-6.97 36.15,-7.47 38.81,-8.12 41.47,-8.76 44.51,-9.12 47.55,-9.48 50.17,-9.70 52.79,-9.92 55.58,-10.04 58.37,-10.16 62.48,-10.36 66.59,-10.56 67.36,-10.44 68.12,-10.32 68.81,-9.96 69.49,-9.60 70.03,-9.04 70.56,-8.48 70.89,-7.78 71.22,-7.08 71.30,-6.31 71.39,-5.54 71.23,-4.78 71.06,-4.03 70.67,-3.36 70.27,-2.70 69.68,-2.19 69.09,-1.69 68.38,-1.40 67.66,-1.11 66.89,-1.07 66.11,-1.02 65.37,-1.23 64.62,-1.43 63.98,-1.86 63.34,-2.29 62.87,-2.91 62.39,-3.52 62.15,-4.26 61.90,-4.99 61.89,-5.76 61.89,-6.54 62.13,-7.27 62.38,-8.00 62.84,-8.62 63.31,-9.24 63.95,-9.68 64.59,-10.11 65.33,-10.32 66.08,-10.53 66.85,-10.49 67.62,-10.46 68.34,-10.17 69.06,-9.89 69.66,-9.39 70.25,-8.89 70.65,-8.23 71.05,-7.57 71.22,-6.81 71.39,-6.06 71.31,-5.29 71.23,-4.52 70.90,-3.81 70.58,-3.11 70.05,-2.55 69.52,-1.98 68.84,-1.62 68.16,-1.25 67.39,-1.12 66.63,-1.00 66.63,-1.00 66.63,-1.00 62.57,-1.14 58.50,-1.29 55.80,-1.33 53.11,-1.37 50.64,-1.40 48.18,-1.43 45.53,-1.34 42.88,-1.26 39.97,-0.86 37.07,-0.46 33.53,-0.08 30.00,0.30 25.96,0.65 21.92,1.00 16.21,1.79 10.50,2.57 5.54,3.47 0.58,4.37 0.05,4.38 -0.48,4.38 -0.99,4.26 -1.51,4.14 -1.99,3.90 -2.46,3.66 -2.86,3.31 -3.27,2.96 -3.57,2.53 -3.88,2.09 -4.07,1.60 -4.27,1.10 -4.34,0.57 -4.41,0.05 -4.35,-0.47 -4.29,-1.00 -4.11,-1.50 -3.93,-2.00 -3.63,-2.44 -3.33,-2.88 -2.94,-3.24 -2.54,-3.60 -2.08,-3.85 -1.61,-4.10 -1.09,-4.24 -0.58,-4.37 -0.58,-4.37 L -0.58,-4.37 Z"></path></g></svg>