<svg version="1.1" xmlns="http://www.w3.org/2000/svg" viewBox="0 0 171.66087342289362 396.8494460165841" width="171.66087342289362" height="396.8494460165841" filter="invert(93%) hue-rotate(180deg)" class="excalidraw-svg">
  <!-- svg-source:excalidraw -->
  
  <defs>
    <style class="style-fonts">
      
    </style>
    
  </defs>
  <rect x="0" y="0" width="171.66087342289362" height="396.8494460165841" fill="#ffffff"></rect><g stroke-linecap="round" transform="translate(10 10) rotate(0 75.83043671144681 188.42472300829206)"><path d="M32 0 C64.58 0.41, 94.93 -1.08, 119.66 0 M32 0 C60.89 -0.18, 90.06 0.35, 119.66 0 M119.66 0 C139.83 1.08, 151.62 11.11, 151.66 32 M119.66 0 C139.16 -1.32, 149.54 12.84, 151.66 32 M151.66 32 C149.54 150.03, 150.76 271.02, 151.66 344.85 M151.66 32 C150.99 151.49, 150.86 269.81, 151.66 344.85 M151.66 344.85 C152.35 368.06, 139.21 377.23, 119.66 376.85 M151.66 344.85 C153.53 368.16, 142.58 378.72, 119.66 376.85 M119.66 376.85 C96.67 378, 76.11 376.93, 32 376.85 M119.66 376.85 C89.23 377.95, 59.32 376.78, 32 376.85 M32 376.85 C8.76 377.63, -1.82 364.73, 0 344.85 M32 376.85 C12.06 378.38, 0.41 364.75, 0 344.85 M0 344.85 C1.47 238.58, 1.07 133.02, 0 32 M0 344.85 C-0.75 241.52, 0.13 137.26, 0 32 M0 32 C-0.91 11.67, 9.72 -1.37, 32 0 M0 32 C-1.99 9.61, 11.67 1.87, 32 0" stroke="#1e1e1e" stroke-width="2" fill="none"></path></g><g transform="translate(57.50463982515936 202.98234070836287) rotate(0 0.00005000000000165983 0.00005000000000165983)" stroke="none"><path fill="#1e1e1e" d="M 3.14,-3.14 Q 3.14,-3.14 3.55,-2.55 3.97,-1.97 4.18,-1.28 4.40,-0.59 4.38,0.11 4.36,0.83 4.11,1.51 3.86,2.18 3.41,2.74 2.96,3.30 2.36,3.69 1.75,4.07 1.05,4.25 0.36,4.42 -0.35,4.36 -1.07,4.30 -1.73,4.02 -2.39,3.74 -2.92,3.26 -3.46,2.78 -3.81,2.15 -4.16,1.53 -4.30,0.82 -4.43,0.11 -4.34,-0.59 -4.24,-1.30 -3.92,-1.94 -3.60,-2.59 -3.09,-3.09 -2.59,-3.60 -1.94,-3.92 -1.30,-4.24 -0.59,-4.34 0.12,-4.43 0.82,-4.30 1.53,-4.16 2.15,-3.81 2.78,-3.46 3.26,-2.92 3.74,-2.39 4.02,-1.73 4.31,-1.07 4.36,-0.35 4.42,0.36 4.25,1.05 4.07,1.75 3.69,2.36 3.30,2.96 2.74,3.41 2.18,3.86 1.51,4.11 0.83,4.36 0.11,4.38 -0.60,4.40 -1.28,4.18 -1.97,3.97 -2.55,3.55 -3.14,3.13 -3.14,3.14 -3.14,3.14 -3.47,2.71 -3.80,2.29 -4.02,1.80 -4.24,1.32 -4.33,0.79 -4.43,0.26 -4.40,-0.26 -4.36,-0.80 -4.20,-1.31 -4.04,-1.82 -3.77,-2.28 -3.49,-2.73 -3.11,-3.11 -2.73,-3.49 -2.28,-3.77 -1.82,-4.05 -1.31,-4.20 -0.80,-4.36 -0.26,-4.40 0.26,-4.43 0.79,-4.33 1.32,-4.24 1.80,-4.02 2.29,-3.80 2.71,-3.47 3.14,-3.14 3.14,-3.14 L 3.14,-3.14 Z"></path></g><g transform="translate(90.95630177540716 204.57527699170794) rotate(0 0.00005000000000165983 0.00005000000000165983)" stroke="none"><path fill="#1e1e1e" d="M 3.14,-3.14 Q 3.14,-3.14 3.55,-2.55 3.97,-1.97 4.18,-1.28 4.40,-0.59 4.38,0.11 4.36,0.83 4.11,1.51 3.86,2.18 3.41,2.74 2.96,3.30 2.36,3.69 1.75,4.07 1.05,4.25 0.36,4.42 -0.35,4.36 -1.07,4.30 -1.73,4.02 -2.39,3.74 -2.92,3.26 -3.46,2.78 -3.81,2.15 -4.16,1.53 -4.30,0.82 -4.43,0.11 -4.34,-0.59 -4.24,-1.30 -3.92,-1.94 -3.60,-2.59 -3.09,-3.09 -2.59,-3.60 -1.94,-3.92 -1.30,-4.24 -0.59,-4.34 0.12,-4.43 0.82,-4.30 1.53,-4.16 2.15,-3.81 2.78,-3.46 3.26,-2.92 3.74,-2.39 4.02,-1.73 4.31,-1.07 4.36,-0.35 4.42,0.36 4.25,1.05 4.07,1.75 3.69,2.36 3.30,2.96 2.74,3.41 2.18,3.86 1.51,4.11 0.83,4.36 0.11,4.38 -0.60,4.40 -1.28,4.18 -1.97,3.97 -2.55,3.55 -3.14,3.13 -3.14,3.14 -3.14,3.14 -3.47,2.71 -3.80,2.29 -4.02,1.80 -4.24,1.32 -4.33,0.79 -4.43,0.26 -4.40,-0.26 -4.36,-0.80 -4.20,-1.31 -4.04,-1.82 -3.77,-2.28 -3.49,-2.73 -3.11,-3.11 -2.73,-3.49 -2.28,-3.77 -1.82,-4.05 -1.31,-4.20 -0.80,-4.36 -0.26,-4.40 0.26,-4.43 0.79,-4.33 1.32,-4.24 1.80,-4.02 2.29,-3.80 2.71,-3.47 3.14,-3.14 3.14,-3.14 L 3.14,-3.14 Z"></path></g><g transform="translate(122.01855930063729 209.35408584174337) rotate(0 0.00005000000000165983 0.00005000000000165983)" stroke="none"><path fill="#1e1e1e" d="M 3.14,-3.14 Q 3.14,-3.14 3.55,-2.55 3.97,-1.97 4.18,-1.28 4.40,-0.59 4.38,0.11 4.36,0.83 4.11,1.51 3.86,2.18 3.41,2.74 2.96,3.30 2.36,3.69 1.75,4.07 1.05,4.25 0.36,4.42 -0.35,4.36 -1.07,4.30 -1.73,4.02 -2.39,3.74 -2.92,3.26 -3.46,2.78 -3.81,2.15 -4.16,1.53 -4.30,0.82 -4.43,0.11 -4.34,-0.59 -4.24,-1.30 -3.92,-1.94 -3.60,-2.59 -3.09,-3.09 -2.59,-3.60 -1.94,-3.92 -1.30,-4.24 -0.59,-4.34 0.12,-4.43 0.82,-4.30 1.53,-4.16 2.15,-3.81 2.78,-3.46 3.26,-2.92 3.74,-2.39 4.02,-1.73 4.31,-1.07 4.36,-0.35 4.42,0.36 4.25,1.05 4.07,1.75 3.69,2.36 3.30,2.96 2.74,3.41 2.18,3.86 1.51,4.11 0.83,4.36 0.11,4.38 -0.60,4.40 -1.28,4.18 -1.97,3.97 -2.55,3.55 -3.14,3.13 -3.14,3.14 -3.14,3.14 -3.47,2.71 -3.80,2.29 -4.02,1.80 -4.24,1.32 -4.33,0.79 -4.43,0.26 -4.40,-0.26 -4.36,-0.80 -4.20,-1.31 -4.04,-1.82 -3.77,-2.28 -3.49,-2.73 -3.11,-3.11 -2.73,-3.49 -2.28,-3.77 -1.82,-4.05 -1.31,-4.20 -0.80,-4.36 -0.26,-4.40 0.26,-4.43 0.79,-4.33 1.32,-4.24 1.80,-4.02 2.29,-3.80 2.71,-3.47 3.14,-3.14 3.14,-3.14 L 3.14,-3.14 Z"></path></g><g stroke-linecap="round"><g transform="translate(56.70817168348677 175.105955749823) rotate(0 0 -19.115235400141614)"><path d="M0.36 -0.01 C0.36 -6.46, 0.26 -32.2, 0.21 -38.58 M-0.12 -0.5 C-0.2 -6.88, -0.09 -31.86, -0.11 -38.06" stroke="#1e1e1e" stroke-width="2" fill="none"></path></g><g transform="translate(56.70817168348677 175.105955749823) rotate(0 0 -19.115235400141614)"><path d="M6.42 -20.09 C4.17 -25.79, 1.37 -32.16, -0.11 -38.06 M6.42 -20.09 C4.35 -25.74, 2.28 -30.35, -0.11 -38.06" stroke="#1e1e1e" stroke-width="2" fill="none"></path></g><g transform="translate(56.70817168348677 175.105955749823) rotate(0 0 -19.115235400141614)"><path d="M-6.66 -20.1 C-4.47 -25.84, -2.83 -32.21, -0.11 -38.06 M-6.66 -20.1 C-4.87 -25.74, -3.08 -30.35, -0.11 -38.06" stroke="#1e1e1e" stroke-width="2" fill="none"></path></g></g><mask></mask><g stroke-linecap="round"><g transform="translate(90.85316792602023 183.2506824827307) rotate(0 0 -19.115235400141614)"><path d="M-0.05 0.22 C0 -6.05, 0.24 -31.5, 0.33 -37.82 M-0.73 -0.15 C-0.74 -6.55, -0.12 -32.18, 0.07 -38.57" stroke="#1e1e1e" stroke-width="2" fill="none"></path></g><g transform="translate(90.85316792602023 183.2506824827307) rotate(0 0 -19.115235400141614)"><path d="M6.13 -20.45 C4.64 -25.56, 3.08 -30.94, 0.07 -38.57 M6.13 -20.45 C4.23 -27.29, 1.47 -34.28, 0.07 -38.57" stroke="#1e1e1e" stroke-width="2" fill="none"></path></g><g transform="translate(90.85316792602023 183.2506824827307) rotate(0 0 -19.115235400141614)"><path d="M-6.94 -20.79 C-4.33 -25.79, -1.8 -31.06, 0.07 -38.57 M-6.94 -20.79 C-3.73 -27.46, -1.36 -34.32, 0.07 -38.57" stroke="#1e1e1e" stroke-width="2" fill="none"></path></g></g><mask></mask><g stroke-linecap="round"><g transform="translate(121.91542545125037 188.02949133276616) rotate(0 0 -19.115235400141614)"><path d="M-0.43 0.21 C-0.48 -6.05, 0.03 -31.45, 0.16 -37.94 M0.35 -0.16 C0.21 -6.54, -0.16 -32.39, -0.19 -38.75" stroke="#1e1e1e" stroke-width="2" fill="none"></path></g><g transform="translate(121.91542545125037 188.02949133276616) rotate(0 0 -19.115235400141614)"><path d="M6.53 -20.86 C4.41 -27.39, 2.01 -33.88, -0.19 -38.75 M6.53 -20.86 C4.83 -24.86, 3.18 -28.88, -0.19 -38.75" stroke="#1e1e1e" stroke-width="2" fill="none"></path></g><g transform="translate(121.91542545125037 188.02949133276616) rotate(0 0 -19.115235400141614)"><path d="M-6.54 -20.72 C-3.71 -27.25, -1.16 -33.79, -0.19 -38.75 M-6.54 -20.72 C-5.45 -24.8, -4.31 -28.84, -0.19 -38.75" stroke="#1e1e1e" stroke-width="2" fill="none"></path></g></g><mask></mask><g stroke-linecap="round"><g transform="translate(56.70817168348677 118.55671769107073) rotate(0 -1.1947022125088438 -40.221641154464635)"><path d="M-1.01 -0.43 C-1.38 -13.85, -1.96 -68.14, -2.03 -81.6 M0.66 -1.7 C0.15 -14.93, -2.4 -67.58, -2.79 -80.67" stroke="#1e1e1e" stroke-width="2" fill="none"></path></g><g transform="translate(56.70817168348677 118.55671769107073) rotate(0 -1.1947022125088438 -40.221641154464635)"><path d="M6.7 -57.54 C3.2 -64.32, -1.01 -70.61, -2.79 -80.67 M6.7 -57.54 C4.6 -62.76, 1.62 -69.27, -2.79 -80.67" stroke="#1e1e1e" stroke-width="2" fill="none"></path></g><g transform="translate(56.70817168348677 118.55671769107073) rotate(0 -1.1947022125088438 -40.221641154464635)"><path d="M-10.38 -56.85 C-8.49 -63.7, -7.31 -70.21, -2.79 -80.67 M-10.38 -56.85 C-8.42 -62.36, -7.33 -69.04, -2.79 -80.67" stroke="#1e1e1e" stroke-width="2" fill="none"></path></g></g><mask></mask><g stroke-linecap="round"><g transform="translate(90.4269536561626 124.52699335538443) rotate(0 -1.1947022125088438 -40.221641154464635)"><path d="M-0.62 -0.21 C-0.98 -13.54, -0.97 -67, -1.31 -80.2 M1.25 -1.37 C0.76 -15.06, -0.89 -68.88, -1.69 -82.2" stroke="#1e1e1e" stroke-width="2" fill="none"></path></g><g transform="translate(90.4269536561626 124.52699335538443) rotate(0 -1.1947022125088438 -40.221641154464635)"><path d="M7.87 -59.1 C4.05 -65.84, 1.28 -76.59, -1.69 -82.2 M7.87 -59.1 C3.65 -67.23, 0.91 -77.24, -1.69 -82.2" stroke="#1e1e1e" stroke-width="2" fill="none"></path></g><g transform="translate(90.4269536561626 124.52699335538443) rotate(0 -1.1947022125088438 -40.221641154464635)"><path d="M-9.22 -58.36 C-6.76 -65.29, -3.24 -76.3, -1.69 -82.2 M-9.22 -58.36 C-6.89 -66.68, -3.1 -76.97, -1.69 -82.2" stroke="#1e1e1e" stroke-width="2" fill="none"></path></g></g><mask></mask><g stroke-linecap="round"><g transform="translate(120.69274303972011 121.34112078869418) rotate(0 -1.1947022125088438 -40.221641154464635)"><path d="M0.12 -0.93 C-0.27 -14.59, -1.04 -68.13, -1.49 -81.36 M-1.27 1.19 C-1.81 -12.4, -1.61 -66.95, -1.96 -80.3" stroke="#1e1e1e" stroke-width="2" fill="none"></path></g><g transform="translate(120.69274303972011 121.34112078869418) rotate(0 -1.1947022125088438 -40.221641154464635)"><path d="M6.81 -56.89 C1.9 -64.04, -1.32 -74.43, -1.96 -80.3 M6.81 -56.89 C3.86 -64.15, 0.91 -71.1, -1.96 -80.3" stroke="#1e1e1e" stroke-width="2" fill="none"></path></g><g transform="translate(120.69274303972011 121.34112078869418) rotate(0 -1.1947022125088438 -40.221641154464635)"><path d="M-10.29 -56.73 C-8.88 -63.95, -5.77 -74.4, -1.96 -80.3 M-10.29 -56.73 C-7.93 -63.89, -5.57 -70.88, -1.96 -80.3" stroke="#1e1e1e" stroke-width="2" fill="none"></path></g></g><mask></mask><g stroke-linecap="round"><g transform="translate(119.9680422006895 267.92645227325005) rotate(179.2023505236033 0 -19.115235400141614)"><path d="M0.08 -0.29 C0.06 -6.61, 0.26 -31.91, 0.27 -38.17 M-0.54 0.75 C-0.64 -5.45, -0.09 -30.86, -0.02 -37.44" stroke="#1e1e1e" stroke-width="2" fill="none"></path></g><g transform="translate(119.9680422006895 267.92645227325005) rotate(179.2023505236033 0 -19.115235400141614)"><path d="M6.22 -19.37 C3.44 -25.61, 1.73 -32.52, -0.02 -37.44 M6.22 -19.37 C3.74 -25.93, 1.96 -32.88, -0.02 -37.44" stroke="#1e1e1e" stroke-width="2" fill="none"></path></g><g transform="translate(119.9680422006895 267.92645227325005) rotate(179.2023505236033 0 -19.115235400141614)"><path d="M-6.85 -19.58 C-4.78 -25.75, -1.63 -32.59, -0.02 -37.44 M-6.85 -19.58 C-4.44 -26.08, -1.32 -32.95, -0.02 -37.44" stroke="#1e1e1e" stroke-width="2" fill="none"></path></g></g><mask></mask><g stroke-linecap="round"><g transform="translate(93.54652778051619 264.70461224225136) rotate(179.2023505236033 0 -19.115235400141614)"><path d="M0.27 0.06 C0.28 -6.19, 0.26 -31.47, 0.15 -37.82 M-0.26 -0.38 C-0.31 -6.76, -0.37 -32.14, -0.21 -38.58" stroke="#1e1e1e" stroke-width="2" fill="none"></path></g><g transform="translate(93.54652778051619 264.70461224225136) rotate(179.2023505236033 0 -19.115235400141614)"><path d="M6.17 -20.56 C4.31 -25.97, 2.9 -32.62, -0.21 -38.58 M6.17 -20.56 C4.44 -26.52, 2.42 -32.25, -0.21 -38.58" stroke="#1e1e1e" stroke-width="2" fill="none"></path></g><g transform="translate(93.54652778051619 264.70461224225136) rotate(179.2023505236033 0 -19.115235400141614)"><path d="M-6.91 -20.68 C-4.64 -26.08, -1.92 -32.69, -0.21 -38.58 M-6.91 -20.68 C-4.3 -26.63, -1.97 -32.32, -0.21 -38.58" stroke="#1e1e1e" stroke-width="2" fill="none"></path></g></g><mask></mask><g stroke-linecap="round"><g transform="translate(54.3174667159371 260.63670026734127) rotate(179.2023505236033 0 -19.115235400141614)"><path d="M0.15 0.41 C0.04 -5.94, -0.34 -31.65, -0.41 -38.05 M-0.44 0.14 C-0.4 -6.38, 0.66 -32.41, 0.62 -38.93" stroke="#1e1e1e" stroke-width="2" fill="none"></path></g><g transform="translate(54.3174667159371 260.63670026734127) rotate(179.2023505236033 0 -19.115235400141614)"><path d="M6.79 -20.84 C5.34 -27.86, 2.78 -33.88, 0.62 -38.93 M6.79 -20.84 C5.08 -26.74, 2.55 -32.87, 0.62 -38.93" stroke="#1e1e1e" stroke-width="2" fill="none"></path></g><g transform="translate(54.3174667159371 260.63670026734127) rotate(179.2023505236033 0 -19.115235400141614)"><path d="M-6.28 -21.1 C-3.17 -28.04, -1.17 -33.98, 0.62 -38.93 M-6.28 -21.1 C-3.55 -26.91, -1.63 -32.96, 0.62 -38.93" stroke="#1e1e1e" stroke-width="2" fill="none"></path></g></g><mask></mask><g stroke-linecap="round"><g transform="translate(124.09161748517869 368.4849074753825) rotate(179.2023505236033 -1.1947022125088438 -40.221641154464635)"><path d="M-0.89 0.38 C-1.43 -13.09, -2.82 -66.5, -2.92 -79.96 M0.84 -0.46 C0.07 -14.38, -3.71 -68.73, -4.15 -81.83" stroke="#1e1e1e" stroke-width="2" fill="none"></path></g><g transform="translate(124.09161748517869 368.4849074753825) rotate(179.2023505236033 -1.1947022125088438 -40.221641154464635)"><path d="M5.66 -58.84 C2.92 -67.32, -0.13 -72.5, -4.15 -81.83 M5.66 -58.84 C2.54 -65.16, 0.32 -71.85, -4.15 -81.83" stroke="#1e1e1e" stroke-width="2" fill="none"></path></g><g transform="translate(124.09161748517869 368.4849074753825) rotate(179.2023505236033 -1.1947022125088438 -40.221641154464635)"><path d="M-11.41 -57.91 C-8.58 -66.57, -6.04 -72.05, -4.15 -81.83 M-11.41 -57.91 C-9.4 -64.6, -6.48 -71.57, -4.15 -81.83" stroke="#1e1e1e" stroke-width="2" fill="none"></path></g></g><mask></mask><g stroke-linecap="round"><g transform="translate(95.65574611510274 364.8460630597213) rotate(179.2023505236033 -1.1947022125088438 -40.221641154464635)"><path d="M-0.53 0.48 C-0.64 -12.99, -1.39 -67.05, -1.51 -80.43 M1.39 -0.31 C1.28 -13.61, -1.53 -65.3, -2 -78.88" stroke="#1e1e1e" stroke-width="2" fill="none"></path></g><g transform="translate(95.65574611510274 364.8460630597213) rotate(179.2023505236033 -1.1947022125088438 -40.221641154464635)"><path d="M7.59 -55.8 C6.15 -59.6, 3.21 -64.39, -2 -78.88 M7.59 -55.8 C4.98 -63.11, 0.62 -71.16, -2 -78.88" stroke="#1e1e1e" stroke-width="2" fill="none"></path></g><g transform="translate(95.65574611510274 364.8460630597213) rotate(179.2023505236033 -1.1947022125088438 -40.221641154464635)"><path d="M-9.49 -55.03 C-7.08 -58.93, -6.16 -63.89, -2 -78.88 M-9.49 -55.03 C-6.07 -62.71, -4.4 -71.03, -2 -78.88" stroke="#1e1e1e" stroke-width="2" fill="none"></path></g></g><mask></mask><g stroke-linecap="round"><g transform="translate(57.692788946290364 370.35053915078163) rotate(179.2023505236033 -1.1947022125088438 -40.221641154464635)"><path d="M0.88 0.01 C0.75 -13.37, -0.73 -66.51, -1.26 -79.81 M-0.12 -1.02 C-0.26 -14.8, -1.13 -68.14, -1.62 -81.59" stroke="#1e1e1e" stroke-width="2" fill="none"></path></g><g transform="translate(57.692788946290364 370.35053915078163) rotate(179.2023505236033 -1.1947022125088438 -40.221641154464635)"><path d="M7.51 -58.32 C5.11 -62.32, 3.81 -70.04, -1.62 -81.59 M7.51 -58.32 C3.89 -65.64, 1.74 -74.43, -1.62 -81.59" stroke="#1e1e1e" stroke-width="2" fill="none"></path></g><g transform="translate(57.692788946290364 370.35053915078163) rotate(179.2023505236033 -1.1947022125088438 -40.221641154464635)"><path d="M-9.59 -57.9 C-7.62 -62.13, -4.55 -69.96, -1.62 -81.59 M-9.59 -57.9 C-7.12 -65.5, -3.2 -74.45, -1.62 -81.59" stroke="#1e1e1e" stroke-width="2" fill="none"></path></g></g><mask></mask></svg>