<svg version="1.1" xmlns="http://www.w3.org/2000/svg" viewBox="0 0 286.7621255950993 281.5" width="286.7621255950993" height="281.5" filter="invert(93%) hue-rotate(180deg)" class="excalidraw-svg">
  <!-- svg-source:excalidraw -->
  
  <defs>
    <style class="style-fonts">
      
    </style>
    
  </defs>
  <rect x="0" y="0" width="286.7621255950993" height="281.5" fill="#ffffff"></rect><g stroke-linecap="round" transform="translate(100.82651629743947 98.61367931097521) rotate(0 42.631062797549646 42)"><path d="M21 0 C36.92 -0.54, 48.06 -3.16, 64.26 0 C81.16 -0.11, 87.92 10, 85.26 21 C84.83 32.12, 87.58 41.33, 85.26 63 C87.96 79.75, 78.91 86.03, 64.26 84 C52.66 85.82, 49.65 86.49, 21 84 C5.1 84.13, -2.57 74.35, 0 63 C-2.87 49.34, -1.49 35.49, 0 21 C-3.46 8.09, 10.03 -1.39, 21 0" stroke="none" stroke-width="0" fill="#a5d8ff"></path><path d="M21 0 C37.14 -0.27, 50.38 -1.48, 64.26 0 M21 0 C32.75 -0.43, 43.13 -0.89, 64.26 0 M64.26 0 C76.64 0.61, 84.51 7.12, 85.26 21 M64.26 0 C76.97 -0.83, 85.11 5.5, 85.26 21 M85.26 21 C84.2 34.8, 86.13 46.48, 85.26 63 M85.26 21 C84.09 30.28, 84.76 40.81, 85.26 63 M85.26 63 C85.32 77.11, 79.9 82.65, 64.26 84 M85.26 63 C87.23 77.43, 76.93 83.02, 64.26 84 M64.26 84 C51.03 82.64, 39.05 83.67, 21 84 M64.26 84 C47.9 82.68, 31.59 84.55, 21 84 M21 84 C6.94 85.68, 0.76 77.76, 0 63 M21 84 C6.87 82.74, 1.75 77.62, 0 63 M0 63 C-0.42 49.87, -0.91 33.97, 0 21 M0 63 C-0.5 50.62, 0.49 39.55, 0 21 M0 21 C0.31 7.94, 5.52 -0.07, 21 0 M0 21 C-0.61 5.43, 7.82 -0.73, 21 0" stroke="#1e1e1e" stroke-width="2" fill="none"></path></g><g stroke-linecap="round" transform="translate(101.10603440811673 10.25889613979075) rotate(0 42.631062797549646 42)"><path d="M21 0 C32.77 0.35, 42.97 -0.44, 64.26 0 M21 0 C38.03 -0.89, 55.24 -1.01, 64.26 0 M64.26 0 C77.89 0.44, 87.13 7.31, 85.26 21 M64.26 0 C79.34 -1.7, 85.18 6.39, 85.26 21 M85.26 21 C85.55 29.47, 86.59 41.95, 85.26 63 M85.26 21 C86.13 33.47, 86.06 46.83, 85.26 63 M85.26 63 C84.54 75.54, 79.85 84.06, 64.26 84 M85.26 63 C85.29 78.83, 77.1 85.72, 64.26 84 M64.26 84 C46.15 83.78, 33.19 82.81, 21 84 M64.26 84 C49.27 84.27, 34.61 83.49, 21 84 M21 84 C8 85.75, -0.42 75.77, 0 63 M21 84 C7.67 83.47, 1.21 74.79, 0 63 M0 63 C-2.22 50.23, 0.48 35.67, 0 21 M0 63 C-0.73 49.47, 0.27 37.02, 0 21 M0 21 C-0.43 5.78, 7.01 -1.25, 21 0 M0 21 C-1.56 7.97, 5.23 -1.81, 21 0" stroke="#1e1e1e" stroke-width="2" fill="none"></path></g><g stroke-linecap="round" transform="translate(190.46672147665586 98.78616558491836) rotate(0 42.631062797549646 42)"><path d="M21 0 C30.48 -1.43, 39.42 2.15, 64.26 0 M21 0 C36.31 0.48, 51.91 -0.32, 64.26 0 M64.26 0 C78.56 1.45, 86.22 6.6, 85.26 21 M64.26 0 C79.56 1.85, 84.11 6.68, 85.26 21 M85.26 21 C86.18 36.5, 85.48 51.65, 85.26 63 M85.26 21 C85.43 36.43, 84.63 51.44, 85.26 63 M85.26 63 C85.15 76.79, 76.57 84.54, 64.26 84 M85.26 63 C85.15 76.02, 78.87 82.2, 64.26 84 M64.26 84 C54.71 85.59, 42.19 86.03, 21 84 M64.26 84 C52.83 84.3, 39.86 83.61, 21 84 M21 84 C7.64 83.33, 1.57 78.43, 0 63 M21 84 C9.3 84.2, -1.03 77.26, 0 63 M0 63 C0.27 54.25, -1.44 45.19, 0 21 M0 63 C-0.46 48.98, 0.01 37.37, 0 21 M0 21 C-1.68 6.36, 5.32 -1.76, 21 0 M0 21 C1.53 6.7, 6.5 -0.31, 21 0" stroke="#1e1e1e" stroke-width="2" fill="none"></path></g><g stroke-linecap="round" transform="translate(10.033278523344109 99.05125580491963) rotate(0 42.631062797549646 42)"><path d="M21 0 C33.2 0.9, 42.3 -1.03, 64.26 0 M21 0 C33.36 -0.03, 46.03 -0.88, 64.26 0 M64.26 0 C77.24 -0.81, 84.14 7.01, 85.26 21 M64.26 0 C78.25 -0.63, 87.21 7.09, 85.26 21 M85.26 21 C85.86 33.98, 86.49 51.59, 85.26 63 M85.26 21 C85.19 37.78, 85.72 52.79, 85.26 63 M85.26 63 C86.19 78.76, 79.01 85.2, 64.26 84 M85.26 63 C85 75.61, 79.26 82.66, 64.26 84 M64.26 84 C46.91 82.77, 30.27 84.74, 21 84 M64.26 84 C46.31 84.73, 29.8 83.5, 21 84 M21 84 C5.5 83.57, -1.8 75.47, 0 63 M21 84 C8.93 85.02, 1.08 74.91, 0 63 M0 63 C-2.21 47.98, -0.14 29.49, 0 21 M0 63 C0.72 47.51, -0.86 30.78, 0 21 M0 21 C-0.87 6.35, 8.77 0.92, 21 0 M0 21 C-0.12 8.88, 5.1 -0.87, 21 0" stroke="#1e1e1e" stroke-width="2" fill="none"></path></g><g stroke-linecap="round" transform="translate(102.53959629476802 186.6551663602092) rotate(0 42.631062797549646 42)"><path d="M21 0 C30.67 1.96, 42.57 0.08, 64.26 0 M21 0 C37.93 -0.18, 53.55 0.69, 64.26 0 M64.26 0 C78.17 1.08, 84.05 6.33, 85.26 21 M64.26 0 C76.62 -1.43, 84.08 6.09, 85.26 21 M85.26 21 C85.38 34.1, 86.01 42.74, 85.26 63 M85.26 21 C86 34.23, 85.27 49.08, 85.26 63 M85.26 63 C84.71 76.87, 79.48 83.31, 64.26 84 M85.26 63 C83.44 76.39, 80.15 85.73, 64.26 84 M64.26 84 C51.02 83.7, 34.97 85.31, 21 84 M64.26 84 C47.06 82.78, 30.92 83.37, 21 84 M21 84 C5.98 82.78, 0.35 75.34, 0 63 M21 84 C4.76 85.36, 1.47 78.26, 0 63 M0 63 C2.29 50.26, 0.91 39.9, 0 21 M0 63 C0.19 47.47, 0.26 33.1, 0 21 M0 21 C1.9 5.81, 5.64 -1.15, 21 0 M0 21 C1.78 4.93, 7.12 0.66, 21 0" stroke="#1e1e1e" stroke-width="2" fill="none"></path></g><g stroke-linecap="round" transform="translate(190.5 10) rotate(0 42.631062797549646 42)"><path d="M21 0 C32.97 -1.49, 46.46 -0.36, 64.26 0 M21 0 C35.74 -0.84, 52.55 -0.13, 64.26 0 M64.26 0 C79.72 1.23, 84.86 6.32, 85.26 21 M64.26 0 C77.26 -1.95, 86.08 6.62, 85.26 21 M85.26 21 C84.11 37.26, 83.57 50.56, 85.26 63 M85.26 21 C85.38 36.18, 84.88 52.43, 85.26 63 M85.26 63 C85.78 78.28, 78.28 83, 64.26 84 M85.26 63 C87.18 74.97, 77.82 82.29, 64.26 84 M64.26 84 C47.02 83.53, 31.52 85.22, 21 84 M64.26 84 C51.78 83.69, 39.03 83.82, 21 84 M21 84 C8.05 84.71, 0.13 76.64, 0 63 M21 84 C8.47 84.06, -1.02 77.58, 0 63 M0 63 C1.33 54.18, -0.79 44.22, 0 21 M0 63 C0.32 54.75, 0.28 44.99, 0 21 M0 21 C0 8.83, 7.59 -0.67, 21 0 M0 21 C-0.77 7.72, 5.04 0.36, 21 0" stroke="#1e1e1e" stroke-width="2" fill="none"></path></g><g stroke-linecap="round" transform="translate(191.5 187.5) rotate(0 42.631062797549646 42)"><path d="M21 0 C34.77 1.06, 46.79 -0.13, 64.26 0 M21 0 C30.05 -0.66, 40.05 0.38, 64.26 0 M64.26 0 C76.46 0.14, 85 7.36, 85.26 21 M64.26 0 C76.96 0.69, 85.85 8.2, 85.26 21 M85.26 21 C85.14 30.62, 86.29 41.93, 85.26 63 M85.26 21 C85.56 36.16, 84.72 53.34, 85.26 63 M85.26 63 C84.27 77.75, 76.55 83.87, 64.26 84 M85.26 63 C83.25 75.03, 76.93 85.88, 64.26 84 M64.26 84 C50.84 82.93, 38.75 82.24, 21 84 M64.26 84 C48.96 84.36, 31.32 84.38, 21 84 M21 84 C6.19 85.34, -0.06 78.09, 0 63 M21 84 C5.64 82.33, -0.24 76.81, 0 63 M0 63 C1.05 45.71, 1.55 30.97, 0 21 M0 63 C-0.13 48.62, 0.14 34.22, 0 21 M0 21 C1.78 8.38, 7.52 -0.82, 21 0 M0 21 C0.21 8.46, 9 1.42, 21 0" stroke="#1e1e1e" stroke-width="2" fill="none"></path></g><g stroke-linecap="round" transform="translate(10 11.5) rotate(0 42.631062797549646 42)"><path d="M21 0 C37.02 -0.2, 50.48 0.88, 64.26 0 M21 0 C37.48 -0.48, 51.76 0.11, 64.26 0 M64.26 0 C78.36 1.46, 86.84 6.4, 85.26 21 M64.26 0 C78.49 -1.78, 85.5 8.76, 85.26 21 M85.26 21 C86.18 35.1, 84.9 45.24, 85.26 63 M85.26 21 C85.52 35.4, 85.75 50.06, 85.26 63 M85.26 63 C83.89 77.4, 79.06 85.3, 64.26 84 M85.26 63 C83.04 78.98, 76.14 84.75, 64.26 84 M64.26 84 C49.29 85.74, 36.14 83.24, 21 84 M64.26 84 C47.2 84.56, 29.79 85.23, 21 84 M21 84 C5.65 84.91, -1.2 77.27, 0 63 M21 84 C8.33 82.79, -0.11 78.07, 0 63 M0 63 C-1.77 47.3, 0.07 30.47, 0 21 M0 63 C-0.26 49.97, 0.97 36.41, 0 21 M0 21 C0.81 7.62, 8.93 -0.25, 21 0 M0 21 C-1.69 5.06, 4.99 -1.9, 21 0" stroke="#1e1e1e" stroke-width="2" fill="none"></path></g><g stroke-linecap="round" transform="translate(12 187) rotate(0 42.631062797549646 42)"><path d="M21 0 C31.4 1.63, 43.91 0.69, 64.26 0 M21 0 C36.86 0.24, 53.84 -0.46, 64.26 0 M64.26 0 C80.01 1.46, 85.99 6.16, 85.26 21 M64.26 0 C76.66 1.01, 85.79 8.3, 85.26 21 M85.26 21 C86.55 32.2, 86.57 44.78, 85.26 63 M85.26 21 C85.43 29.47, 86.01 38.24, 85.26 63 M85.26 63 C83.38 75.55, 79.07 84.95, 64.26 84 M85.26 63 C85.51 76.32, 79.91 85.05, 64.26 84 M64.26 84 C49.94 82.85, 35.2 83.09, 21 84 M64.26 84 C50.24 83.05, 37.55 84.36, 21 84 M21 84 C5.13 85.26, 1.19 76.66, 0 63 M21 84 C7.13 82.08, 1.19 76.68, 0 63 M0 63 C0.16 48.45, 1.51 38.49, 0 21 M0 63 C0.47 51.72, 0.56 38.15, 0 21 M0 21 C-0.18 8.58, 8.66 -1.99, 21 0 M0 21 C-1.3 7.08, 6.55 0.78, 21 0" stroke="#1e1e1e" stroke-width="2" fill="none"></path></g></svg>