<svg version="1.1" xmlns="http://www.w3.org/2000/svg" viewBox="0 0 461 324.93098791859944" width="461" height="324.93098791859944" filter="invert(93%) hue-rotate(180deg)" class="excalidraw-svg">
  <!-- svg-source:excalidraw -->
  
  <defs>
    <style class="style-fonts">
      
    </style>
    
  </defs>
  <rect x="0" y="0" width="461" height="324.93098791859944" fill="#ffffff"></rect><g stroke-linecap="round" transform="translate(112.04991843952507 89.93098791859944) rotate(0 122.5 112.5)"><path d="M245 112.5 C245 115.77, 244.84 119.05, 244.53 122.31 C244.22 125.56, 243.76 128.82, 243.14 132.04 C242.52 135.25, 241.75 138.46, 240.83 141.62 C239.9 144.77, 238.83 147.91, 237.61 150.98 C236.4 154.05, 235.03 157.08, 233.52 160.04 C232.02 163.01, 230.37 165.92, 228.59 168.75 C226.81 171.58, 224.89 174.35, 222.85 177.03 C220.8 179.7, 218.63 182.31, 216.34 184.81 C214.05 187.32, 211.64 189.74, 209.12 192.05 C206.6 194.36, 203.97 196.58, 201.24 198.68 C198.52 200.78, 195.68 202.78, 192.76 204.65 C189.85 206.53, 186.83 208.29, 183.75 209.93 C180.67 211.56, 177.5 213.08, 174.27 214.46 C171.05 215.84, 167.74 217.1, 164.4 218.22 C161.05 219.33, 157.64 220.32, 154.21 221.17 C150.77 222.01, 147.28 222.72, 143.77 223.29 C140.27 223.86, 136.72 224.29, 133.18 224.57 C129.63 224.86, 126.06 225, 122.5 225 C118.94 225, 115.37 224.86, 111.82 224.57 C108.28 224.29, 104.73 223.86, 101.23 223.29 C97.72 222.72, 94.23 222.01, 90.79 221.17 C87.36 220.32, 83.95 219.33, 80.6 218.22 C77.26 217.1, 73.95 215.84, 70.73 214.46 C67.5 213.08, 64.33 211.56, 61.25 209.93 C58.17 208.29, 55.15 206.53, 52.24 204.65 C49.32 202.78, 46.48 200.78, 43.76 198.68 C41.03 196.58, 38.4 194.36, 35.88 192.05 C33.36 189.74, 30.95 187.32, 28.66 184.81 C26.37 182.31, 24.2 179.7, 22.15 177.03 C20.11 174.35, 18.19 171.58, 16.41 168.75 C14.63 165.92, 12.98 163.01, 11.48 160.04 C9.97 157.08, 8.6 154.05, 7.39 150.98 C6.17 147.91, 5.1 144.77, 4.17 141.62 C3.25 138.46, 2.48 135.25, 1.86 132.04 C1.24 128.82, 0.78 125.56, 0.47 122.31 C0.16 119.05, 0 115.77, 0 112.5 C0 109.23, 0.16 105.95, 0.47 102.69 C0.78 99.44, 1.24 96.18, 1.86 92.96 C2.48 89.75, 3.25 86.54, 4.17 83.38 C5.1 80.23, 6.17 77.09, 7.39 74.02 C8.6 70.95, 9.97 67.92, 11.48 64.96 C12.98 61.99, 14.63 59.08, 16.41 56.25 C18.19 53.42, 20.11 50.65, 22.15 47.97 C24.2 45.3, 26.37 42.69, 28.66 40.19 C30.95 37.68, 33.36 35.26, 35.88 32.95 C38.4 30.64, 41.03 28.42, 43.76 26.32 C46.48 24.22, 49.32 22.22, 52.24 20.35 C55.15 18.47, 58.17 16.71, 61.25 15.07 C64.33 13.44, 67.5 11.92, 70.73 10.54 C73.95 9.16, 77.26 7.9, 80.6 6.78 C83.95 5.67, 87.36 4.68, 90.79 3.83 C94.23 2.99, 97.72 2.28, 101.23 1.71 C104.73 1.14, 108.28 0.71, 111.82 0.43 C115.37 0.14, 118.94 0, 122.5 0 C126.06 0, 129.63 0.14, 133.18 0.43 C136.72 0.71, 140.27 1.14, 143.77 1.71 C147.28 2.28, 150.77 2.99, 154.21 3.83 C157.64 4.68, 161.05 5.67, 164.4 6.78 C167.74 7.9, 171.05 9.16, 174.27 10.54 C177.5 11.92, 180.67 13.44, 183.75 15.07 C186.83 16.71, 189.85 18.47, 192.76 20.35 C195.68 22.22, 198.52 24.22, 201.24 26.32 C203.97 28.42, 206.6 30.64, 209.12 32.95 C211.64 35.26, 214.05 37.68, 216.34 40.19 C218.63 42.69, 220.8 45.3, 222.85 47.97 C224.89 50.65, 226.81 53.42, 228.59 56.25 C230.37 59.08, 232.02 61.99, 233.52 64.96 C235.03 67.92, 236.4 70.95, 237.61 74.02 C238.83 77.09, 239.9 80.23, 240.83 83.38 C241.75 86.54, 242.52 89.75, 243.14 92.96 C243.76 96.18, 244.22 99.44, 244.53 102.69 C244.84 105.95, 244.92 110.87, 245 112.5 C245.08 114.13, 245.08 110.87, 245 112.5" stroke="#1e1e1e" stroke-width="2" fill="none"></path></g><g stroke-linecap="round"><g transform="translate(48.235133378726374 19.797054025854436) rotate(0 172.26486662127365 -4.898527012927218)"><path d="M0 0 C57.42 -1.63, 287.11 -8.16, 344.53 -9.8 M0 0 C57.42 -1.63, 287.11 -8.16, 344.53 -9.8" stroke="#1e1e1e" stroke-width="2" fill="none"></path></g><g transform="translate(48.235133378726374 19.797054025854436) rotate(0 172.26486662127365 -4.898527012927218)"><path d="M321.29 -0.58 C328.93 -3.61, 336.58 -6.64, 344.53 -9.8 M321.29 -0.58 C328.24 -3.34, 335.2 -6.1, 344.53 -9.8" stroke="#1e1e1e" stroke-width="2" fill="none"></path></g><g transform="translate(48.235133378726374 19.797054025854436) rotate(0 172.26486662127365 -4.898527012927218)"><path d="M320.8 -17.68 C328.61 -15.08, 336.41 -12.49, 344.53 -9.8 M320.8 -17.68 C327.9 -15.32, 335 -12.96, 344.53 -9.8" stroke="#1e1e1e" stroke-width="2" fill="none"></path></g></g><mask></mask><g stroke-linecap="round"><g transform="translate(52.5 102.96549395929975) rotate(0 189.5 -13.5)"><path d="M0 0 C63.17 -4.5, 315.83 -22.5, 379 -27 M0 0 C63.17 -4.5, 315.83 -22.5, 379 -27" stroke="#1e1e1e" stroke-width="2" fill="none"></path></g><g transform="translate(52.5 102.96549395929975) rotate(0 189.5 -13.5)"><path d="M356.17 -16.8 C362.53 -19.64, 368.89 -22.48, 379 -27 M356.17 -16.8 C363.8 -20.21, 371.43 -23.62, 379 -27" stroke="#1e1e1e" stroke-width="2" fill="none"></path></g><g transform="translate(52.5 102.96549395929975) rotate(0 189.5 -13.5)"><path d="M354.96 -33.86 C361.65 -31.95, 368.35 -30.04, 379 -27 M354.96 -33.86 C362.99 -31.57, 371.02 -29.28, 379 -27" stroke="#1e1e1e" stroke-width="2" fill="none"></path></g></g><mask></mask><g stroke-linecap="round"><g transform="translate(10 219.46549395929975) rotate(0 220.5 -18.25)"><path d="M0 0 C73.5 -6.08, 367.5 -30.42, 441 -36.5 M0 0 C73.5 -6.08, 367.5 -30.42, 441 -36.5" stroke="#1e1e1e" stroke-width="2" fill="none"></path></g><g transform="translate(10 219.46549395929975) rotate(0 220.5 -18.25)"><path d="M418.29 -26.04 C424.9 -29.08, 431.51 -32.13, 441 -36.5 M418.29 -26.04 C426.5 -29.82, 434.71 -33.6, 441 -36.5" stroke="#1e1e1e" stroke-width="2" fill="none"></path></g><g transform="translate(10 219.46549395929975) rotate(0 220.5 -18.25)"><path d="M416.88 -43.08 C423.9 -41.17, 430.92 -39.25, 441 -36.5 M416.88 -43.08 C425.6 -40.7, 434.32 -38.32, 441 -36.5" stroke="#1e1e1e" stroke-width="2" fill="none"></path></g></g><mask></mask><g transform="translate(226.5 87.46549395929975) rotate(0 -1.5 2.75)" stroke="none"><path fill="#e03131" d="M 4.65,1.74 Q 4.65,1.74 4.31,2.92 3.97,4.10 2.68,2.12 1.39,0.13 -1.15,1.37 -3.70,2.61 -2.66,4.59 -1.62,6.56 0.49,5.39 2.61,4.22 2.31,2.05 2.01,-0.10 2.36,-1.43 2.70,-2.76 3.37,-2.35 4.04,-1.93 4.59,-1.37 5.13,-0.80 5.53,-0.13 5.93,0.54 6.15,1.29 6.38,2.05 6.42,2.83 6.45,3.62 6.30,4.39 6.15,5.16 5.82,5.87 5.49,6.58 4.99,7.20 4.50,7.81 3.88,8.29 3.25,8.76 2.53,9.08 1.81,9.39 1.03,9.52 0.26,9.65 -0.51,9.59 -1.30,9.54 -2.05,9.29 -2.79,9.05 -4.06,4.19 -5.33,-0.66 -4.58,-1.41 -3.83,-2.15 -2.89,-2.62 -1.94,-3.09 -0.90,-3.23 0.14,-3.37 1.17,-3.17 2.21,-2.97 3.13,-2.45 4.04,-1.93 4.75,-1.14 5.45,-0.35 5.87,0.61 6.28,1.58 6.36,2.63 6.45,3.68 6.19,4.70 5.94,5.73 5.37,6.61 4.80,7.50 3.97,8.16 3.15,8.82 2.16,9.18 1.17,9.54 0.11,9.57 -0.93,9.60 -1.94,9.29 -2.95,8.97 -3.80,8.36 -4.66,7.74 -5.27,6.88 -5.89,6.03 -6.19,5.02 -6.50,4.01 -6.47,2.95 -6.44,1.90 -6.07,0.91 -5.71,-0.07 -5.05,-0.89 -4.38,-1.71 -3.49,-2.28 -2.60,-2.85 -1.58,-3.10 -0.56,-3.35 0.48,-3.26 1.54,-3.18 2.50,-2.76 3.47,-2.34 4.26,-1.63 5.04,-0.93 5.56,-0.01 6.07,0.90 6.27,1.94 6.47,2.98 6.32,4.02 6.18,5.07 4.44,1.15 2.70,-2.76 3.37,-2.35 4.04,-1.93 4.59,-1.37 5.13,-0.81 5.53,-0.13 5.93,0.54 6.15,1.29 6.38,2.05 6.42,2.83 6.45,3.62 6.30,4.39 6.15,5.16 5.82,5.87 5.49,6.58 4.99,7.20 4.50,7.81 3.88,8.29 3.25,8.76 2.53,9.08 1.81,9.39 1.03,9.52 0.26,9.65 -0.51,9.59 -1.30,9.54 -2.05,9.29 -2.79,9.05 -3.91,9.65 -5.03,10.25 -6.95,8.46 -8.86,6.68 -9.08,3.29 -9.30,-0.08 -7.59,-2.27 -5.89,-4.47 -2.74,-4.95 0.41,-5.43 2.17,-4.11 3.94,-2.79 5.08,0.50 6.23,3.81 5.09,6.04 3.96,8.27 0.91,9.44 -2.13,10.61 -3.91,8.58 -5.70,6.55 -5.69,3.52 -5.69,0.49 -5.17,-0.62 -4.65,-1.74 -4.37,-2.27 -4.09,-2.80 -3.70,-3.25 -3.30,-3.70 -2.81,-4.04 -2.32,-4.38 -1.76,-4.60 -1.20,-4.81 -0.61,-4.89 -0.01,-4.96 0.57,-4.89 1.17,-4.82 1.73,-4.61 2.29,-4.40 2.78,-4.06 3.28,-3.73 3.67,-3.28 4.07,-2.83 4.35,-2.30 4.63,-1.77 4.78,-1.19 4.92,-0.61 4.93,-0.01 4.93,0.58 4.79,1.16 4.65,1.74 4.65,1.74 L 4.65,1.74 Z"></path></g><g transform="translate(111 210.46549395929975) rotate(0 1.25 2)" stroke="none"><path fill="#e03131" d="M 4.84,-0.60 Q 4.84,-0.60 5.08,0.50 5.31,1.62 2.52,0.43 -0.26,-0.74 -0.59,2.16 -0.92,5.07 2.07,4.61 5.07,4.15 4.40,0.96 3.74,-2.21 1.17,-2.28 -1.39,-2.35 -3.19,-2.37 -4.99,-2.39 -4.56,-3.02 -4.13,-3.66 -3.56,-4.17 -2.99,-4.68 -2.32,-5.04 -1.64,-5.41 -0.90,-5.60 -0.16,-5.78 0.60,-5.79 1.36,-5.80 2.11,-5.62 2.85,-5.44 3.54,-5.09 4.22,-4.74 4.79,-4.24 5.37,-3.73 5.81,-3.10 6.25,-2.48 6.53,-1.76 6.81,-1.05 6.90,-0.29 7.00,0.46 6.92,1.22 6.83,1.98 6.56,2.70 6.30,3.42 2.17,4.87 -1.94,6.31 -2.80,5.74 -3.66,5.18 -4.29,4.36 -4.92,3.55 -5.26,2.58 -5.60,1.61 -5.62,0.58 -5.63,-0.43 -5.31,-1.41 -4.99,-2.39 -4.38,-3.22 -3.77,-4.04 -2.93,-4.63 -2.08,-5.22 -1.09,-5.50 -0.11,-5.79 0.91,-5.75 1.94,-5.70 2.90,-5.33 3.86,-4.97 4.65,-4.31 5.44,-3.65 5.98,-2.78 6.52,-1.90 6.76,-0.90 6.99,0.09 6.89,1.11 6.79,2.14 6.37,3.08 5.95,4.01 5.25,4.77 4.55,5.52 3.65,6.02 2.75,6.51 1.73,6.69 0.72,6.87 -0.29,6.71 -1.30,6.56 -2.22,6.09 -3.13,5.61 -3.85,4.88 -4.56,4.14 -5.01,3.21 -5.45,2.28 -5.57,1.26 -5.69,0.24 -5.49,-0.76 -5.28,-1.76 -4.76,-2.65 -4.24,-3.54 -3.46,-4.21 -2.68,-4.89 -1.73,-5.28 -0.78,-5.67 0.23,-5.74 1.26,-5.81 -1.86,-4.10 -4.99,-2.39 -4.56,-3.02 -4.13,-3.66 -3.56,-4.17 -3.00,-4.68 -2.32,-5.04 -1.64,-5.41 -0.90,-5.59 -0.16,-5.78 0.60,-5.79 1.36,-5.80 2.11,-5.62 2.85,-5.44 3.53,-5.09 4.22,-4.74 4.79,-4.24 5.37,-3.73 5.81,-3.10 6.25,-2.48 6.53,-1.76 6.81,-1.05 6.90,-0.29 7.00,0.46 6.92,1.22 6.83,1.98 6.56,2.70 6.30,3.42 5.98,5.59 5.66,7.77 2.52,8.38 -0.61,8.99 -2.85,6.82 -5.09,4.65 -5.46,2.28 -5.82,-0.08 -3.70,-2.27 -1.58,-4.46 1.11,-4.74 3.81,-5.01 5.96,-2.69 8.11,-0.38 7.91,2.71 7.71,5.81 4.82,7.48 1.94,9.16 -0.14,8.42 -2.24,7.68 -3.49,5.33 -4.74,2.97 -4.79,1.79 -4.84,0.60 -4.84,0.01 -4.84,-0.57 -4.70,-1.14 -4.57,-1.71 -4.29,-2.23 -4.02,-2.75 -3.63,-3.20 -3.24,-3.64 -2.76,-3.97 -2.28,-4.31 -1.73,-4.52 -1.18,-4.73 -0.60,-4.80 -0.01,-4.88 0.56,-4.81 1.15,-4.74 1.70,-4.53 2.25,-4.33 2.73,-3.99 3.22,-3.66 3.61,-3.22 4.00,-2.78 4.28,-2.26 4.55,-1.74 4.70,-1.17 4.84,-0.60 4.84,-0.60 L 4.84,-0.60 Z"></path></g><g transform="translate(355.5 188.46549395929975) rotate(0 0.25 5)" stroke="none"><path fill="#e03131" d="M 4.45,2.39 Q 4.45,2.39 3.50,4.29 2.56,6.19 0.36,5.21 -1.83,4.24 -1.16,6.41 -0.49,8.58 2.06,7.29 4.63,6.00 4.99,3.50 5.36,1.00 3.65,-0.40 1.94,-1.82 -0.60,-0.93 -3.15,-0.04 -4.74,0.70 -6.33,1.45 -6.17,0.62 -6.02,-0.21 -5.67,-0.98 -5.32,-1.75 -4.80,-2.42 -4.28,-3.08 -3.61,-3.60 -2.94,-4.13 -2.17,-4.47 -1.40,-4.82 -0.57,-4.97 0.26,-5.13 1.10,-5.07 1.95,-5.02 2.76,-4.77 3.57,-4.52 4.29,-4.08 5.02,-3.64 5.61,-3.04 6.21,-2.44 6.65,-1.72 7.09,-0.99 7.34,-0.18 7.59,0.62 7.64,1.46 7.69,2.31 5.02,5.51 2.35,8.70 1.21,8.79 0.08,8.88 -1.01,8.60 -2.11,8.32 -3.07,7.71 -4.03,7.09 -4.73,6.20 -5.44,5.31 -5.83,4.24 -6.22,3.18 -6.24,2.04 -6.27,0.90 -5.93,-0.17 -5.59,-1.26 -4.93,-2.18 -4.26,-3.10 -3.33,-3.76 -2.41,-4.42 -1.32,-4.75 -0.23,-5.08 0.89,-5.04 2.03,-5.01 3.10,-4.61 4.16,-4.21 5.05,-3.50 5.93,-2.78 6.54,-1.82 7.14,-0.86 7.41,0.23 7.68,1.34 7.59,2.47 7.49,3.60 7.04,4.65 6.58,5.69 5.82,6.53 5.06,7.37 4.07,7.93 3.07,8.49 1.96,8.69 0.84,8.90 -0.28,8.75 -1.40,8.59 -2.42,8.08 -3.44,7.57 -4.24,6.76 -5.04,5.95 -5.54,4.93 -6.04,3.91 -6.19,2.79 -6.34,1.66 -6.12,0.54 -5.90,-0.56 -5.33,-1.55 -4.77,-2.54 -3.92,-3.29 -3.07,-4.05 -4.70,-1.29 -6.33,1.45 -6.17,0.62 -6.02,-0.20 -5.67,-0.98 -5.32,-1.75 -4.80,-2.42 -4.28,-3.08 -3.61,-3.60 -2.94,-4.13 -2.17,-4.47 -1.40,-4.82 -0.57,-4.97 0.26,-5.13 1.10,-5.07 1.95,-5.02 2.76,-4.77 3.57,-4.52 4.29,-4.08 5.01,-3.64 5.61,-3.04 6.21,-2.44 6.65,-1.72 7.09,-0.99 7.34,-0.18 7.59,0.62 7.64,1.46 7.69,2.31 8.54,3.09 9.38,3.87 8.40,6.38 7.42,8.88 3.38,10.28 -0.65,11.68 -3.04,10.36 -5.42,9.03 -6.53,6.32 -7.63,3.60 -6.97,1.09 -6.30,-1.41 -4.47,-2.50 -2.63,-3.60 0.24,-3.68 3.12,-3.76 5.51,-2.50 7.89,-1.24 9.10,1.99 10.30,5.22 9.65,7.37 9.00,9.51 7.62,11.39 6.24,13.28 3.48,14.55 0.73,15.83 -1.55,15.57 -3.84,15.31 -6.17,13.05 -8.51,10.80 -8.54,8.44 -8.57,6.09 -7.57,3.68 -6.58,1.27 -5.51,-0.55 -4.45,-2.39 -4.09,-2.89 -3.74,-3.39 -3.28,-3.79 -2.82,-4.19 -2.28,-4.46 -1.74,-4.74 -1.14,-4.88 -0.55,-5.02 0.05,-5.01 0.66,-5.01 1.25,-4.85 1.84,-4.70 2.37,-4.41 2.91,-4.12 3.36,-3.72 3.81,-3.31 4.16,-2.80 4.50,-2.30 4.71,-1.72 4.92,-1.15 4.98,-0.55 5.05,0.05 4.97,0.65 4.89,1.26 4.67,1.82 4.45,2.39 4.45,2.39 L 4.45,2.39 Z"></path></g></svg>