<svg version="1.1" xmlns="http://www.w3.org/2000/svg" viewBox="0 0 497.1860482988709 444.795174545942" width="497.1860482988709" height="444.795174545942" filter="invert(93%) hue-rotate(180deg)" class="excalidraw-svg">
  <!-- svg-source:excalidraw -->
  
  <defs>
    <style class="style-fonts">
      
    </style>
    
  </defs>
  <rect x="0" y="0" width="497.1860482988709" height="444.795174545942" fill="#ffffff"></rect><g stroke-linecap="round"><g transform="translate(10.356790518895991 128.0090839990354) rotate(0 235.04765521756218 152.61165341571473)"><path d="M0 0 C176.35 -1.29, 353.35 -0.87, 470.1 -1.56 M0 0 C117.19 -1.24, 234.87 -0.9, 470.1 -1.56 M470.1 -1.56 C385.74 105.94, 302.77 213.15, 229.7 306.79 M470.1 -1.56 C406.53 78.07, 345.02 157.31, 229.7 306.79 M229.7 306.79 C172.93 229.46, 112.53 152.04, 0 0 M229.7 306.79 C179.31 239.72, 127.85 172.1, 0 0" stroke="#1e1e1e" stroke-width="2" fill="none"></path></g></g><mask></mask><g stroke-linecap="round"><g transform="translate(89.3456359610638 234.07728764791955) rotate(0 2.606243516969286 57.626939986320174)"><path d="M0 0 C28.82 38.04, 55.91 74.51, 84.56 114.67 M0 0 C20.44 29.24, 43.79 59.15, 84.56 114.67 M84.56 114.67 C35.08 112.86, -10.04 115.5, -79.35 115.25 M84.56 114.67 C28.44 113.26, -25.52 112.79, -79.35 115.25 M-79.35 115.25 C-65.2 90.38, -46.58 69.78, 0 0 M-79.35 115.25 C-60.68 88.25, -40.85 59.13, 0 0" stroke="#1e1e1e" stroke-width="2" fill="none"></path></g></g><mask></mask><g stroke-linecap="round"><g transform="translate(234.26432467367937 10) rotate(0 2.34657542472479 57.626939986320174)"><path d="M0 0 C34.22 46.92, 66.5 91.49, 84.04 115.19 M0 0 C21.02 27.75, 41.6 56.49, 84.04 115.19 M84.04 115.19 C29.51 117.65, -21.78 115.2, -79.35 115.25 M84.04 115.19 C24.43 115.4, -34.16 117.21, -79.35 115.25 M-79.35 115.25 C-62.92 88.98, -41.42 62.71, 0 0 M-79.35 115.25 C-47.92 71.05, -17.96 24.93, 0 0" stroke="#1e1e1e" stroke-width="2" fill="none"></path></g></g><mask></mask><g stroke-linecap="round"><g transform="translate(405.45337868318137 220.804862526363) rotate(0 -4.104208258898794 59.45644740780819)"><path d="M0 0 C31.09 46.24, 63.24 94.34, 81.73 118.91 M0 0 C30.25 42.75, 59 84.07, 81.73 118.91 M81.73 118.91 C33.22 119.46, -16.95 118.8, -89.94 118.08 M81.73 118.91 C20.92 117.74, -39 117.26, -89.94 118.08 M-89.94 118.08 C-69.92 90.95, -50.07 62.87, 0 0 M-89.94 118.08 C-58.84 77.95, -26.79 37.08, 0 0" stroke="#1e1e1e" stroke-width="2" fill="none"></path></g></g><mask></mask></svg>