<svg version="1.1" xmlns="http://www.w3.org/2000/svg" viewBox="0 0 845.0826353287516 732.2625330026708" width="845.0826353287516" height="732.2625330026708" filter="invert(93%) hue-rotate(180deg)" class="excalidraw-svg">
  <!-- svg-source:excalidraw -->
  
  <defs>
    <style class="style-fonts">
      
    </style>
    
  </defs>
  <rect x="0" y="0" width="845.0826353287516" height="732.2625330026708" fill="#ffffff"></rect><g stroke-linecap="round" transform="translate(10.42981490389377 199.07748828532425) rotate(0 70 65)"><path d="M0 0 C42.1 -0.25, 85.52 2.49, 140 0 M0 0 C40.96 0.17, 82.34 0.65, 140 0 M140 0 C140.13 27.56, 142.67 54.06, 140 130 M140 0 C140.45 36.05, 141.85 74.35, 140 130 M140 130 C92.39 128.91, 47.49 129.5, 0 130 M140 130 C87.8 130.81, 35.33 130.68, 0 130 M0 130 C-2.83 85.44, 0.1 43.59, 0 0 M0 130 C-0.56 96, 1.22 61.74, 0 0" stroke="#1e1e1e" stroke-width="2" fill="none"></path></g><g stroke-linecap="round" transform="translate(152.2484515119698 198.71224582748772) rotate(0 70 65)"><path d="M0 0 C49.82 0.05, 100.77 0.56, 140 0 M0 0 C32 -0.63, 61.81 -1.01, 140 0 M140 0 C139.88 47.82, 141 91.17, 140 130 M140 0 C141.14 48.54, 139.92 97.92, 140 130 M140 130 C91.06 128.53, 39.06 128.81, 0 130 M140 130 C112.12 131.02, 83.23 130.21, 0 130 M0 130 C0.73 101.33, -2.98 75.59, 0 0 M0 130 C0.01 96.87, 0.48 64.71, 0 0" stroke="#1e1e1e" stroke-width="2" fill="none"></path></g><g stroke-linecap="round" transform="translate(294.13864276087224 198.7792922689639) rotate(0 70 65)"><path d="M0 0 C51.72 -0.61, 107.66 0, 140 0 M0 0 C40.21 -0.03, 82.01 -0.08, 140 0 M140 0 C139.74 35.05, 140.69 67.1, 140 130 M140 0 C140.43 51.75, 141.01 102.65, 140 130 M140 130 C97.94 130.76, 58.12 130.39, 0 130 M140 130 C89.7 129.15, 38.95 128.76, 0 130 M0 130 C0.03 86.44, -0.65 39.67, 0 0 M0 130 C-1.16 84.16, -1.72 40.78, 0 0" stroke="#1e1e1e" stroke-width="2" fill="none"></path></g><g stroke-linecap="round" transform="translate(10.309972041459986 330.0813774708726) rotate(0 70 65)"><path d="M0 0 C50.33 -1.18, 101.26 -1.4, 140 0 M0 0 C39.11 -2.01, 80 -1.39, 140 0 M140 0 C141.12 52.08, 138.25 100.75, 140 130 M140 0 C139.37 33.65, 139.74 67.17, 140 130 M140 130 C84.25 128.34, 31.2 129.09, 0 130 M140 130 C86.64 130.45, 30.62 131.82, 0 130 M0 130 C0.38 104.19, -0.16 73.48, 0 0 M0 130 C0.64 102.95, 0.6 78.13, 0 0" stroke="#1e1e1e" stroke-width="2" fill="none"></path></g><g stroke-linecap="round" transform="translate(152.128608649536 329.7161350130361) rotate(0 70 65)"><path d="M0 0 C54.99 -0.18, 109.69 1.36, 140 0 M0 0 C54.03 0.95, 108.88 0.64, 140 0 M140 0 C140.05 28.15, 140.34 54.31, 140 130 M140 0 C141.48 34.24, 141.51 68.39, 140 130 M140 130 C104.61 129.09, 71.35 128.1, 0 130 M140 130 C83.84 129.22, 28.18 128.24, 0 130 M0 130 C-0.64 79.05, -1.76 31.23, 0 0 M0 130 C-0.19 93.09, 0 54.98, 0 0" stroke="#1e1e1e" stroke-width="2" fill="none"></path></g><g stroke-linecap="round" transform="translate(294.0187998984385 329.78318145451226) rotate(0 70 65)"><path d="M0 0 C42.53 1.51, 87.35 -1.69, 140 0 M0 0 C31.49 -0.23, 60.39 1.15, 140 0 M140 0 C138.47 48.84, 138.59 102.09, 140 130 M140 0 C141.99 37.51, 140.62 75.54, 140 130 M140 130 C106.61 128.62, 71.62 131.81, 0 130 M140 130 C109.68 130.16, 81.92 130.53, 0 130 M0 130 C-1.4 80.3, 0.36 32.03, 0 0 M0 130 C0.05 99.95, -0.74 68.65, 0 0" stroke="#1e1e1e" stroke-width="2" fill="none"></path></g><g stroke-linecap="round" transform="translate(10 461.043032542003) rotate(0 70 65)"><path d="M0 0 C43.43 0.33, 85.9 0.37, 140 0 M0 0 C52.72 -0.33, 103.83 -1.22, 140 0 M140 0 C139.73 49.75, 142.03 100.1, 140 130 M140 0 C138.96 30, 138.88 59.59, 140 130 M140 130 C101.87 129.2, 58.67 127.8, 0 130 M140 130 C94.71 129.19, 52.17 130.11, 0 130 M0 130 C1.09 98.59, -1.65 66.4, 0 0 M0 130 C-0.86 95.87, 0.18 61.51, 0 0" stroke="#1e1e1e" stroke-width="2" fill="none"></path></g><g stroke-linecap="round" transform="translate(151.81863660807602 460.6777900841665) rotate(0 70 65)"><path d="M0 0 C55.8 0.54, 111.52 -0.9, 140 0 M0 0 C47.29 -0.97, 95.53 0.37, 140 0 M140 0 C140.44 49.23, 137.79 95.9, 140 130 M140 0 C138.77 43.34, 139.2 84.62, 140 130 M140 130 C101.87 128.17, 67.26 128.75, 0 130 M140 130 C107.2 130.94, 71.85 130.51, 0 130 M0 130 C-2.13 86.49, -1.9 43.98, 0 0 M0 130 C1.28 94.78, 1.92 60.15, 0 0" stroke="#1e1e1e" stroke-width="2" fill="none"></path></g><g stroke-linecap="round" transform="translate(293.7088278569785 460.74483652564265) rotate(0 70 65)"><path d="M0 0 C54.84 -0.94, 107.61 0.36, 140 0 M0 0 C45.67 1.62, 90.44 0.39, 140 0 M140 0 C139.29 39.03, 141.32 78.73, 140 130 M140 0 C139.09 46.09, 138.86 94.12, 140 130 M140 130 C100.13 127.77, 58.39 127.08, 0 130 M140 130 C97.3 131.79, 56.06 132.16, 0 130 M0 130 C-0.12 90.04, -0.02 48.33, 0 0 M0 130 C0.58 92.81, 0.29 56.72, 0 0" stroke="#1e1e1e" stroke-width="2" fill="none"></path></g><g stroke-linecap="round" transform="translate(435.6473058241628 198.98636819275433) rotate(0 70 65)"><path d="M0 0 C38.43 -2.42, 81.74 -1.19, 140 0 M0 0 C54.8 0.11, 110.23 0.09, 140 0 M140 0 C139.53 47.3, 139.08 95.45, 140 130 M140 0 C138.58 28.06, 139.29 55.07, 140 130 M140 130 C108.52 132.72, 75.22 132.79, 0 130 M140 130 C95.08 128.13, 49.18 129.7, 0 130 M0 130 C2.31 88.95, 1.83 44.65, 0 0 M0 130 C0.84 82.46, 0.59 36.81, 0 0" stroke="#1e1e1e" stroke-width="2" fill="none"></path></g><g stroke-linecap="round" transform="translate(435.52746296172904 329.99025737830266) rotate(0 70.00000000000001 65)"><path d="M0 0 C56.99 0.9, 112.57 0.85, 140 0 M0 0 C30.29 0.37, 63.15 0.88, 140 0 M140 0 C139.81 37.4, 138.33 76.96, 140 130 M140 0 C138.84 35.37, 138.2 70.24, 140 130 M140 130 C85.81 132.89, 35.22 131.69, 0 130 M140 130 C109.79 129.93, 79.99 128.34, 0 130 M0 130 C0.01 101.13, 0.32 74.97, 0 0 M0 130 C-0.34 87.32, 0.55 42.86, 0 0" stroke="#1e1e1e" stroke-width="2" fill="none"></path></g><g stroke-linecap="round" transform="translate(435.21749092026903 460.95191244943305) rotate(0 70 65)"><path d="M0 0 C36.35 -0.01, 67.28 -1.65, 140 0 M0 0 C29.11 0.91, 56.76 1.47, 140 0 M140 0 C138.04 30.3, 139.24 60.83, 140 130 M140 0 C139.12 45.83, 140.63 92.53, 140 130 M140 130 C86.86 131.74, 31.07 132.1, 0 130 M140 130 C107.82 130.54, 74.29 131.94, 0 130 M0 130 C0.63 85.35, 0.09 42.92, 0 0 M0 130 C0.87 98.13, 0.34 67.59, 0 0" stroke="#1e1e1e" stroke-width="2" fill="none"></path></g><g stroke-linecap="round" transform="translate(10.755394658440707 592.2625330026708) rotate(0 70 65)"><path d="M0 0 C41.03 1.34, 78.31 1.76, 140 0 M0 0 C39.25 -1.45, 76.88 -1.42, 140 0 M140 0 C138.18 37.81, 140.75 72.37, 140 130 M140 0 C140.51 47.25, 141.08 94.73, 140 130 M140 130 C94.61 131.95, 51.39 129.17, 0 130 M140 130 C85.59 131.07, 29.74 130.21, 0 130 M0 130 C0.67 101.68, 0.01 76.28, 0 0 M0 130 C0.53 90.89, 1.07 52.33, 0 0" stroke="#1e1e1e" stroke-width="2" fill="none"></path></g><g stroke-linecap="round" transform="translate(152.57403126651673 591.8972905448343) rotate(0 70 65)"><path d="M0 0 C40.47 0.81, 82.3 0.12, 140 0 M0 0 C50.7 0.26, 100.88 -0.12, 140 0 M140 0 C141.61 39.76, 140.9 82.23, 140 130 M140 0 C139.93 33.43, 139.85 67.43, 140 130 M140 130 C92.53 129.4, 44.47 129.6, 0 130 M140 130 C86.44 128.83, 31.15 129.58, 0 130 M0 130 C-0.53 83.27, -0.3 32.61, 0 0 M0 130 C0.45 86.02, -0.29 43.36, 0 0" stroke="#1e1e1e" stroke-width="2" fill="none"></path></g><g stroke-linecap="round" transform="translate(294.4642225154192 591.9643369863105) rotate(0 70 65)"><path d="M0 0 C50.42 -0.18, 103.1 0.59, 140 0 M0 0 C33.5 -0.16, 67.5 0.5, 140 0 M140 0 C142.58 48.35, 140.43 93.73, 140 130 M140 0 C140.58 38.54, 140.85 75.46, 140 130 M140 130 C90.93 127.65, 39.76 130.82, 0 130 M140 130 C98.92 128.37, 60.31 128.79, 0 130 M0 130 C0.13 94.31, 0.87 59.94, 0 0 M0 130 C-0.98 98.45, -1.66 66.86, 0 0" stroke="#1e1e1e" stroke-width="2" fill="none"></path></g><g stroke-linecap="round" transform="translate(435.97288557870974 592.1714129101009) rotate(0 70 65.00000000000001)"><path d="M0 0 C55.16 1.07, 106.69 -0.38, 140 0 M0 0 C34.16 1.04, 68.72 2.33, 140 0 M140 0 C139.97 33.59, 140.66 68.85, 140 130 M140 0 C140.75 39.58, 140.91 80.25, 140 130 M140 130 C110.21 130.96, 76.74 129.94, 0 130 M140 130 C112.65 129.85, 83.55 129.52, 0 130 M0 130 C0.72 80.01, -1.08 30.51, 0 0 M0 130 C-0.71 98.79, 0.09 66.21, 0 0" stroke="#1e1e1e" stroke-width="2" fill="none"></path></g><g stroke-linecap="round"><g transform="translate(268.94088815399334 10.544201612638801) rotate(0 282.9489874837965 261.70738880840076)"><path d="M0 0 C192.94 1.46, 386.91 0.33, 564.81 0.54 M0 0 C218.71 -0.49, 437.7 -0.03, 564.81 0.54 M564.81 0.54 C565.17 109.31, 565.02 216.15, 565.9 523.41 M564.81 0.54 C565.05 110.96, 565.45 221.15, 565.9 523.41" stroke="#1e1e1e" stroke-width="2" fill="none"></path></g></g><mask></mask><g stroke-linecap="round"><g transform="translate(574.9717374858454 721.6655614994916) rotate(0 130.0554489214531 -94.61899233330432)"><path d="M0 0 C72.71 -55.09, 147.36 -106.59, 260.11 -189.24 M0 0 C59.75 -43.5, 119.59 -87.13, 260.11 -189.24" stroke="#1e1e1e" stroke-width="2" fill="none"></path></g></g><mask></mask><g stroke-linecap="round"><g transform="translate(10.24644469027777 198.60742259183422) rotate(0 129.4466726163968 -94.30371129591711)"><path d="M0 0 C61.89 -46.94, 122.54 -89.68, 258.89 -188.61 M0 0 C88.68 -62.17, 175.39 -126.2, 258.89 -188.61" stroke="#1e1e1e" stroke-width="2" fill="none"></path></g></g><mask></mask><g stroke-linecap="round"><g transform="translate(575.4359950157462 198.88618391349962) rotate(0 128.7071538768721 -93.94473061994901)"><path d="M0 0 C66.36 -49.7, 131.61 -97.43, 257.41 -187.89 M0 0 C75.24 -53.74, 150.37 -108.28, 257.41 -187.89" stroke="#1e1e1e" stroke-width="2" fill="none"></path></g></g><mask></mask><g stroke-linecap="round"><g transform="translate(435.2513412623767 198.78590070187317) rotate(0 128.7071538768721 -93.94473061994901)"><path d="M0 0 C84.19 -64.06, 169.61 -126.57, 257.41 -187.89 M0 0 C95.89 -71.77, 192.72 -143.49, 257.41 -187.89" stroke="#1e1e1e" stroke-width="2" fill="none"></path></g></g><mask></mask><g stroke-linecap="round"><g transform="translate(293.01067627268657 199.34896096485636) rotate(0 128.7071538768721 -93.94473061994901)"><path d="M0 0 C87.35 -64.33, 173.41 -125.16, 257.41 -187.89 M0 0 C94.33 -67.71, 188.05 -135.73, 257.41 -187.89" stroke="#1e1e1e" stroke-width="2" fill="none"></path></g></g><mask></mask><g stroke-linecap="round"><g transform="translate(152.2180269814022 199.34896096485636) rotate(0 128.7071538768721 -93.94473061994901)"><path d="M0 0 C77.86 -55.4, 153.86 -112.99, 257.41 -187.89 M0 0 C61.84 -43.57, 122.1 -86.91, 257.41 -187.89" stroke="#1e1e1e" stroke-width="2" fill="none"></path></g></g><mask></mask><g stroke-linecap="round"><g transform="translate(576.3163250962388 329.2423892420826) rotate(0 128.7071538768721 -93.94473061994901)"><path d="M0 0 C78.41 -58.91, 161.05 -116.45, 257.41 -187.89 M0 0 C83.33 -60.56, 167.82 -122.16, 257.41 -187.89" stroke="#1e1e1e" stroke-width="2" fill="none"></path></g></g><mask></mask><g stroke-linecap="round"><g transform="translate(575.1785917332136 459.33011414838074) rotate(0 128.70715387687213 -93.94473061994901)"><path d="M0 0 C59.96 -45.97, 121.43 -87.67, 257.41 -187.89 M0 0 C98.74 -73.88, 197.93 -145.55, 257.41 -187.89" stroke="#1e1e1e" stroke-width="2" fill="none"></path></g></g><mask></mask><g stroke-linecap="round"><g transform="translate(576.0682196063224 590.5502254319314) rotate(0 128.70715387687213 -93.94473061994901)"><path d="M0 0 C65.59 -46.21, 132.63 -95.22, 257.41 -187.89 M0 0 C97.94 -69.15, 193.66 -139.9, 257.41 -187.89" stroke="#1e1e1e" stroke-width="2" fill="none"></path></g></g><mask></mask><g stroke-linecap="round"><g transform="translate(78.66724477581542 148.28894916932626) rotate(0 282.4744162294826 0)"><path d="M0 0 C181.92 -1.11, 363.89 -1.58, 564.95 0 M0 0 C225.17 0.9, 450.71 1.25, 564.95 0" stroke="#1e1e1e" stroke-width="2" fill="none"></path></g></g><mask></mask><g stroke-linecap="round"><g transform="translate(208.78307631288212 53.12892035657211) rotate(0 282.4744162294826 0)"><path d="M0 0 C166.69 0, 333.38 0, 564.95 0 M0 0 C223.65 0, 447.31 0, 564.95 0" stroke="#1e1e1e" stroke-width="2" fill="none"></path></g></g><mask></mask><g stroke-linecap="round"><g transform="translate(714.7971064384136 97.55689600481884) rotate(0 0.42170996644028946 261.0384692265586)"><path d="M0 0 C0.18 108.76, 0.35 217.52, 0.84 522.08 M0 0 C0.26 159.55, 0.52 319.11, 0.84 522.08" stroke="#1e1e1e" stroke-width="2" fill="none"></path></g></g><mask></mask><g stroke-linecap="round"><g transform="translate(645.6608971309149 148.86595356027044) rotate(0 0.42170996644028946 261.0384692265586)"><path d="M0 0 C0.29 177.75, 0.57 355.5, 0.84 522.08 M0 0 C0.33 204.53, 0.66 409.05, 0.84 522.08" stroke="#1e1e1e" stroke-width="2" fill="none"></path></g></g><mask></mask><g stroke-linecap="round"><g transform="translate(774.02476591095 53.930175608369666) rotate(0 0.42170996644028946 261.0384692265586)"><path d="M0 0 C0.21 127.67, 0.41 255.35, 0.84 522.08 M0 0 C0.29 178.05, 0.58 356.1, 0.84 522.08" stroke="#1e1e1e" stroke-width="2" fill="none"></path></g></g><mask></mask><g stroke-linecap="round"><g transform="translate(148.49468314592022 97.83524535599454) rotate(0 282.4744162294826 0)"><path d="M0 0 C133.12 -0.75, 265.97 -1.14, 564.95 0 M0 0 C129.69 -0.21, 259.83 -0.02, 564.95 0" stroke="#1e1e1e" stroke-width="2" fill="none"></path></g></g><mask></mask></svg>