<svg version="1.1" xmlns="http://www.w3.org/2000/svg" viewBox="0 0 412.2225725244153 51.020785247453276" width="412.2225725244153" height="51.020785247453276" filter="invert(93%) hue-rotate(180deg)" class="excalidraw-svg">
  <!-- svg-source:excalidraw -->
  
  <defs>
    <style class="style-fonts">
      
    </style>
    
  </defs>
  <rect x="0" y="0" width="412.2225725244153" height="51.020785247453276" fill="#ffffff"></rect><g stroke-linecap="round"><g transform="translate(10.330882376371989 26.522115170094665) rotate(0 195 -0.5)"><path d="M1.18 -0.27 C66.32 -0.78, 326.45 -1.9, 391.11 -1.89 M0.34 -1.46 C65.39 -1.34, 325.54 -0.71, 390.75 -0.82" stroke="#1e1e1e" stroke-width="2" fill="none"></path></g></g><mask></mask><g stroke-linecap="round"><g transform="translate(401.4514393275522 10.604076641649002) rotate(0 0.3219073396161036 14.80773762234088)"><path d="M0.32 -0.08 C0.42 4.79, 0.64 24.82, 0.77 29.71 M-0.18 -0.6 C-0.16 4.33, 0.21 23.74, 0.41 28.79" stroke="#1e1e1e" stroke-width="2" fill="none"></path></g></g><mask></mask><g stroke-linecap="round"><g transform="translate(10.228728253766889 11.141296549124021) rotate(0 0.3219073396161036 14.80773762234088)"><path d="M0.29 0.1 C0.52 4.97, 0.97 24.32, 1.1 29.33 M-0.23 -0.33 C0 4.61, 0.71 24.94, 0.9 29.88" stroke="#1e1e1e" stroke-width="2" fill="none"></path></g></g><mask></mask><g stroke-linecap="round"><g transform="translate(207.18267861692757 10.769719825681562) rotate(0 0.3219073396161036 14.80773762234088)"><path d="M0.24 0.4 C0.21 5.32, 0.06 24.98, 0.13 29.8 M-0.29 0.13 C-0.2 4.86, 1 23.99, 1.11 28.92" stroke="#1e1e1e" stroke-width="2" fill="none"></path></g></g><mask></mask><g stroke-linecap="round"><g transform="translate(106.71020634325222 10.68080611641436) rotate(0 0.3219073396161036 14.80773762234088)"><path d="M0.51 0.48 C0.69 5.49, 0.86 25.28, 0.83 30.08 M0.1 0.26 C0.26 5.12, 0.27 24.44, 0.49 29.36" stroke="#1e1e1e" stroke-width="2" fill="none"></path></g></g><mask></mask><g stroke-linecap="round"><g transform="translate(304.72057036718087 10.928129269707412) rotate(0 0.3219073396161036 14.80773762234088)"><path d="M0.37 0.29 C0.55 5.13, 1.15 24.28, 1.14 29.25 M-0.11 -0.04 C0.04 4.85, 0.98 24.87, 0.97 29.77" stroke="#1e1e1e" stroke-width="2" fill="none"></path></g></g><mask></mask></svg>