<svg version="1.1" xmlns="http://www.w3.org/2000/svg" viewBox="0 0 511.028387353377 465.33784944029145" width="511.028387353377" height="465.33784944029145" filter="invert(93%) hue-rotate(180deg)" class="excalidraw-svg">
  <!-- svg-source:excalidraw -->
  
  <defs>
    <style class="style-fonts">
      
    </style>
    
  </defs>
  <rect x="0" y="0" width="511.028387353377" height="465.33784944029145" fill="#ffffff"></rect><g stroke-linecap="round"><g transform="translate(247.62042446962238 248) rotate(0 -1 -119)"><path d="M0 0 C-0.73 -87.44, -1.47 -174.89, -2 -238 M0 0 C-0.8 -94.96, -1.6 -189.92, -2 -238" stroke="#1e1e1e" stroke-width="2" fill="none"></path></g><g transform="translate(247.62042446962238 248) rotate(0 -1 -119)"><path d="M6.75 -214.58 C3.53 -223.18, 0.32 -231.79, -2 -238 M6.75 -214.58 C3.26 -223.92, -0.23 -233.27, -2 -238" stroke="#1e1e1e" stroke-width="2" fill="none"></path></g><g transform="translate(247.62042446962238 248) rotate(0 -1 -119)"><path d="M-10.35 -214.44 C-7.28 -223.09, -4.22 -231.75, -2 -238 M-10.35 -214.44 C-7.02 -223.84, -3.69 -233.24, -2 -238" stroke="#1e1e1e" stroke-width="2" fill="none"></path></g></g><mask></mask><g stroke-linecap="round"><g transform="translate(247.78180663343903 247.8414023968458) rotate(0 1.8557464554067167 103.74822352172282)"><path d="M0 0 C1.48 82.58, 2.95 165.16, 3.71 207.5 M0 0 C1.06 58.99, 2.11 117.99, 3.71 207.5" stroke="#1e1e1e" stroke-width="2" fill="none"></path></g><g transform="translate(247.78180663343903 247.8414023968458) rotate(0 1.8557464554067167 103.74822352172282)"><path d="M-5.26 184.16 C-1.69 193.45, 1.88 202.74, 3.71 207.5 M-5.26 184.16 C-2.71 190.8, -0.16 197.43, 3.71 207.5" stroke="#1e1e1e" stroke-width="2" fill="none"></path></g><g transform="translate(247.78180663343903 247.8414023968458) rotate(0 1.8557464554067167 103.74822352172282)"><path d="M11.84 183.85 C8.61 193.26, 5.37 202.67, 3.71 207.5 M11.84 183.85 C9.53 190.58, 7.22 197.3, 3.71 207.5" stroke="#1e1e1e" stroke-width="2" fill="none"></path></g></g><mask></mask><g stroke-linecap="round"><g transform="translate(246.8386605614213 230.74021215614647) rotate(0 127.09486339597785 -2.4625678878697954)"><path d="M0 0 C89.31 -1.73, 178.63 -3.46, 254.19 -4.93 M0 0 C93.92 -1.82, 187.84 -3.64, 254.19 -4.93" stroke="#1e1e1e" stroke-width="2" fill="none"></path></g><g transform="translate(246.8386605614213 230.74021215614647) rotate(0 127.09486339597785 -2.4625678878697954)"><path d="M230.87 4.08 C239.06 0.92, 247.26 -2.25, 254.19 -4.93 M230.87 4.08 C239.48 0.75, 248.1 -2.58, 254.19 -4.93" stroke="#1e1e1e" stroke-width="2" fill="none"></path></g><g transform="translate(246.8386605614213 230.74021215614647) rotate(0 127.09486339597785 -2.4625678878697954)"><path d="M230.54 -13.02 C238.85 -10.18, 247.16 -7.33, 254.19 -4.93 M230.54 -13.02 C239.28 -10.03, 248.02 -7.04, 254.19 -4.93" stroke="#1e1e1e" stroke-width="2" fill="none"></path></g></g><mask></mask><g stroke-linecap="round"><g transform="translate(247.00110277156838 230.74021215614647) rotate(0 -118.50055138578419 2.3530284804000416)"><path d="M0 0 C-74.15 1.47, -148.3 2.94, -237 4.71 M0 0 C-75.46 1.5, -150.91 3, -237 4.71" stroke="#1e1e1e" stroke-width="2" fill="none"></path></g><g transform="translate(247.00110277156838 230.74021215614647) rotate(0 -118.50055138578419 2.3530284804000416)"><path d="M-213.68 -4.31 C-220.98 -1.49, -228.27 1.33, -237 4.71 M-213.68 -4.31 C-221.11 -1.44, -228.53 1.43, -237 4.71" stroke="#1e1e1e" stroke-width="2" fill="none"></path></g><g transform="translate(247.00110277156838 230.74021215614647) rotate(0 -118.50055138578419 2.3530284804000416)"><path d="M-213.34 12.79 C-220.75 10.26, -228.15 7.73, -237 4.71 M-213.34 12.79 C-220.88 10.22, -228.41 7.64, -237 4.71" stroke="#1e1e1e" stroke-width="2" fill="none"></path></g></g><mask></mask><g stroke-linecap="round" transform="translate(199.26012886725036 181.67245158881022) rotate(0 48.196142090757164 49.90220021786364)"><path d="M96.39 49.9 C96.39 52.07, 96.25 54.26, 95.98 56.42 C95.71 58.57, 95.29 60.72, 94.75 62.82 C94.21 64.92, 93.53 66.99, 92.72 69 C91.92 71, 90.98 72.97, 89.94 74.85 C88.89 76.73, 87.71 78.56, 86.43 80.28 C85.16 82, 83.76 83.65, 82.28 85.19 C80.79 86.72, 79.2 88.17, 77.54 89.49 C75.87 90.81, 74.11 92.03, 72.29 93.12 C70.48 94.2, 68.58 95.17, 66.64 96.01 C64.7 96.84, 62.7 97.54, 60.67 98.1 C58.64 98.67, 56.57 99.09, 54.49 99.38 C52.41 99.66, 50.29 99.8, 48.2 99.8 C46.1 99.8, 43.98 99.66, 41.91 99.38 C39.83 99.09, 37.75 98.67, 35.72 98.1 C33.7 97.54, 31.69 96.84, 29.75 96.01 C27.81 95.17, 25.91 94.2, 24.1 93.12 C22.28 92.03, 20.52 90.81, 18.86 89.49 C17.19 88.17, 15.6 86.72, 14.12 85.19 C12.63 83.65, 11.24 82, 9.96 80.28 C8.68 78.56, 7.51 76.73, 6.46 74.85 C5.41 72.97, 4.47 71, 3.67 69 C2.87 66.99, 2.18 64.92, 1.64 62.82 C1.1 60.72, 0.69 58.57, 0.41 56.42 C0.14 54.26, 0 52.07, 0 49.9 C0 47.73, 0.14 45.54, 0.41 43.39 C0.69 41.24, 1.1 39.08, 1.64 36.99 C2.18 34.89, 2.87 32.81, 3.67 30.81 C4.47 28.8, 5.41 26.83, 6.46 24.95 C7.51 23.07, 8.68 21.25, 9.96 19.52 C11.24 17.8, 12.63 16.15, 14.12 14.62 C15.6 13.08, 17.19 11.63, 18.86 10.31 C20.52 8.99, 22.28 7.77, 24.1 6.69 C25.91 5.6, 27.81 4.63, 29.75 3.8 C31.69 2.97, 33.7 2.26, 35.72 1.7 C37.75 1.14, 39.83 0.71, 41.91 0.43 C43.98 0.14, 46.1 0, 48.2 0 C50.29 0, 52.41 0.14, 54.49 0.43 C56.57 0.71, 58.64 1.14, 60.67 1.7 C62.7 2.26, 64.7 2.97, 66.64 3.8 C68.58 4.63, 70.48 5.6, 72.29 6.69 C74.11 7.77, 75.87 8.99, 77.54 10.31 C79.2 11.63, 80.79 13.08, 82.28 14.62 C83.76 16.15, 85.16 17.8, 86.43 19.52 C87.71 21.25, 88.89 23.07, 89.94 24.95 C90.98 26.83, 91.92 28.8, 92.72 30.81 C93.53 32.81, 94.21 34.89, 94.75 36.99 C95.29 39.08, 95.71 41.24, 95.98 43.39 C96.25 45.54, 96.32 48.82, 96.39 49.9 C96.46 50.99, 96.46 48.82, 96.39 49.9" stroke="#1e1e1e" stroke-width="2" fill="none"></path></g><g stroke-linecap="round" transform="translate(173.24274242887705 155.65506515043688) rotate(0 75.91958665623694 79.33170291044986)"><path d="M151.84 79.33 C151.84 82.1, 151.7 84.88, 151.42 87.62 C151.15 90.37, 150.73 93.12, 150.18 95.83 C149.63 98.53, 148.94 101.22, 148.12 103.85 C147.31 106.48, 146.35 109.07, 145.28 111.6 C144.2 114.12, 142.99 116.6, 141.67 119 C140.35 121.39, 138.89 123.73, 137.34 125.96 C135.78 128.2, 134.11 130.36, 132.34 132.41 C130.57 134.47, 128.69 136.44, 126.72 138.29 C124.75 140.14, 122.68 141.89, 120.54 143.51 C118.4 145.14, 116.17 146.65, 113.88 148.03 C111.59 149.42, 109.22 150.68, 106.8 151.8 C104.38 152.93, 101.9 153.93, 99.38 154.78 C96.86 155.63, 94.29 156.36, 91.7 156.93 C89.12 157.5, 86.49 157.94, 83.86 158.23 C81.22 158.52, 78.56 158.66, 75.92 158.66 C73.27 158.66, 70.61 158.52, 67.98 158.23 C65.35 157.94, 62.72 157.5, 60.14 156.93 C57.55 156.36, 54.97 155.63, 52.46 154.78 C49.94 153.93, 47.46 152.93, 45.04 151.8 C42.62 150.68, 40.25 149.42, 37.96 148.03 C35.67 146.65, 33.44 145.14, 31.3 143.51 C29.16 141.89, 27.09 140.14, 25.12 138.29 C23.15 136.44, 21.27 134.47, 19.5 132.41 C17.73 130.36, 16.05 128.2, 14.5 125.96 C12.94 123.73, 11.49 121.39, 10.17 119 C8.85 116.6, 7.64 114.12, 6.56 111.6 C5.49 109.07, 4.53 106.48, 3.72 103.85 C2.9 101.22, 2.21 98.53, 1.66 95.83 C1.11 93.12, 0.69 90.37, 0.42 87.62 C0.14 84.88, 0 82.1, 0 79.33 C0 76.57, 0.14 73.79, 0.42 71.04 C0.69 68.29, 1.11 65.54, 1.66 62.84 C2.21 60.13, 2.9 57.45, 3.72 54.82 C4.53 52.19, 5.49 49.59, 6.56 47.06 C7.64 44.54, 8.85 42.06, 10.17 39.67 C11.49 37.27, 12.94 34.94, 14.5 32.7 C16.05 30.47, 17.73 28.3, 19.5 26.25 C21.27 24.19, 23.15 22.23, 25.12 20.38 C27.09 18.53, 29.16 16.78, 31.3 15.15 C33.44 13.53, 35.67 12.01, 37.96 10.63 C40.25 9.25, 42.62 7.98, 45.04 6.86 C47.46 5.73, 49.94 4.74, 52.46 3.88 C54.97 3.03, 57.55 2.31, 60.14 1.73 C62.72 1.16, 65.35 0.72, 67.98 0.43 C70.61 0.15, 73.27 0, 75.92 0 C78.56 0, 81.22 0.15, 83.86 0.43 C86.49 0.72, 89.12 1.16, 91.7 1.73 C94.29 2.31, 96.86 3.03, 99.38 3.88 C101.9 4.74, 104.38 5.73, 106.8 6.86 C109.22 7.98, 111.59 9.25, 113.88 10.63 C116.17 12.01, 118.4 13.53, 120.54 15.15 C122.68 16.78, 124.75 18.53, 126.72 20.38 C128.69 22.23, 130.57 24.19, 132.34 26.25 C134.11 28.3, 135.78 30.47, 137.34 32.7 C138.89 34.94, 140.35 37.27, 141.67 39.67 C142.99 42.06, 144.2 44.54, 145.28 47.06 C146.35 49.59, 147.31 52.19, 148.12 54.82 C148.94 57.45, 149.63 60.13, 150.18 62.84 C150.73 65.54, 151.15 68.29, 151.42 71.04 C151.7 73.79, 151.77 77.95, 151.84 79.33 C151.91 80.71, 151.91 77.95, 151.84 79.33" stroke="#1e1e1e" stroke-width="2" fill="none"></path></g><g stroke-linecap="round" transform="translate(137.84203629141822 119.40132994942489) rotate(0 109.61423466658931 115.15892357968528)"><path d="M219.23 115.16 C219.23 118.7, 219.07 122.26, 218.76 125.78 C218.45 129.31, 217.98 132.84, 217.36 136.32 C216.74 139.8, 215.97 143.27, 215.04 146.67 C214.12 150.08, 213.04 153.46, 211.83 156.76 C210.61 160.06, 209.24 163.32, 207.74 166.49 C206.23 169.66, 204.58 172.77, 202.81 175.78 C201.04 178.79, 199.12 181.73, 197.09 184.56 C195.06 187.38, 192.89 190.12, 190.62 192.74 C188.35 195.36, 185.95 197.88, 183.46 200.26 C180.97 202.65, 178.36 204.92, 175.67 207.06 C172.98 209.19, 170.19 211.2, 167.32 213.07 C164.45 214.93, 161.49 216.67, 158.47 218.24 C155.46 219.82, 152.36 221.26, 149.21 222.54 C146.07 223.82, 142.85 224.95, 139.61 225.92 C136.37 226.89, 133.07 227.71, 129.76 228.36 C126.44 229.01, 123.09 229.5, 119.73 229.83 C116.37 230.15, 112.99 230.32, 109.61 230.32 C106.24 230.32, 102.86 230.15, 99.5 229.83 C96.14 229.5, 92.79 229.01, 89.47 228.36 C86.16 227.71, 82.86 226.89, 79.62 225.92 C76.37 224.95, 73.16 223.82, 70.02 222.54 C66.87 221.26, 63.77 219.82, 60.75 218.24 C57.74 216.67, 54.78 214.93, 51.91 213.07 C49.04 211.2, 46.25 209.19, 43.56 207.06 C40.87 204.92, 38.26 202.65, 35.77 200.26 C33.28 197.88, 30.88 195.36, 28.61 192.74 C26.34 190.12, 24.17 187.38, 22.14 184.56 C20.11 181.73, 18.19 178.79, 16.42 175.78 C14.64 172.77, 12.99 169.66, 11.49 166.49 C9.99 163.32, 8.62 160.06, 7.4 156.76 C6.18 153.46, 5.11 150.08, 4.18 146.67 C3.26 143.27, 2.49 139.8, 1.87 136.32 C1.25 132.84, 0.78 129.31, 0.47 125.78 C0.16 122.26, 0 118.7, 0 115.16 C0 111.62, 0.16 108.06, 0.47 104.53 C0.78 101.01, 1.25 97.48, 1.87 94 C2.49 90.52, 3.26 87.05, 4.18 83.64 C5.11 80.24, 6.18 76.86, 7.4 73.56 C8.62 70.26, 9.99 67, 11.49 63.83 C12.99 60.66, 14.64 57.55, 16.42 54.54 C18.19 51.52, 20.11 48.59, 22.14 45.76 C24.17 42.93, 26.34 40.19, 28.61 37.58 C30.88 34.96, 33.28 32.44, 35.77 30.06 C38.26 27.67, 40.87 25.39, 43.56 23.26 C46.25 21.13, 49.04 19.11, 51.91 17.25 C54.78 15.38, 57.74 13.65, 60.75 12.07 C63.77 10.49, 66.87 9.06, 70.02 7.78 C73.16 6.5, 76.37 5.37, 79.62 4.4 C82.86 3.43, 86.16 2.61, 89.47 1.96 C92.79 1.31, 96.14 0.82, 99.5 0.49 C102.86 0.16, 106.24 0, 109.61 0 C112.99 0, 116.37 0.16, 119.73 0.49 C123.09 0.82, 126.44 1.31, 129.76 1.96 C133.07 2.61, 136.37 3.43, 139.61 4.4 C142.85 5.37, 146.07 6.5, 149.21 7.78 C152.36 9.06, 155.46 10.49, 158.47 12.07 C161.49 13.65, 164.45 15.38, 167.32 17.25 C170.19 19.11, 172.98 21.13, 175.67 23.26 C178.36 25.39, 180.97 27.67, 183.46 30.06 C185.95 32.44, 188.35 34.96, 190.62 37.58 C192.89 40.19, 195.06 42.93, 197.09 45.76 C199.12 48.59, 201.04 51.52, 202.81 54.54 C204.58 57.55, 206.23 60.66, 207.74 63.83 C209.24 67, 210.61 70.26, 211.83 73.56 C213.04 76.86, 214.12 80.24, 215.04 83.64 C215.97 87.05, 216.74 90.52, 217.36 94 C217.98 97.48, 218.45 101.01, 218.76 104.53 C219.07 108.06, 219.15 113.39, 219.23 115.16 C219.31 116.93, 219.31 113.39, 219.23 115.16" stroke="#1e1e1e" stroke-width="2" fill="none"></path></g><g stroke-linecap="round" transform="translate(109.53618364561643 88.12391704695034) rotate(0 137.69895861928444 146.30743559994713)"><path d="M275.4 146.31 C275.4 150.13, 275.26 153.97, 274.97 157.79 C274.69 161.6, 274.27 165.42, 273.7 169.19 C273.14 172.97, 272.43 176.74, 271.59 180.46 C270.75 184.18, 269.77 187.88, 268.66 191.52 C267.55 195.16, 266.29 198.76, 264.92 202.3 C263.54 205.83, 262.02 209.32, 260.39 212.73 C258.75 216.14, 256.99 219.49, 255.11 222.75 C253.22 226.02, 251.22 229.21, 249.1 232.3 C246.98 235.4, 244.74 238.42, 242.41 241.33 C240.07 244.24, 237.61 247.06, 235.07 249.76 C232.52 252.47, 229.87 255.08, 227.13 257.56 C224.39 260.05, 221.55 262.42, 218.64 264.67 C215.72 266.92, 212.72 269.06, 209.65 271.06 C206.58 273.05, 203.42 274.93, 200.21 276.67 C197 278.41, 193.72 280.01, 190.39 281.48 C187.07 282.94, 183.68 284.27, 180.25 285.45 C176.83 286.64, 173.35 287.68, 169.84 288.57 C166.34 289.47, 162.8 290.22, 159.24 290.81 C155.68 291.41, 152.09 291.86, 148.5 292.16 C144.91 292.46, 141.3 292.61, 137.7 292.61 C134.1 292.61, 130.49 292.46, 126.9 292.16 C123.31 291.86, 119.72 291.41, 116.16 290.81 C112.6 290.22, 109.06 289.47, 105.55 288.57 C102.05 287.68, 98.57 286.64, 95.15 285.45 C91.72 284.27, 88.33 282.94, 85 281.48 C81.68 280.01, 78.39 278.41, 75.18 276.67 C71.98 274.93, 68.82 273.05, 65.75 271.06 C62.68 269.06, 59.68 266.92, 56.76 264.67 C53.85 262.42, 51.01 260.05, 48.27 257.56 C45.53 255.08, 42.88 252.47, 40.33 249.76 C37.78 247.06, 35.33 244.24, 32.99 241.33 C30.65 238.42, 28.41 235.4, 26.3 232.3 C24.18 229.21, 22.17 226.02, 20.29 222.75 C18.41 219.49, 16.64 216.14, 15.01 212.73 C13.37 209.32, 11.86 205.83, 10.48 202.3 C9.1 198.76, 7.85 195.16, 6.74 191.52 C5.63 187.88, 4.65 184.18, 3.8 180.46 C2.96 176.74, 2.26 172.97, 1.7 169.19 C1.13 165.42, 0.71 161.6, 0.42 157.79 C0.14 153.97, 0 150.13, 0 146.31 C0 142.48, 0.14 138.64, 0.42 134.83 C0.71 131.01, 1.13 127.2, 1.7 123.42 C2.26 119.64, 2.96 115.87, 3.8 112.15 C4.65 108.43, 5.63 104.74, 6.74 101.1 C7.85 97.46, 9.1 93.85, 10.48 90.32 C11.86 86.78, 13.37 83.29, 15.01 79.89 C16.64 76.48, 18.41 73.12, 20.29 69.86 C22.17 66.6, 24.18 63.41, 26.3 60.31 C28.41 57.21, 30.65 54.2, 32.99 51.29 C35.33 48.38, 37.78 45.56, 40.33 42.85 C42.88 40.15, 45.53 37.54, 48.27 35.05 C51.01 32.57, 53.85 30.19, 56.76 27.94 C59.68 25.69, 62.68 23.56, 65.75 21.56 C68.82 19.56, 71.98 17.68, 75.18 15.95 C78.39 14.21, 81.68 12.6, 85 11.14 C88.33 9.67, 91.72 8.34, 95.15 7.16 C98.57 5.98, 102.05 4.94, 105.55 4.04 C109.06 3.15, 112.6 2.4, 116.16 1.8 C119.72 1.2, 123.31 0.75, 126.9 0.45 C130.49 0.15, 134.1 0, 137.7 0 C141.3 0, 144.91 0.15, 148.5 0.45 C152.09 0.75, 155.68 1.2, 159.24 1.8 C162.8 2.4, 166.34 3.15, 169.84 4.04 C173.35 4.94, 176.83 5.98, 180.25 7.16 C183.68 8.34, 187.07 9.67, 190.39 11.14 C193.72 12.6, 197 14.21, 200.21 15.95 C203.42 17.68, 206.58 19.56, 209.65 21.56 C212.72 23.56, 215.72 25.69, 218.64 27.94 C221.55 30.19, 224.39 32.57, 227.13 35.05 C229.87 37.54, 232.52 40.15, 235.07 42.85 C237.61 45.56, 240.07 48.38, 242.41 51.29 C244.74 54.2, 246.98 57.21, 249.1 60.31 C251.22 63.41, 253.22 66.6, 255.11 69.86 C256.99 73.12, 258.75 76.48, 260.39 79.89 C262.02 83.29, 263.54 86.78, 264.92 90.32 C266.29 93.85, 267.55 97.46, 268.66 101.1 C269.77 104.74, 270.75 108.43, 271.59 112.15 C272.43 115.87, 273.14 119.64, 273.7 123.42 C274.27 127.2, 274.69 131.01, 274.97 134.83 C275.26 138.64, 275.4 142.48, 275.4 146.31" stroke="#1e1e1e" stroke-width="2" fill="none"></path></g><g stroke-linecap="round"><g transform="translate(112.33859064666046 381.65244514339645) rotate(0 135.72743789418305 -150.10178077272167)"><path d="M0 0 C45.24 -50.03, 226.21 -250.17, 271.45 -300.2 M0 0 C45.24 -50.03, 226.21 -250.17, 271.45 -300.2" stroke="#1e1e1e" stroke-width="2" fill="none"></path></g></g><mask></mask><g stroke-linecap="round"><g transform="translate(99.39556948059504 79.73294206787784) rotate(0 149.64034268939702 153.9777439267708)"><path d="M0 0 C24.43 25.45, 96.72 101.35, 146.6 152.68 C196.48 204, 273.83 282.08, 299.28 307.96 M0 0 C24.43 25.45, 96.72 101.35, 146.6 152.68 C196.48 204, 273.83 282.08, 299.28 307.96" stroke="#1e1e1e" stroke-width="2" fill="none"></path></g></g><mask></mask><g stroke-linecap="round"><g transform="translate(166.65850949550676 424.150298274947) rotate(0 80.64244217953546 -190.87335240403567)"><path d="M0 0 C26.88 -63.62, 134.4 -318.12, 161.28 -381.75 M0 0 C26.88 -63.62, 134.4 -318.12, 161.28 -381.75" stroke="#1e1e1e" stroke-width="2" fill="none"></path></g></g><mask></mask><g stroke-linecap="round"><g transform="translate(170.12378456848984 43.063870679172254) rotate(0 77.22190122137792 191.69201362012637)"><path d="M0 0 C25.74 63.9, 128.7 319.49, 154.44 383.38 M0 0 C25.74 63.9, 128.7 319.49, 154.44 383.38" stroke="#1e1e1e" stroke-width="2" fill="none"></path></g></g><mask></mask><g stroke-linecap="round"><g transform="translate(55.65367216974124 326.5136728094065) rotate(0 195.28216003966733 -94.86081939989487)"><path d="M0 0 C65.09 -31.62, 325.47 -158.1, 390.56 -189.72 M0 0 C65.09 -31.62, 325.47 -158.1, 390.56 -189.72" stroke="#1e1e1e" stroke-width="2" fill="none"></path></g></g><mask></mask><g stroke-linecap="round"><g transform="translate(19.313953947916332 136.6386451003714) rotate(0 228.94022479749697 95.8460068100632)"><path d="M0 0 C76.31 31.95, 381.57 159.74, 457.88 191.69 M0 0 C76.31 31.95, 381.57 159.74, 457.88 191.69" stroke="#1e1e1e" stroke-width="2" fill="none"></path></g></g><mask></mask></svg>