<svg version="1.1" xmlns="http://www.w3.org/2000/svg" viewBox="0 0 740 391" width="740" height="391" filter="invert(93%) hue-rotate(180deg)" class="excalidraw-svg">
  <!-- svg-source:excalidraw -->
  
  <defs>
    <style class="style-fonts">
      
    </style>
    
  </defs>
  <rect x="0" y="0" width="740" height="391" fill="#ffffff"></rect><g stroke-linecap="round" transform="translate(10 10) rotate(0 360 185.5)"><path d="M32 0 C269.36 -2.67, 507.02 -2.66, 688 0 M32 0 C289.6 -0.01, 546.8 -0.09, 688 0 M688 0 C710.46 0.09, 720.04 12.62, 720 32 M688 0 C708.64 1.17, 722.15 12.86, 720 32 M720 32 C718.52 137.77, 717.8 239.27, 720 339 M720 32 C720.95 111.53, 720.91 189.72, 720 339 M720 339 C721.55 361.6, 709.84 369.72, 688 371 M720 339 C721.96 359.8, 708.9 370.16, 688 371 M688 371 C442.08 370.58, 197.51 370.3, 32 371 M688 371 C434.03 371.05, 180.86 371.13, 32 371 M32 371 C9.38 369.87, -0.6 360.84, 0 339 M32 371 C12.35 370.13, -0.11 360.15, 0 339 M0 339 C0.44 268.81, -0.74 201.66, 0 32 M0 339 C-1.55 270.25, -1.62 200.39, 0 32 M0 32 C-1 11.19, 12.44 -0.79, 32 0 M0 32 C0.02 10.34, 10.53 0.4, 32 0" stroke="#1e1e1e" stroke-width="2" fill="none"></path></g><g stroke-linecap="round" transform="translate(216.92078520135726 99.42959622981729) rotate(0 151.23170703383155 90.52788047574907)"><path d="M0 0 C91.25 -1.03, 181.76 -0.11, 302.46 0 M0 0 C82.43 -0.83, 163.49 -1.48, 302.46 0 M302.46 0 C302.62 48.18, 304.08 101.11, 302.46 181.06 M302.46 0 C304.07 59.4, 302.17 116.96, 302.46 181.06 M302.46 181.06 C220.58 181.32, 137.75 183.62, 0 181.06 M302.46 181.06 C213.68 183.06, 123.61 183.25, 0 181.06 M0 181.06 C-2.29 122.6, -2.47 60.94, 0 0 M0 181.06 C-1.09 129.11, -1.04 75.51, 0 0" stroke="#1e1e1e" stroke-width="2" fill="none"></path></g><g stroke-linecap="round"><g transform="translate(312.99118897153994 318.4912312002888) rotate(0 109.79474716592307 -133.81234810846877)"><path d="M0 0 C82.77 -100.27, 165.03 -199.5, 219.59 -267.62" stroke="#1e1e1e" stroke-width="2.5" fill="none" stroke-dasharray="8 10"></path></g></g><mask></mask><g stroke-linecap="round"><g transform="translate(258.62167474995306 46.64366009235427) rotate(0 151.7595663952062 116.39298918310595)"><path d="M0 0 C114.27 88.52, 228.98 175.85, 303.52 232.79" stroke="#1e1e1e" stroke-width="2.5" fill="none" stroke-dasharray="8 10"></path></g></g><mask></mask><g stroke-linecap="round" transform="translate(396.8972022365299 206.4995130257096) rotate(0 74.95602931519753 68.35778729801461)"><path d="M149.91 68.36 C149.91 70.91, 149.75 73.48, 149.44 76.01 C149.13 78.55, 148.66 81.08, 148.03 83.57 C147.41 86.06, 146.63 88.53, 145.71 90.93 C144.78 93.34, 143.7 95.72, 142.49 98.02 C141.28 100.32, 139.91 102.57, 138.42 104.73 C136.93 106.89, 135.3 108.98, 133.56 110.98 C131.81 112.97, 129.94 114.89, 127.96 116.69 C125.98 118.5, 123.88 120.21, 121.69 121.8 C119.5 123.39, 117.2 124.88, 114.84 126.24 C112.47 127.6, 110 128.84, 107.48 129.95 C104.96 131.05, 102.35 132.04, 99.71 132.88 C97.07 133.72, 94.36 134.43, 91.64 135 C88.91 135.57, 86.13 136, 83.35 136.29 C80.57 136.57, 77.75 136.72, 74.96 136.72 C72.16 136.72, 69.34 136.57, 66.56 136.29 C63.78 136, 61 135.57, 58.28 135 C55.55 134.43, 52.84 133.72, 50.2 132.88 C47.56 132.04, 44.95 131.05, 42.43 129.95 C39.91 128.84, 37.45 127.6, 35.08 126.24 C32.71 124.88, 30.41 123.39, 28.22 121.8 C26.03 120.21, 23.93 118.5, 21.95 116.69 C19.98 114.89, 18.1 112.97, 16.35 110.98 C14.61 108.98, 12.98 106.89, 11.49 104.73 C10 102.57, 8.64 100.32, 7.42 98.02 C6.21 95.72, 5.13 93.34, 4.21 90.93 C3.28 88.53, 2.5 86.06, 1.88 83.57 C1.26 81.08, 0.78 78.55, 0.47 76.01 C0.16 73.48, 0 70.91, 0 68.36 C0 65.81, 0.16 63.24, 0.47 60.7 C0.78 58.17, 1.26 55.63, 1.88 53.15 C2.5 50.66, 3.28 48.19, 4.21 45.78 C5.13 43.37, 6.21 41, 7.42 38.7 C8.64 36.4, 10 34.15, 11.49 31.99 C12.98 29.83, 14.61 27.73, 16.35 25.74 C18.1 23.74, 19.98 21.83, 21.95 20.02 C23.93 18.22, 26.03 16.5, 28.22 14.91 C30.41 13.32, 32.71 11.83, 35.08 10.48 C37.45 9.12, 39.91 7.88, 42.43 6.77 C44.95 5.66, 47.56 4.68, 50.2 3.84 C52.84 2.99, 55.55 2.28, 58.28 1.71 C61 1.15, 63.78 0.72, 66.56 0.43 C69.34 0.14, 72.16 0, 74.96 0 C77.75 0, 80.57 0.14, 83.35 0.43 C86.13 0.72, 88.91 1.15, 91.64 1.71 C94.36 2.28, 97.07 2.99, 99.71 3.84 C102.35 4.68, 104.96 5.66, 107.48 6.77 C110 7.88, 112.47 9.12, 114.84 10.48 C117.2 11.83, 119.5 13.32, 121.69 14.91 C123.88 16.5, 125.98 18.22, 127.96 20.02 C129.94 21.83, 131.81 23.74, 133.56 25.74 C135.3 27.73, 136.93 29.83, 138.42 31.99 C139.91 34.15, 141.28 36.4, 142.49 38.7 C143.7 41, 144.78 43.37, 145.71 45.78 C146.63 48.19, 147.41 50.66, 148.03 53.15 C148.66 55.63, 149.13 58.17, 149.44 60.7 C149.75 63.24, 149.83 67.08, 149.91 68.36 C149.99 69.63, 149.99 67.08, 149.91 68.36" stroke="#1e1e1e" stroke-width="2.5" fill="none" stroke-dasharray="8 10"></path></g><g stroke-linecap="round"><g transform="translate(345.718469376767 279.1657087778789) rotate(0 73.90031059244819 -89.8498180807731)"><path d="M0 0 C52.85 -60.71, 100.86 -122.29, 147.8 -179.7 M0 0 C36.47 -46.13, 75.45 -92.38, 147.8 -179.7" stroke="#1e1e1e" stroke-width="2" fill="none"></path></g></g><mask></mask><g stroke-linecap="round"><g transform="translate(326.5018714326186 99.02892467882766) rotate(0 96.30788245136151 73.73980071816138)"><path d="M0 0 C43.07 34.33, 85.75 65.75, 192.62 147.48 M0 0 C51.76 39.62, 102.44 79.13, 192.62 147.48" stroke="#1e1e1e" stroke-width="2" fill="none"></path></g></g><mask></mask><g transform="translate(396.9366275651288 275.1827010165738) rotate(0 0.22421280006959776 -4.932681601531101)" stroke="none"><path fill="#1e1e1e" d="M -1.25,0.16 Q -1.25,0.16 -1.31,-0.16 -1.38,-0.48 -1.47,-1.07 -1.55,-1.65 -1.60,-2.22 -1.64,-2.80 -1.68,-3.37 -1.72,-3.95 -1.75,-4.60 -1.79,-5.24 -1.73,-5.89 -1.68,-6.55 -1.09,-8.86 -0.50,-11.17 -0.26,-11.31 -0.02,-11.45 0.24,-11.51 0.51,-11.57 0.79,-11.53 1.06,-11.50 1.31,-11.38 1.57,-11.26 1.76,-11.06 1.96,-10.87 2.09,-10.62 2.22,-10.38 2.26,-10.10 2.30,-9.83 2.25,-9.56 2.20,-9.28 2.07,-9.04 1.93,-8.80 1.73,-8.61 1.53,-8.42 1.27,-8.31 1.02,-8.19 0.74,-8.17 0.47,-8.14 0.20,-8.21 -0.06,-8.27 -0.30,-8.42 -0.54,-8.56 -0.71,-8.78 -0.89,-8.99 -0.99,-9.25 -1.09,-9.51 -1.10,-9.78 -1.11,-10.06 -1.03,-10.33 -0.95,-10.59 -0.79,-10.82 -0.63,-11.05 -0.41,-11.21 -0.19,-11.38 0.07,-11.46 0.33,-11.55 0.61,-11.54 0.88,-11.54 1.15,-11.45 1.41,-11.36 1.63,-11.18 1.84,-11.01 2.00,-10.78 2.15,-10.55 2.22,-10.28 2.29,-10.01 2.27,-9.74 2.25,-9.46 2.15,-9.20 2.04,-8.95 1.86,-8.74 1.67,-8.53 1.67,-8.53 1.67,-8.53 1.61,-7.08 1.55,-5.63 1.50,-5.06 1.45,-4.50 1.41,-3.87 1.38,-3.24 1.33,-2.66 1.29,-2.08 1.25,-1.45 1.21,-0.82 1.23,-0.49 1.25,-0.16 1.25,-0.01 1.25,0.14 1.22,0.28 1.18,0.43 1.11,0.57 1.04,0.70 0.94,0.82 0.84,0.93 0.72,1.02 0.59,1.11 0.45,1.16 0.31,1.22 0.16,1.24 0.01,1.26 -0.14,1.24 -0.29,1.22 -0.43,1.17 -0.57,1.12 -0.70,1.03 -0.82,0.95 -0.93,0.83 -1.03,0.72 -1.10,0.59 -1.17,0.45 -1.21,0.31 -1.25,0.16 -1.25,0.16 L -1.25,0.16 Z"></path></g><g transform="translate(399.37805583255323 257.3951522110526) rotate(0 1.2954517337354403 -4.18530560129912)" stroke="none"><path fill="#1e1e1e" d="M -1.26,-0.22 Q -1.26,-0.22 -1.21,-0.63 -1.16,-1.03 -1.07,-1.67 -0.99,-2.31 -0.91,-2.89 -0.82,-3.47 -0.64,-4.17 -0.46,-4.87 -0.25,-5.54 -0.04,-6.20 0.70,-7.89 1.45,-9.58 1.68,-9.72 1.90,-9.87 2.16,-9.94 2.42,-10.00 2.69,-9.99 2.96,-9.97 3.20,-9.86 3.45,-9.76 3.65,-9.58 3.85,-9.41 3.99,-9.17 4.12,-8.94 4.18,-8.68 4.23,-8.41 4.20,-8.15 4.16,-7.88 4.05,-7.64 3.93,-7.40 3.74,-7.21 3.55,-7.02 3.31,-6.90 3.07,-6.77 2.81,-6.73 2.54,-6.70 2.28,-6.74 2.02,-6.79 1.78,-6.92 1.55,-7.05 1.37,-7.25 1.18,-7.45 1.08,-7.69 0.97,-7.94 0.94,-8.21 0.92,-8.47 0.98,-8.73 1.04,-8.99 1.19,-9.22 1.33,-9.45 1.54,-9.62 1.74,-9.79 1.99,-9.88 2.24,-9.98 2.51,-9.99 2.78,-10.00 3.04,-9.92 3.30,-9.85 3.51,-9.69 3.73,-9.54 3.89,-9.32 4.05,-9.10 4.13,-8.85 4.21,-8.59 4.21,-8.33 4.20,-8.06 4.11,-7.80 4.02,-7.55 3.86,-7.34 3.69,-7.13 3.69,-7.13 3.69,-7.13 3.31,-5.97 2.92,-4.81 2.69,-4.29 2.46,-3.78 2.28,-3.26 2.10,-2.75 1.95,-2.24 1.79,-1.73 1.62,-1.15 1.44,-0.56 1.35,-0.17 1.26,0.22 1.21,0.37 1.17,0.52 1.09,0.65 1.01,0.78 0.90,0.89 0.79,1.00 0.66,1.08 0.53,1.16 0.38,1.21 0.23,1.26 0.08,1.27 -0.07,1.28 -0.22,1.25 -0.37,1.22 -0.51,1.16 -0.65,1.10 -0.78,1.00 -0.90,0.91 -0.99,0.79 -1.09,0.66 -1.15,0.52 -1.22,0.38 -1.25,0.23 -1.28,0.08 -1.27,-0.07 -1.26,-0.22 -1.26,-0.22 L -1.26,-0.22 Z"></path></g><g transform="translate(406.3535651680518 241.75008127286304) rotate(0 5.3561946683292305 -6.826034135452133)" stroke="none"><path fill="#1e1e1e" d="M -1.02,-0.68 Q -1.02,-0.68 -0.89,-0.90 -0.77,-1.13 -0.37,-1.71 0.02,-2.28 0.21,-2.82 0.40,-3.35 0.72,-3.94 1.03,-4.52 1.27,-5.12 1.50,-5.72 1.76,-6.28 2.02,-6.84 2.25,-7.43 2.48,-8.01 2.82,-8.52 3.17,-9.02 3.54,-9.52 3.92,-10.03 4.33,-10.50 4.74,-10.98 5.21,-11.30 5.67,-11.62 6.13,-12.00 6.59,-12.38 8.11,-13.78 9.64,-15.19 9.92,-15.31 10.19,-15.44 10.49,-15.47 10.80,-15.50 11.09,-15.43 11.39,-15.37 11.65,-15.21 11.90,-15.05 12.10,-14.82 12.29,-14.58 12.40,-14.30 12.51,-14.02 12.53,-13.72 12.54,-13.41 12.46,-13.12 12.38,-12.83 12.20,-12.58 12.03,-12.33 11.79,-12.15 11.55,-11.97 11.26,-11.87 10.97,-11.78 10.67,-11.78 10.36,-11.78 10.08,-11.88 9.79,-11.98 9.55,-12.16 9.31,-12.35 9.14,-12.60 8.97,-12.85 8.89,-13.15 8.81,-13.44 8.83,-13.74 8.85,-14.05 8.97,-14.33 9.08,-14.61 9.28,-14.84 9.48,-15.07 9.74,-15.22 10.00,-15.38 10.30,-15.44 10.59,-15.50 10.89,-15.47 11.20,-15.43 11.47,-15.30 11.74,-15.17 11.96,-14.96 12.18,-14.75 12.32,-14.48 12.46,-14.21 12.51,-13.91 12.56,-13.61 12.50,-13.32 12.45,-13.02 12.31,-12.75 12.16,-12.48 11.94,-12.28 11.72,-12.07 11.72,-12.07 11.72,-12.07 10.60,-11.07 9.48,-10.07 9.00,-9.63 8.52,-9.18 8.06,-8.82 7.60,-8.46 7.17,-8.10 6.73,-7.73 6.38,-7.31 6.04,-6.90 5.68,-6.40 5.32,-5.90 5.12,-5.39 4.92,-4.88 4.59,-4.31 4.27,-3.75 3.87,-3.11 3.46,-2.47 3.15,-2.02 2.84,-1.57 2.52,-1.10 2.20,-0.62 1.77,-0.17 1.34,0.27 1.18,0.47 1.02,0.68 0.92,0.79 0.82,0.90 0.70,0.99 0.58,1.07 0.45,1.13 0.31,1.18 0.16,1.20 0.01,1.22 -0.12,1.21 -0.27,1.19 -0.41,1.14 -0.55,1.09 -0.67,1.01 -0.79,0.93 -0.89,0.82 -0.99,0.71 -1.07,0.58 -1.14,0.45 -1.17,0.31 -1.21,0.16 -1.21,0.01 -1.22,-0.12 -1.18,-0.27 -1.15,-0.41 -1.08,-0.54 -1.02,-0.68 -1.02,-0.68 L -1.02,-0.68 Z"></path></g><g transform="translate(417.51438010484935 227.89871273523028) rotate(0 4.18530560129912 -3.7617925345009944)" stroke="none"><path fill="#1e1e1e" d="M -0.89,-0.93 Q -0.89,-0.93 -0.59,-1.25 -0.29,-1.56 0.13,-2.19 0.55,-2.83 0.94,-3.38 1.34,-3.93 1.64,-4.43 1.95,-4.93 2.31,-5.37 2.67,-5.80 3.23,-6.28 3.79,-6.75 5.74,-7.94 7.68,-9.12 7.96,-9.19 8.23,-9.25 8.51,-9.22 8.80,-9.20 9.05,-9.08 9.31,-8.97 9.52,-8.77 9.72,-8.58 9.86,-8.34 9.99,-8.09 10.04,-7.81 10.09,-7.53 10.05,-7.25 10.01,-6.97 9.88,-6.72 9.75,-6.47 9.55,-6.28 9.34,-6.08 9.09,-5.96 8.84,-5.84 8.56,-5.80 8.28,-5.77 8.00,-5.83 7.72,-5.88 7.48,-6.03 7.24,-6.17 7.05,-6.38 6.87,-6.60 6.76,-6.86 6.65,-7.12 6.63,-7.40 6.61,-7.68 6.69,-7.95 6.76,-8.23 6.91,-8.46 7.07,-8.70 7.29,-8.87 7.51,-9.04 7.78,-9.14 8.05,-9.23 8.33,-9.23 8.61,-9.24 8.88,-9.15 9.15,-9.06 9.37,-8.89 9.60,-8.73 9.76,-8.49 9.92,-8.26 10.00,-7.99 10.08,-7.72 10.07,-7.44 10.06,-7.16 9.95,-6.89 9.85,-6.63 9.67,-6.41 9.49,-6.20 9.25,-6.05 9.01,-5.90 9.01,-5.90 9.01,-5.90 7.61,-5.04 6.21,-4.18 5.59,-3.81 4.97,-3.44 4.54,-3.01 4.11,-2.57 3.73,-2.15 3.34,-1.73 2.95,-1.23 2.55,-0.73 2.05,-0.18 1.55,0.36 1.22,0.64 0.89,0.93 0.76,1.02 0.64,1.12 0.49,1.18 0.35,1.24 0.20,1.26 0.04,1.29 -0.10,1.27 -0.26,1.26 -0.41,1.21 -0.55,1.16 -0.68,1.08 -0.82,0.99 -0.92,0.88 -1.03,0.77 -1.11,0.63 -1.19,0.50 -1.23,0.35 -1.27,0.20 -1.28,0.04 -1.28,-0.10 -1.25,-0.26 -1.22,-0.41 -1.15,-0.55 -1.08,-0.69 -0.99,-0.81 -0.89,-0.93 -0.89,-0.93 L -0.89,-0.93 Z"></path></g><g transform="translate(432.2127747760784 216.7378977984326) rotate(0 4.3596933346865825 -2.2172154673548903)" stroke="none"><path fill="#1e1e1e" d="M -0.43,-1.21 Q -0.43,-1.21 -0.03,-1.37 0.35,-1.53 0.89,-1.81 1.44,-2.10 1.99,-2.41 2.54,-2.72 3.04,-3.09 3.54,-3.45 4.27,-3.83 4.99,-4.20 6.50,-5.09 8.00,-5.97 8.27,-6.04 8.54,-6.10 8.81,-6.08 9.08,-6.06 9.34,-5.95 9.59,-5.84 9.79,-5.66 10.00,-5.48 10.13,-5.24 10.27,-5.00 10.32,-4.73 10.37,-4.46 10.34,-4.19 10.30,-3.92 10.18,-3.67 10.06,-3.42 9.86,-3.23 9.67,-3.04 9.42,-2.91 9.18,-2.79 8.90,-2.75 8.63,-2.72 8.36,-2.77 8.09,-2.82 7.85,-2.95 7.61,-3.09 7.43,-3.29 7.25,-3.50 7.14,-3.75 7.03,-4.00 7.01,-4.28 6.99,-4.55 7.05,-4.82 7.12,-5.08 7.26,-5.31 7.41,-5.54 7.63,-5.72 7.84,-5.89 8.10,-5.98 8.36,-6.08 8.63,-6.09 8.90,-6.09 9.17,-6.01 9.43,-5.93 9.65,-5.77 9.88,-5.61 10.04,-5.39 10.20,-5.17 10.28,-4.91 10.36,-4.64 10.35,-4.37 10.34,-4.09 10.25,-3.84 10.15,-3.58 9.98,-3.37 9.81,-3.15 9.58,-3.00 9.35,-2.86 9.35,-2.86 9.35,-2.86 7.55,-1.89 5.76,-0.93 5.24,-0.71 4.71,-0.49 4.24,-0.24 3.77,0.00 3.05,0.29 2.34,0.58 1.79,0.77 1.24,0.96 0.84,1.08 0.43,1.21 0.28,1.24 0.13,1.27 -0.02,1.27 -0.17,1.27 -0.32,1.23 -0.47,1.19 -0.61,1.11 -0.75,1.04 -0.86,0.93 -0.97,0.83 -1.06,0.70 -1.14,0.57 -1.20,0.42 -1.25,0.28 -1.26,0.12 -1.28,-0.02 -1.26,-0.17 -1.24,-0.33 -1.18,-0.47 -1.12,-0.61 -1.03,-0.74 -0.94,-0.87 -0.82,-0.97 -0.70,-1.07 -0.57,-1.14 -0.43,-1.21 -0.43,-1.21 L -0.43,-1.21 Z"></path></g><g transform="translate(448.85434704791055 209.56308819620557) rotate(0 4.683556268120441 -1.0961514670069121)" stroke="none"><path fill="#1e1e1e" d="M -0.41,-1.23 Q -0.41,-1.23 0.05,-1.41 0.52,-1.58 1.06,-1.74 1.60,-1.91 2.26,-2.15 2.93,-2.39 3.57,-2.57 4.22,-2.75 4.82,-2.91 5.41,-3.07 7.27,-3.45 9.13,-3.84 9.40,-3.83 9.67,-3.82 9.92,-3.72 10.17,-3.62 10.38,-3.45 10.59,-3.28 10.73,-3.05 10.87,-2.82 10.93,-2.55 10.99,-2.29 10.96,-2.02 10.94,-1.75 10.83,-1.51 10.72,-1.26 10.53,-1.06 10.35,-0.87 10.11,-0.74 9.87,-0.61 9.61,-0.56 9.34,-0.52 9.08,-0.56 8.81,-0.60 8.57,-0.72 8.33,-0.85 8.14,-1.04 7.95,-1.23 7.84,-1.48 7.72,-1.72 7.69,-1.99 7.66,-2.26 7.72,-2.52 7.77,-2.79 7.91,-3.02 8.04,-3.25 8.25,-3.43 8.45,-3.60 8.70,-3.71 8.95,-3.81 9.22,-3.83 9.49,-3.84 9.75,-3.77 10.01,-3.70 10.24,-3.55 10.46,-3.40 10.63,-3.19 10.79,-2.98 10.88,-2.72 10.97,-2.47 10.97,-2.20 10.97,-1.93 10.89,-1.67 10.81,-1.42 10.65,-1.20 10.48,-0.98 10.26,-0.83 10.04,-0.68 9.78,-0.60 9.52,-0.53 9.52,-0.53 9.52,-0.53 7.84,-0.20 6.17,0.11 5.63,0.21 5.09,0.31 4.47,0.40 3.85,0.48 3.24,0.62 2.63,0.77 2.00,0.86 1.36,0.95 0.89,1.09 0.41,1.23 0.25,1.27 0.10,1.30 -0.05,1.29 -0.21,1.28 -0.36,1.24 -0.51,1.20 -0.64,1.12 -0.78,1.04 -0.89,0.93 -1.01,0.82 -1.09,0.69 -1.18,0.55 -1.23,0.41 -1.28,0.26 -1.29,0.10 -1.30,-0.05 -1.28,-0.20 -1.25,-0.36 -1.19,-0.50 -1.13,-0.65 -1.03,-0.77 -0.94,-0.90 -0.81,-1.00 -0.69,-1.10 -0.55,-1.17 -0.41,-1.23 -0.41,-1.23 L -0.41,-1.23 Z"></path></g><g transform="translate(466.0169821624662 207.20918014206723) rotate(0 4.914692938083306 -0.19547074185558344)" stroke="none"><path fill="#1e1e1e" d="M -0.23,-1.28 Q -0.23,-1.28 0.19,-1.38 0.62,-1.47 1.22,-1.57 1.83,-1.66 2.44,-1.75 3.06,-1.85 3.63,-1.90 4.19,-1.95 4.78,-1.98 5.38,-2.01 5.99,-2.04 6.60,-2.07 8.20,-1.93 9.80,-1.80 10.07,-1.75 10.34,-1.71 10.58,-1.58 10.82,-1.45 11.01,-1.25 11.20,-1.06 11.32,-0.81 11.43,-0.56 11.46,-0.29 11.49,-0.02 11.43,0.24 11.37,0.51 11.23,0.74 11.09,0.98 10.88,1.16 10.67,1.33 10.42,1.43 10.16,1.53 9.89,1.55 9.62,1.56 9.36,1.49 9.09,1.42 8.87,1.26 8.64,1.11 8.47,0.89 8.31,0.68 8.22,0.42 8.13,0.16 8.13,-0.11 8.13,-0.38 8.22,-0.64 8.31,-0.90 8.47,-1.12 8.64,-1.33 8.87,-1.49 9.09,-1.64 9.36,-1.71 9.62,-1.79 9.89,-1.77 10.17,-1.76 10.42,-1.66 10.67,-1.56 10.88,-1.38 11.09,-1.20 11.23,-0.97 11.37,-0.73 11.43,-0.46 11.49,-0.20 11.46,0.06 11.43,0.34 11.32,0.58 11.20,0.83 11.01,1.03 10.82,1.23 10.58,1.36 10.34,1.49 10.07,1.53 9.80,1.57 9.80,1.57 9.80,1.57 7.84,1.41 5.89,1.25 5.33,1.23 4.76,1.20 4.14,1.17 3.51,1.13 2.93,1.15 2.36,1.17 1.73,1.16 1.11,1.15 0.67,1.21 0.23,1.28 0.08,1.29 -0.07,1.30 -0.23,1.27 -0.38,1.24 -0.52,1.18 -0.67,1.11 -0.79,1.01 -0.91,0.92 -1.01,0.79 -1.11,0.67 -1.17,0.53 -1.24,0.38 -1.27,0.23 -1.30,0.08 -1.29,-0.07 -1.28,-0.23 -1.23,-0.38 -1.18,-0.53 -1.10,-0.66 -1.02,-0.80 -0.91,-0.91 -0.80,-1.02 -0.67,-1.10 -0.53,-1.18 -0.38,-1.23 -0.23,-1.28 -0.23,-1.28 L -0.23,-1.28 Z"></path></g><g transform="translate(484.61462703044054 207.43257527561644) rotate(0 4.551675846065791 0.698109792341377)" stroke="none"><path fill="#1e1e1e" d="M 0,-1.33 Q 0,-1.33 0.48,-1.34 0.96,-1.36 1.78,-1.31 2.61,-1.25 3.44,-1.16 4.28,-1.07 4.95,-1.00 5.62,-0.94 7.94,-0.32 10.27,0.28 10.41,0.50 10.55,0.72 10.62,0.97 10.69,1.22 10.67,1.48 10.65,1.74 10.55,1.98 10.46,2.22 10.29,2.42 10.11,2.62 9.89,2.75 9.67,2.88 9.41,2.93 9.16,2.99 8.90,2.95 8.64,2.92 8.40,2.81 8.17,2.70 7.98,2.52 7.80,2.34 7.68,2.11 7.56,1.88 7.52,1.62 7.48,1.36 7.52,1.10 7.57,0.85 7.69,0.62 7.82,0.39 8.01,0.21 8.20,0.04 8.43,-0.06 8.67,-0.17 8.93,-0.19 9.19,-0.22 9.44,-0.16 9.70,-0.10 9.92,0.03 10.14,0.16 10.31,0.36 10.47,0.56 10.57,0.81 10.66,1.05 10.67,1.31 10.68,1.57 10.61,1.82 10.54,2.07 10.39,2.28 10.24,2.50 10.03,2.65 9.82,2.81 9.58,2.89 9.33,2.97 9.07,2.97 8.81,2.96 8.56,2.88 8.32,2.79 8.11,2.63 7.91,2.47 7.91,2.47 7.91,2.47 6.30,2.29 4.69,2.10 3.97,1.94 3.25,1.78 2.71,1.67 2.18,1.57 1.57,1.46 0.96,1.36 0.48,1.34 0,1.33 -0.15,1.31 -0.31,1.29 -0.46,1.23 -0.61,1.18 -0.75,1.08 -0.88,0.99 -0.99,0.87 -1.09,0.75 -1.17,0.61 -1.24,0.47 -1.28,0.31 -1.32,0.16 -1.32,-0.00 -1.32,-0.16 -1.28,-0.31 -1.24,-0.47 -1.17,-0.61 -1.09,-0.75 -0.99,-0.87 -0.88,-0.99 -0.75,-1.08 -0.61,-1.18 -0.46,-1.23 -0.31,-1.29 -0.15,-1.31 0.00,-1.33 0.00,-1.33 L 0,-1.33 Z"></path></g><g transform="translate(501.48095961340823 211.90047794660128) rotate(0 4.6633734128404 1.9826318102495115)" stroke="none"><path fill="#1e1e1e" d="M 0.37,-1.27 Q 0.37,-1.27 1.03,-1.07 1.68,-0.88 2.51,-0.68 3.34,-0.48 3.97,-0.33 4.59,-0.19 5.19,-0.01 5.79,0.17 6.34,0.36 6.89,0.56 8.50,1.57 10.11,2.59 10.30,2.76 10.49,2.93 10.62,3.15 10.75,3.37 10.80,3.62 10.85,3.87 10.82,4.12 10.79,4.38 10.68,4.61 10.57,4.84 10.39,5.02 10.21,5.20 9.99,5.32 9.76,5.43 9.51,5.47 9.25,5.51 9.00,5.46 8.75,5.42 8.53,5.30 8.31,5.17 8.13,4.99 7.96,4.80 7.86,4.57 7.75,4.33 7.73,4.08 7.70,3.82 7.76,3.58 7.82,3.33 7.96,3.11 8.09,2.89 8.29,2.73 8.48,2.57 8.72,2.48 8.96,2.39 9.22,2.38 9.47,2.37 9.72,2.44 9.96,2.51 10.17,2.66 10.38,2.80 10.53,3.01 10.68,3.21 10.76,3.46 10.84,3.70 10.83,3.96 10.83,4.21 10.74,4.45 10.66,4.69 10.50,4.89 10.35,5.09 10.13,5.23 9.92,5.37 9.67,5.44 9.43,5.50 9.17,5.49 8.92,5.47 8.68,5.37 8.44,5.27 8.45,5.27 8.45,5.27 6.88,4.25 5.31,3.23 4.57,2.92 3.83,2.61 3.21,2.40 2.59,2.19 1.77,1.92 0.94,1.65 0.28,1.46 -0.37,1.27 -0.52,1.21 -0.66,1.14 -0.79,1.05 -0.92,0.95 -1.02,0.83 -1.12,0.70 -1.19,0.56 -1.26,0.41 -1.29,0.26 -1.32,0.10 -1.31,-0.05 -1.31,-0.21 -1.26,-0.37 -1.22,-0.52 -1.14,-0.66 -1.06,-0.80 -0.94,-0.91 -0.83,-1.03 -0.70,-1.11 -0.56,-1.20 -0.41,-1.25 -0.26,-1.30 -0.10,-1.31 0.05,-1.32 0.21,-1.30 0.37,-1.27 0.37,-1.27 L 0.37,-1.27 Z"></path></g><g transform="translate(517.7329555791155 220.33364423808513) rotate(0 0.6701854006477106 0.5026390504857936)" stroke="none"><path fill="#1e1e1e" d="M 0.88,-0.81 Q 0.88,-0.81 1.17,-0.50 1.45,-0.19 1.64,-0.14 1.83,-0.09 1.99,0.01 2.15,0.12 2.27,0.28 2.39,0.44 2.45,0.62 2.51,0.81 2.51,1.00 2.51,1.20 2.45,1.39 2.38,1.57 2.26,1.73 2.14,1.88 1.98,1.99 1.82,2.10 1.63,2.15 1.44,2.20 1.25,2.19 1.05,2.18 0.87,2.10 0.69,2.03 0.54,1.90 0.39,1.78 0.29,1.61 0.19,1.44 0.15,1.25 0.11,1.06 0.13,0.86 0.15,0.67 0.24,0.49 0.32,0.31 0.46,0.17 0.59,0.03 0.76,-0.05 0.94,-0.14 1.13,-0.17 1.32,-0.20 1.52,-0.17 1.71,-0.14 1.88,-0.04 2.05,0.04 2.19,0.18 2.32,0.33 2.40,0.50 2.48,0.68 2.50,0.88 2.52,1.07 2.48,1.26 2.44,1.45 2.34,1.62 2.23,1.79 2.08,1.91 1.93,2.04 1.75,2.11 1.57,2.18 1.38,2.19 1.18,2.20 1.18,2.20 1.18,2.20 0.14,1.51 -0.88,0.81 -0.97,0.69 -1.05,0.58 -1.11,0.44 -1.16,0.31 -1.18,0.16 -1.20,0.02 -1.19,-0.11 -1.17,-0.26 -1.12,-0.40 -1.07,-0.53 -0.99,-0.65 -0.91,-0.78 -0.81,-0.87 -0.70,-0.97 -0.57,-1.04 -0.45,-1.11 -0.31,-1.15 -0.16,-1.19 -0.02,-1.19 0.12,-1.19 0.26,-1.16 0.40,-1.13 0.53,-1.07 0.66,-1.00 0.77,-0.91 0.88,-0.81 0.88,-0.81 L 0.88,-0.81 Z"></path></g></svg>