<svg version="1.1" xmlns="http://www.w3.org/2000/svg" viewBox="0 0 128 119" width="128" height="119" filter="invert(93%) hue-rotate(180deg)" class="excalidraw-svg">
  <!-- svg-source:excalidraw -->
  
  <defs>
    <style class="style-fonts">
      
    </style>
    
  </defs>
  <rect x="0" y="0" width="128" height="119" fill="#ffffff"></rect><g stroke-linecap="round" transform="translate(10 10) rotate(0 54 49.5)"><path d="M108 49.5 C108 51.65, 107.84 53.83, 107.54 55.96 C107.23 58.1, 106.77 60.23, 106.16 62.31 C105.55 64.39, 104.79 66.45, 103.89 68.44 C102.99 70.43, 101.94 72.38, 100.77 74.25 C99.59 76.12, 98.27 77.93, 96.84 79.63 C95.41 81.34, 93.85 82.98, 92.18 84.5 C90.52 86.02, 88.74 87.46, 86.87 88.77 C85.01 90.08, 83.03 91.29, 81 92.37 C78.97 93.45, 76.84 94.41, 74.66 95.23 C72.49 96.06, 70.25 96.76, 67.98 97.31 C65.71 97.87, 63.38 98.3, 61.05 98.58 C58.72 98.86, 56.35 99, 54 99 C51.65 99, 49.28 98.86, 46.95 98.58 C44.62 98.3, 42.29 97.87, 40.02 97.31 C37.75 96.76, 35.51 96.06, 33.34 95.23 C31.16 94.41, 29.03 93.45, 27 92.37 C24.97 91.29, 22.99 90.08, 21.13 88.77 C19.26 87.46, 17.48 86.02, 15.82 84.5 C14.15 82.98, 12.59 81.34, 11.16 79.63 C9.73 77.93, 8.41 76.12, 7.23 74.25 C6.06 72.38, 5.01 70.43, 4.11 68.44 C3.21 66.45, 2.45 64.39, 1.84 62.31 C1.23 60.23, 0.77 58.1, 0.46 55.96 C0.16 53.83, 0 51.65, 0 49.5 C0 47.35, 0.16 45.17, 0.46 43.04 C0.77 40.9, 1.23 38.77, 1.84 36.69 C2.45 34.61, 3.21 32.55, 4.11 30.56 C5.01 28.57, 6.06 26.62, 7.23 24.75 C8.41 22.88, 9.73 21.07, 11.16 19.37 C12.59 17.66, 14.15 16.02, 15.82 14.5 C17.48 12.98, 19.26 11.54, 21.13 10.23 C22.99 8.92, 24.97 7.71, 27 6.63 C29.03 5.55, 31.16 4.59, 33.34 3.77 C35.51 2.94, 37.75 2.24, 40.02 1.69 C42.29 1.13, 44.62 0.7, 46.95 0.42 C49.28 0.14, 51.65 0, 54 0 C56.35 0, 58.72 0.14, 61.05 0.42 C63.38 0.7, 65.71 1.13, 67.98 1.69 C70.25 2.24, 72.49 2.94, 74.66 3.77 C76.84 4.59, 78.97 5.55, 81 6.63 C83.03 7.71, 85.01 8.92, 86.87 10.23 C88.74 11.54, 90.52 12.98, 92.18 14.5 C93.85 16.02, 95.41 17.66, 96.84 19.37 C98.27 21.07, 99.59 22.88, 100.77 24.75 C101.94 26.62, 102.99 28.57, 103.89 30.56 C104.79 32.55, 105.55 34.61, 106.16 36.69 C106.77 38.77, 107.23 40.9, 107.54 43.04 C107.84 45.17, 107.92 48.42, 108 49.5 C108.08 50.58, 108.08 48.42, 108 49.5" stroke="#1e1e1e" stroke-width="2" fill="none"></path></g></svg>