<svg version="1.1" xmlns="http://www.w3.org/2000/svg" viewBox="0 0 335 340" width="335" height="340" filter="invert(93%) hue-rotate(180deg)" class="excalidraw-svg">
  <!-- svg-source:excalidraw -->
  
  <defs>
    <style class="style-fonts">
      
    </style>
    
  </defs>
  <rect x="0" y="0" width="335" height="340" fill="#ffffff"></rect><g stroke-linecap="round"><g transform="translate(10 130) rotate(0 157.5 40)"><path d="M0 0 C20.32 -0.93, 42.8 -1.91, 83 -2 M0 0 C27.56 -0.83, 57.05 -1.46, 83 -2 M83 -2 C93.85 -40.96, 108.31 -77.29, 125 -120 M83 -2 C99 -42.59, 112.03 -83.36, 125 -120 M125 -120 C146.01 -88.15, 163.19 -58.08, 193 -9 M125 -120 C139.26 -96.47, 153.02 -73.07, 193 -9 M193 -9 C230.95 -31.32, 271.85 -51.61, 313 -73 M193 -9 C237.78 -32.98, 282.85 -55.58, 313 -73 M313 -73 C280.05 -17.59, 247.01 38.02, 222 75 M313 -73 C292.63 -38.51, 273.68 -6.04, 222 75 M222 75 C256.76 110.58, 294.69 145.04, 315 163 M222 75 C256.75 106.73, 291.05 141.7, 315 163 M315 163 C273.1 147.18, 234.22 134.57, 138 106 M315 163 C255.19 142.14, 194.84 122.87, 138 106 M138 106 C99.55 142.45, 62.68 176.14, 35 200 M138 106 C101.81 138.81, 67.99 171.16, 35 200 M35 200 C48.77 156.69, 62.02 112.29, 76 70 M35 200 C44.93 168.67, 54.19 138.08, 76 70 M76 70 C51.33 47.48, 28.13 25.54, 0 0 M76 70 C54.31 48.78, 30.53 28.56, 0 0" stroke="#1e1e1e" stroke-width="2" fill="none"></path></g></g><mask></mask></svg>