<svg version="1.1" xmlns="http://www.w3.org/2000/svg" viewBox="0 0 334 313" width="334" height="313" filter="invert(93%) hue-rotate(180deg)" class="excalidraw-svg">
  <!-- svg-source:excalidraw -->
  
  <defs>
    <style class="style-fonts">
      
    </style>
    
  </defs>
  <rect x="0" y="0" width="334" height="313" fill="#ffffff"></rect><g stroke-linecap="round"><g transform="translate(10 214) rotate(0 157 -57.5)"><path d="M0 0 C5.94 -45.44, 8.98 -95.02, 25 -204 M0 0 C7.08 -59.1, 13.87 -118.06, 25 -204 M25 -204 C81.54 -198.34, 138.97 -196.48, 231 -193 M25 -204 C98.84 -200.39, 173.53 -196.74, 231 -193 M231 -193 C255.06 -153.9, 279.88 -112, 314 -58 M231 -193 C253.99 -156.48, 276.69 -120.49, 314 -58 M314 -58 C300.7 -27.05, 282.27 3.64, 239 89 M314 -58 C285.02 -2.5, 257.11 54.18, 239 89 M239 89 C173.02 61.98, 105.11 38.54, 0 0 M239 89 C180.15 68.06, 119.5 46.37, 0 0" stroke="#1e1e1e" stroke-width="2" fill="none"></path></g></g><mask></mask></svg>