<svg version="1.1" xmlns="http://www.w3.org/2000/svg" viewBox="0 0 969.2662377435357 725.4034999056057" width="969.2662377435357" height="725.4034999056057" filter="invert(93%) hue-rotate(180deg)" class="excalidraw-svg">
  <!-- svg-source:excalidraw -->
  
  <defs>
    <style class="style-fonts">
      
    </style>
    
  </defs>
  <rect x="0" y="0" width="969.2662377435357" height="725.4034999056057" fill="#ffffff"></rect><g stroke-linecap="round" transform="translate(10 10.590058318137153) rotate(0 63.5 56.5)"><path d="M28.25 0 C54.49 -1.25, 79.9 -0.59, 98.75 0 M28.25 0 C46.66 -1.23, 64.25 0.46, 98.75 0 M98.75 0 C118.42 -0.19, 126.28 10.14, 127 28.25 M98.75 0 C119.71 0.9, 128.45 7.83, 127 28.25 M127 28.25 C128.69 42.09, 127.97 51.5, 127 84.75 M127 28.25 C126.02 46.31, 125.61 65, 127 84.75 M127 84.75 C128.77 104.44, 119.12 115, 98.75 113 M127 84.75 C126.21 103.65, 115.44 113.36, 98.75 113 M98.75 113 C81.12 112.82, 63.29 114.37, 28.25 113 M98.75 113 C79.61 113.84, 60.84 114.02, 28.25 113 M28.25 113 C9.4 113.68, -0.53 101.75, 0 84.75 M28.25 113 C9.85 111.25, -0.88 105.14, 0 84.75 M0 84.75 C2.33 61.81, 0.35 40.95, 0 28.25 M0 84.75 C1.02 68.03, -0.75 50.7, 0 28.25 M0 28.25 C-0.37 10.26, 8.75 -0.1, 28.25 0 M0 28.25 C-1.8 9.16, 9.63 0.53, 28.25 0" stroke="#1e1e1e" stroke-width="2" fill="none"></path></g><g stroke-linecap="round" transform="translate(146.41533636423412 10) rotate(0 63.5 56.5)"><path d="M28.25 0 C45.78 -1.68, 67.37 1.38, 98.75 0 M28.25 0 C43.82 -1.57, 58.73 -1, 98.75 0 M98.75 0 C116.71 1.29, 125.32 10.09, 127 28.25 M98.75 0 C117.71 0.79, 128.31 8.97, 127 28.25 M127 28.25 C125.89 45.2, 128.58 67.36, 127 84.75 M127 28.25 C126.54 41.22, 127.43 55.78, 127 84.75 M127 84.75 C126.26 102.39, 118.1 112.79, 98.75 113 M127 84.75 C125.43 105.11, 117.61 112.89, 98.75 113 M98.75 113 C71.95 115.05, 48.94 113.97, 28.25 113 M98.75 113 C79.51 113.91, 60.03 113.3, 28.25 113 M28.25 113 C10.86 112.74, -1.47 103.5, 0 84.75 M28.25 113 C9.51 115.15, -0.61 101.43, 0 84.75 M0 84.75 C-0.71 62.28, -0.46 42.43, 0 28.25 M0 84.75 C-0.19 68.49, 0.2 54.1, 0 28.25 M0 28.25 C-1.28 10.48, 8.85 -1.81, 28.25 0 M0 28.25 C0.72 11.25, 11.48 -0.44, 28.25 0" stroke="#1e1e1e" stroke-width="2" fill="none"></path></g><g stroke-linecap="round" transform="translate(279.1769513700642 12.147280617022005) rotate(0 63.5 56.5)"><path d="M28.25 0 C52.01 -0.71, 77.65 0.07, 98.75 0 M28.25 0 C53.44 -1.28, 79.52 0.42, 98.75 0 M98.75 0 C119.38 -0.38, 128.67 9.71, 127 28.25 M98.75 0 C116.29 1.9, 125.47 9.4, 127 28.25 M127 28.25 C127.39 51.2, 128.35 69.35, 127 84.75 M127 28.25 C126.62 45.43, 126.53 60.41, 127 84.75 M127 84.75 C126.16 103.87, 117.72 111.62, 98.75 113 M127 84.75 C127.67 101.92, 117.32 111.11, 98.75 113 M98.75 113 C77.53 111.68, 56.22 113.78, 28.25 113 M98.75 113 C77.32 113.1, 55.34 112.32, 28.25 113 M28.25 113 C7.48 112.08, -1.79 105.56, 0 84.75 M28.25 113 C9.48 115.27, -2.22 104.85, 0 84.75 M0 84.75 C1.01 68.33, 0.28 57.77, 0 28.25 M0 84.75 C-0.93 71.5, -0.14 58.03, 0 28.25 M0 28.25 C2 9.81, 9.07 0.71, 28.25 0 M0 28.25 C0.45 7.26, 10.63 -2, 28.25 0" stroke="#1e1e1e" stroke-width="2" fill="none"></path></g><g stroke-linecap="round" transform="translate(415.59228773429834 11.557222298884852) rotate(0 63.5 56.5)"><path d="M28.25 0 C42.69 -0.04, 60.86 -0.84, 98.75 0 M28.25 0 C53.46 1.43, 78.94 0.45, 98.75 0 M98.75 0 C119.25 0.3, 125.88 11.06, 127 28.25 M98.75 0 C116.06 -0.01, 128.83 9.71, 127 28.25 M127 28.25 C128.36 38.18, 126.87 52.52, 127 84.75 M127 28.25 C125.93 40.07, 126.22 53.02, 127 84.75 M127 84.75 C127.13 102.2, 118.17 111.55, 98.75 113 M127 84.75 C126.74 101.69, 117.36 111.11, 98.75 113 M98.75 113 C81.86 114.1, 68.33 113.78, 28.25 113 M98.75 113 C76.95 112.2, 53.3 112.53, 28.25 113 M28.25 113 C7.63 114.98, 0.06 105.56, 0 84.75 M28.25 113 C7.19 114.27, -1.02 102.32, 0 84.75 M0 84.75 C-0.23 66.39, -1.63 44.46, 0 28.25 M0 84.75 C0.41 63.71, 1.48 44.7, 0 28.25 M0 28.25 C-0.34 10.13, 9.81 -1.87, 28.25 0 M0 28.25 C1.21 7.42, 7.65 1.91, 28.25 0" stroke="#1e1e1e" stroke-width="2" fill="none"></path></g><g stroke-linecap="round" transform="translate(11.187967170940112 128.1634885798261) rotate(0 63.5 56.5)"><path d="M28.25 0 C56.44 1.5, 82.98 -1.41, 98.75 0 M28.25 0 C47.72 0.23, 68.06 -1, 98.75 0 M98.75 0 C116.23 1.15, 125.09 8.49, 127 28.25 M98.75 0 C116.25 -1.39, 127.4 9.05, 127 28.25 M127 28.25 C125.34 43.74, 128.63 56.53, 127 84.75 M127 28.25 C127.73 45.48, 127.91 59.97, 127 84.75 M127 84.75 C126.81 104.65, 118.21 114.08, 98.75 113 M127 84.75 C126.55 102.24, 116.13 112.02, 98.75 113 M98.75 113 C76.33 112.85, 54.12 113.51, 28.25 113 M98.75 113 C77.04 113.95, 54.32 113.49, 28.25 113 M28.25 113 C7.68 112.27, 0.08 105.55, 0 84.75 M28.25 113 C7.73 112.31, -0.83 103.22, 0 84.75 M0 84.75 C1.69 61.21, -1.51 40.07, 0 28.25 M0 84.75 C0.49 70.14, -0.04 56.07, 0 28.25 M0 28.25 C1.33 9.47, 9.99 -0.55, 28.25 0 M0 28.25 C-0.5 11.26, 8.09 1.95, 28.25 0" stroke="#1e1e1e" stroke-width="2" fill="none"></path></g><g stroke-linecap="round" transform="translate(147.60330353517423 127.57343026168896) rotate(0 63.5 56.5)"><path d="M28.25 0 C43.95 -2.25, 60.71 0.71, 98.75 0 M28.25 0 C52.17 -1.1, 74.26 0.25, 98.75 0 M98.75 0 C115.68 -0.93, 125.84 8.21, 127 28.25 M98.75 0 C117.98 -0.37, 125.66 9.65, 127 28.25 M127 28.25 C128.09 40.6, 126.29 52.73, 127 84.75 M127 28.25 C127.58 41.33, 127.05 56.73, 127 84.75 M127 84.75 C127.63 104.66, 117.2 111.83, 98.75 113 M127 84.75 C125.54 102.6, 117.94 112.3, 98.75 113 M98.75 113 C78.54 113.6, 59.01 113.26, 28.25 113 M98.75 113 C77.64 114.11, 55.02 113.29, 28.25 113 M28.25 113 C9.5 114.96, -1.46 102.99, 0 84.75 M28.25 113 C8.59 112.63, 2.19 102.29, 0 84.75 M0 84.75 C-2.22 71.79, -1.19 59.14, 0 28.25 M0 84.75 C-0.29 69.57, 0.35 53.05, 0 28.25 M0 28.25 C0.58 8.86, 8.98 1.61, 28.25 0 M0 28.25 C-1.33 11.37, 9.93 0.38, 28.25 0" stroke="#1e1e1e" stroke-width="2" fill="none"></path></g><g stroke-linecap="round" transform="translate(280.36491854100433 129.72071087871097) rotate(0 63.5 56.5)"><path d="M28.25 0 C52.59 1.74, 78.42 0.36, 98.75 0 M28.25 0 C51.92 1.12, 75.99 0.08, 98.75 0 M98.75 0 C116.43 -1.21, 127.35 9.09, 127 28.25 M98.75 0 C116.25 0.24, 124.74 7.45, 127 28.25 M127 28.25 C127.22 52.03, 126.39 72.98, 127 84.75 M127 28.25 C127.16 50.95, 127.56 73.12, 127 84.75 M127 84.75 C126.61 102.42, 116.32 112.14, 98.75 113 M127 84.75 C127.35 102.88, 117.22 112.79, 98.75 113 M98.75 113 C78.1 113.5, 56.84 114.55, 28.25 113 M98.75 113 C70.2 112.96, 43.44 114.31, 28.25 113 M28.25 113 C7.95 112.4, -0.72 103.26, 0 84.75 M28.25 113 C11.6 111.71, -1.63 105.16, 0 84.75 M0 84.75 C-0.29 71.49, 0.13 58.83, 0 28.25 M0 84.75 C0.65 67.42, 0.27 49.76, 0 28.25 M0 28.25 C-0.44 11.02, 8.26 1.7, 28.25 0 M0 28.25 C0.52 9.79, 10.07 2.1, 28.25 0" stroke="#1e1e1e" stroke-width="2" fill="none"></path></g><g stroke-linecap="round" transform="translate(416.7802549052385 129.13065256057382) rotate(0 63.5 56.5)"><path d="M28.25 0 C43.39 -0.68, 58.18 0.78, 98.75 0 M28.25 0 C42.98 -0.87, 59.04 -1.01, 98.75 0 M98.75 0 C117.93 -0.32, 125.84 9.62, 127 28.25 M98.75 0 C115.33 -1.97, 129.1 11.23, 127 28.25 M127 28.25 C125.88 48.38, 128.78 68.37, 127 84.75 M127 28.25 C127.26 40.67, 126.75 51.43, 127 84.75 M127 84.75 C125.73 102.73, 117.89 112.39, 98.75 113 M127 84.75 C126.64 103.37, 117.53 112.8, 98.75 113 M98.75 113 C75.5 114.43, 53.94 113.74, 28.25 113 M98.75 113 C74.41 113.73, 49.25 112.44, 28.25 113 M28.25 113 C8.7 112.68, 1.9 102.46, 0 84.75 M28.25 113 C7.78 114.58, -1.4 101.48, 0 84.75 M0 84.75 C-0.16 68.99, 0.37 51.05, 0 28.25 M0 84.75 C-0.09 63.65, -0.59 43.92, 0 28.25 M0 28.25 C-1.15 11.12, 9.87 0.33, 28.25 0 M0 28.25 C0.66 11.52, 9.72 -1.62, 28.25 0" stroke="#1e1e1e" stroke-width="2" fill="none"></path></g><g stroke-linecap="round" transform="translate(14.363078843688868 246.4517701498673) rotate(0 63.5 56.5)"><path d="M28.25 0 C53.59 -0.96, 77.23 -0.84, 98.75 0 M28.25 0 C50.25 -0.24, 70.14 -0.18, 98.75 0 M98.75 0 C116.24 0.1, 127.85 9.49, 127 28.25 M98.75 0 C115.63 -0.82, 127.5 7.21, 127 28.25 M127 28.25 C127.25 41.07, 126.3 55.6, 127 84.75 M127 28.25 C126.13 45.05, 127.13 62.2, 127 84.75 M127 84.75 C128.36 102.88, 117.77 112.14, 98.75 113 M127 84.75 C125.43 104.72, 118.75 113.3, 98.75 113 M98.75 113 C71.95 111.61, 46.84 112.59, 28.25 113 M98.75 113 C75.35 113.06, 52.74 113.23, 28.25 113 M28.25 113 C8.5 112.81, 1.18 104.13, 0 84.75 M28.25 113 C10.55 114.15, -1.31 105.29, 0 84.75 M0 84.75 C0.66 73.25, -0.67 60.39, 0 28.25 M0 84.75 C0.32 64.94, 0.84 46.42, 0 28.25 M0 28.25 C-1.01 11.31, 10.58 -1.38, 28.25 0 M0 28.25 C-0.14 11.32, 8.02 0.02, 28.25 0" stroke="#1e1e1e" stroke-width="2" fill="none"></path></g><g stroke-linecap="round" transform="translate(150.778415207923 245.86171183173013) rotate(0 63.5 56.5)"><path d="M28.25 0 C47.26 -0.7, 64.47 2.3, 98.75 0 M28.25 0 C54.53 0.14, 80.58 -0.16, 98.75 0 M98.75 0 C118.43 0.07, 125.3 8.7, 127 28.25 M98.75 0 C118.08 -2.21, 125.36 10.32, 127 28.25 M127 28.25 C126.08 48.55, 127.09 65.19, 127 84.75 M127 28.25 C126.93 40.48, 127.29 53.2, 127 84.75 M127 84.75 C127.18 102.72, 116.22 113.99, 98.75 113 M127 84.75 C128.17 103.88, 118.85 115.08, 98.75 113 M98.75 113 C79.85 112.66, 65.23 113, 28.25 113 M98.75 113 C80.75 113.76, 61.65 113.15, 28.25 113 M28.25 113 C10.6 113.54, 0.99 104.58, 0 84.75 M28.25 113 C8.11 114.7, -2.04 102.63, 0 84.75 M0 84.75 C-1.02 66.66, 0.7 49.45, 0 28.25 M0 84.75 C0.65 64.14, -0.67 44.03, 0 28.25 M0 28.25 C1.16 8.04, 9.3 1.65, 28.25 0 M0 28.25 C-1.4 9.43, 9.55 1.18, 28.25 0" stroke="#1e1e1e" stroke-width="2" fill="none"></path></g><g stroke-linecap="round" transform="translate(283.5400302137531 248.00899244875214) rotate(0 63.5 56.5)"><path d="M28.25 0 C44.92 2.26, 63.16 2.28, 98.75 0 M28.25 0 C50.83 -0.2, 75.17 -0.21, 98.75 0 M98.75 0 C115.89 -0.71, 127.44 7.5, 127 28.25 M98.75 0 C115.94 0.9, 127.75 9.45, 127 28.25 M127 28.25 C126.82 44.25, 125.22 60.2, 127 84.75 M127 28.25 C127.86 42.66, 127.27 57.35, 127 84.75 M127 84.75 C125.64 104.57, 118.6 113.26, 98.75 113 M127 84.75 C128.26 105.66, 116.24 110.96, 98.75 113 M98.75 113 C81.62 113.34, 62.54 112.53, 28.25 113 M98.75 113 C74.71 113.27, 52.17 113.63, 28.25 113 M28.25 113 C10.4 114, -1.14 105.06, 0 84.75 M28.25 113 C7.38 112.05, 0.27 104.08, 0 84.75 M0 84.75 C1.08 66.47, 1.63 48.94, 0 28.25 M0 84.75 C-0.97 71.74, 0.12 56.15, 0 28.25 M0 28.25 C-0.12 11.07, 8.2 0.02, 28.25 0 M0 28.25 C0.13 10.59, 11.04 0.71, 28.25 0" stroke="#1e1e1e" stroke-width="2" fill="none"></path></g><g stroke-linecap="round" transform="translate(419.9553665779872 247.41893413061499) rotate(0 63.5 56.5)"><path d="M28.25 0 C46.89 1.22, 63.08 -1.11, 98.75 0 M28.25 0 C52.32 0, 74.69 -0.39, 98.75 0 M98.75 0 C118.02 -1.92, 125.58 10.2, 127 28.25 M98.75 0 C118.34 0.04, 126.88 8.35, 127 28.25 M127 28.25 C125.5 48.08, 126.25 71.28, 127 84.75 M127 28.25 C127.47 42.4, 126.7 57.91, 127 84.75 M127 84.75 C128.02 103.84, 118.68 114.81, 98.75 113 M127 84.75 C125.66 101.54, 116.46 110.86, 98.75 113 M98.75 113 C76.79 112.65, 57.13 113.77, 28.25 113 M98.75 113 C74.56 113.2, 49.68 113.43, 28.25 113 M28.25 113 C8.28 114.48, -1.77 102.76, 0 84.75 M28.25 113 C9.69 113.49, 0.51 102.55, 0 84.75 M0 84.75 C1.14 69.75, -1.29 55.18, 0 28.25 M0 84.75 C0.87 65.83, 0.23 49.12, 0 28.25 M0 28.25 C-1.22 9.43, 9.53 1.02, 28.25 0 M0 28.25 C1.62 10.13, 7.33 -0.4, 28.25 0" stroke="#1e1e1e" stroke-width="2" fill="none"></path></g><g stroke-linecap="round" transform="translate(15.55104601462898 364.0252004115562) rotate(0 63.5 56.5)"><path d="M28.25 0 C56.53 -1.11, 84.33 -2, 98.75 0 M28.25 0 C48.91 -0.38, 71.49 -0.99, 98.75 0 M98.75 0 C116.16 0.78, 127.65 9.45, 127 28.25 M98.75 0 C117.46 -1.06, 128.73 9.51, 127 28.25 M127 28.25 C125.8 43.98, 125.73 59.78, 127 84.75 M127 28.25 C126.37 43.71, 127.56 58.32, 127 84.75 M127 84.75 C128.1 105.39, 116.42 111.22, 98.75 113 M127 84.75 C125.88 101.45, 117.58 113.66, 98.75 113 M98.75 113 C77.09 113.48, 55.08 111.91, 28.25 113 M98.75 113 C78.77 113.69, 57.24 113.93, 28.25 113 M28.25 113 C7.64 112.17, 0.23 104.01, 0 84.75 M28.25 113 C9.93 111.96, -0.55 104.53, 0 84.75 M0 84.75 C-1.45 69.63, 0.06 50.24, 0 28.25 M0 84.75 C-0.39 63.27, -0.94 40.15, 0 28.25 M0 28.25 C0.11 10.44, 10.83 0.62, 28.25 0 M0 28.25 C-2.08 9.02, 10.13 -2.02, 28.25 0" stroke="#1e1e1e" stroke-width="2" fill="none"></path></g><g stroke-linecap="round" transform="translate(151.9663823788631 363.4351420934191) rotate(0 63.5 56.5)"><path d="M28.25 0 C56.73 -1.18, 83.89 1.01, 98.75 0 M28.25 0 C49.88 -0.71, 70.36 0.64, 98.75 0 M98.75 0 C118.24 0.03, 126.9 8.49, 127 28.25 M98.75 0 C119.31 0.1, 126.24 7.67, 127 28.25 M127 28.25 C125.94 42.69, 126.08 54.61, 127 84.75 M127 28.25 C127.12 42.9, 127.16 58.19, 127 84.75 M127 84.75 C125.84 101.81, 116.61 111.14, 98.75 113 M127 84.75 C127 104.24, 117.98 112.08, 98.75 113 M98.75 113 C80.3 112.31, 59.6 114.41, 28.25 113 M98.75 113 C75.12 114.09, 51.74 112.94, 28.25 113 M28.25 113 C9.65 113.43, 0.44 102.68, 0 84.75 M28.25 113 C8.87 113.95, -0.08 105.16, 0 84.75 M0 84.75 C0.75 65.1, 2.19 48.63, 0 28.25 M0 84.75 C-0.57 71.71, 0.09 59.16, 0 28.25 M0 28.25 C1.41 10.03, 7.6 -0.34, 28.25 0 M0 28.25 C0.72 7.4, 9.71 0.05, 28.25 0" stroke="#1e1e1e" stroke-width="2" fill="none"></path></g><g stroke-linecap="round" transform="translate(284.7279973846932 365.5824227104411) rotate(0 63.5 56.5)"><path d="M28.25 0 C47.91 1.32, 67.44 -1.22, 98.75 0 M28.25 0 C46.18 1.07, 65.85 0.69, 98.75 0 M98.75 0 C117.48 -0.93, 128.5 9.5, 127 28.25 M98.75 0 C116.83 -1.75, 125.43 8.53, 127 28.25 M127 28.25 C126.06 47.19, 125.9 64.41, 127 84.75 M127 28.25 C127.84 48.89, 126.7 66.83, 127 84.75 M127 84.75 C126.02 101.73, 117.58 113.57, 98.75 113 M127 84.75 C127.39 102.66, 117.04 113.79, 98.75 113 M98.75 113 C75.13 113.86, 52.44 113.66, 28.25 113 M98.75 113 C73.2 113.11, 49.54 113.74, 28.25 113 M28.25 113 C9.86 112.1, -0.48 104.41, 0 84.75 M28.25 113 C9.34 114.58, 0.69 102.36, 0 84.75 M0 84.75 C1.77 64.35, -1.51 41.5, 0 28.25 M0 84.75 C0.4 63.64, 1.05 41.81, 0 28.25 M0 28.25 C-1.81 9.07, 10.04 -1.75, 28.25 0 M0 28.25 C0.29 9.47, 7.87 -1.64, 28.25 0" stroke="#1e1e1e" stroke-width="2" fill="none"></path></g><g stroke-linecap="round" transform="translate(421.1433337489274 364.99236439230395) rotate(0 63.5 56.5)"><path d="M28.25 0 C44.74 -2, 60.37 0.14, 98.75 0 M28.25 0 C42.96 -0.26, 56.97 -0.74, 98.75 0 M98.75 0 C119.09 0.08, 126.34 7.89, 127 28.25 M98.75 0 C116.01 -0.89, 127.74 8.45, 127 28.25 M127 28.25 C125.94 47.67, 127.79 70.82, 127 84.75 M127 28.25 C126.73 45.04, 126.82 62.69, 127 84.75 M127 84.75 C127 104.16, 117.92 112.2, 98.75 113 M127 84.75 C126.45 104.38, 118.33 114.18, 98.75 113 M98.75 113 C81.39 114.4, 63.94 112.28, 28.25 113 M98.75 113 C72.5 112.92, 46.24 112.26, 28.25 113 M28.25 113 C8.94 113.82, -0.07 104.96, 0 84.75 M28.25 113 C10.11 111.78, 1.88 104.1, 0 84.75 M0 84.75 C-1.92 70.54, 1.12 55.34, 0 28.25 M0 84.75 C0.67 68.06, -0.94 50.59, 0 28.25 M0 28.25 C0.62 7.66, 9.67 0.04, 28.25 0 M0 28.25 C-1.55 7.77, 7.26 1.76, 28.25 0" stroke="#1e1e1e" stroke-width="2" fill="none"></path></g><g stroke-linecap="round" transform="translate(421.1229039946084 247.41113551330184) rotate(0 63.5 56.5)"><path d="M28.25 0 C52.54 2.8, 72.11 0.06, 98.75 0 C117.59 -2.08, 128.27 10.64, 127 28.25 C130.17 49.6, 130.87 69.71, 127 84.75 C125.6 106.62, 118.14 115.22, 98.75 113 C77.79 115.65, 61.18 112.81, 28.25 113 C10.85 111.26, 0.25 104.36, 0 84.75 C-0.96 71.77, 0.64 59.57, 0 28.25 C0.14 11.06, 8.34 -2.62, 28.25 0" stroke="none" stroke-width="0" fill="#a5d8ff"></path><path d="M28.25 0 C52.94 1.5, 79.81 1.65, 98.75 0 M28.25 0 C47.35 -0.37, 64.45 -0.64, 98.75 0 M98.75 0 C116.53 0.49, 126.09 10.74, 127 28.25 M98.75 0 C119.66 2.23, 125.53 10.06, 127 28.25 M127 28.25 C128.13 43.56, 127.33 63.8, 127 84.75 M127 28.25 C126.4 42.55, 126.95 57.29, 127 84.75 M127 84.75 C127.64 102.68, 117.07 112.15, 98.75 113 M127 84.75 C127.3 103.25, 115.93 111.34, 98.75 113 M98.75 113 C85.29 112.36, 70.48 112.37, 28.25 113 M98.75 113 C72.78 113.9, 47.79 112.59, 28.25 113 M28.25 113 C9.46 111.06, 1.32 103.26, 0 84.75 M28.25 113 C9.95 115.05, -1.35 104.66, 0 84.75 M0 84.75 C-0.82 63.28, 1.32 42.08, 0 28.25 M0 84.75 C-0.21 72.02, -0.5 60.56, 0 28.25 M0 28.25 C0.51 10.61, 9.3 0.06, 28.25 0 M0 28.25 C-0.51 9.11, 7.66 0.84, 28.25 0" stroke="#1e1e1e" stroke-width="2" fill="none"></path></g><g stroke-linecap="round" transform="translate(557.5382403588426 246.8210771951647) rotate(0 63.5 56.5)"><path d="M28.25 0 C50.02 -0.64, 75.63 -3.23, 98.75 0 C118.86 1.22, 130.37 12.62, 127 28.25 C130.61 45.32, 126.24 71.44, 127 84.75 C127.56 105.8, 116.87 110.93, 98.75 113 C77.85 113.33, 54.48 112.08, 28.25 113 C9.67 113.78, -2.79 106.06, 0 84.75 C1.41 69.41, 0.22 55.78, 0 28.25 C-1.08 6.79, 5.89 1.17, 28.25 0" stroke="none" stroke-width="0" fill="#1e1e1e"></path><path d="M28.25 0 C46.02 0.96, 64.8 -2.2, 98.75 0 M28.25 0 C47.36 -0.41, 67.91 0.58, 98.75 0 M98.75 0 C116.68 1.33, 128.81 11.36, 127 28.25 M98.75 0 C116.12 0.65, 127.1 8.72, 127 28.25 M127 28.25 C127.87 43.74, 126.63 56.97, 127 84.75 M127 28.25 C126.59 40.48, 126.97 53.66, 127 84.75 M127 84.75 C126.48 102.74, 117.85 112.71, 98.75 113 M127 84.75 C125.35 101.92, 115.31 111.9, 98.75 113 M98.75 113 C75.4 111.83, 53.11 112.34, 28.25 113 M98.75 113 C75.81 112.88, 52.43 112.52, 28.25 113 M28.25 113 C10.74 112.68, 0.46 105.37, 0 84.75 M28.25 113 C8.07 114.08, 1.44 102.21, 0 84.75 M0 84.75 C1.31 64.99, -1.34 48.81, 0 28.25 M0 84.75 C-0.35 68.52, 0.34 52.29, 0 28.25 M0 28.25 C-0.12 9.47, 8.98 -0.27, 28.25 0 M0 28.25 C-1.75 10.26, 9.98 -2.03, 28.25 0" stroke="#1e1e1e" stroke-width="2" fill="none"></path></g><g stroke-linecap="round" transform="translate(690.2998553646726 248.9683578121867) rotate(0 63.49999999999997 56.5)"><path d="M28.25 0 C55.78 -2.26, 84.58 1.04, 98.75 0 C120.95 3.21, 128.99 11.68, 127 28.25 C126.44 46.84, 128.39 61.58, 127 84.75 C126.29 101.51, 118.45 111.8, 98.75 113 C74.45 111.08, 47.54 113.6, 28.25 113 C6.63 115.47, -1.05 103.32, 0 84.75 C-0.23 70.07, -1.46 49.5, 0 28.25 C-3.53 10.59, 8.42 2.66, 28.25 0" stroke="none" stroke-width="0" fill="#1e1e1e"></path><path d="M28.25 0 C53.07 -2.25, 79.05 0.53, 98.75 0 M28.25 0 C45.53 0.77, 63.41 1.19, 98.75 0 M98.75 0 C119.39 1.94, 125.72 9.98, 127 28.25 M98.75 0 C117.68 -0.7, 125.94 10.91, 127 28.25 M127 28.25 C126.41 39.89, 125.72 50.23, 127 84.75 M127 28.25 C127.28 41.5, 126.71 55.22, 127 84.75 M127 84.75 C127.26 103.29, 116.15 111.56, 98.75 113 M127 84.75 C124.73 102.48, 118.33 113.84, 98.75 113 M98.75 113 C81.92 112.34, 63.14 111.94, 28.25 113 M98.75 113 C72.68 111.6, 47.22 112.41, 28.25 113 M28.25 113 C9.88 114.79, -1.17 104.52, 0 84.75 M28.25 113 C10.86 111.62, 0.46 102.25, 0 84.75 M0 84.75 C-1.94 70.78, -0.43 56.08, 0 28.25 M0 84.75 C0.5 71.14, 0.19 56.36, 0 28.25 M0 28.25 C-0.44 9.15, 7.89 0.73, 28.25 0 M0 28.25 C0.57 7.39, 10.24 0.9, 28.25 0" stroke="#1e1e1e" stroke-width="2" fill="none"></path></g><g stroke-linecap="round" transform="translate(826.7151917289067 248.37829949404954) rotate(0 63.5 56.5)"><path d="M28.25 0 C51.68 1.96, 75.93 3.94, 98.75 0 C119.57 2.27, 126.11 12.38, 127 28.25 C127.16 42.7, 125.9 50.64, 127 84.75 C127.87 102.38, 119.92 114.95, 98.75 113 C78.83 113.16, 55.61 114.86, 28.25 113 C8.37 112.74, -0.4 104.92, 0 84.75 C-1.12 65.23, -3.57 52.13, 0 28.25 C-0.99 12.08, 8.53 -2.8, 28.25 0" stroke="none" stroke-width="0" fill="#1e1e1e"></path><path d="M28.25 0 C54.03 1.64, 79.46 -1.34, 98.75 0 M28.25 0 C43.7 0.49, 60.96 0.8, 98.75 0 M98.75 0 C116.31 0.56, 127.09 8.81, 127 28.25 M98.75 0 C116.52 1.49, 124.82 9.99, 127 28.25 M127 28.25 C125.37 47.22, 125.64 68.51, 127 84.75 M127 28.25 C126.92 40.79, 127.31 54.03, 127 84.75 M127 84.75 C125.56 102.14, 115.61 112.04, 98.75 113 M127 84.75 C127.75 104.42, 116.59 113.12, 98.75 113 M98.75 113 C81.22 112.12, 63.94 113.33, 28.25 113 M98.75 113 C82.59 112.16, 65.35 113.21, 28.25 113 M28.25 113 C8.24 113.94, 1.25 102.39, 0 84.75 M28.25 113 C9.87 111.66, -1.12 104.71, 0 84.75 M0 84.75 C0.32 72.26, -0.5 59.49, 0 28.25 M0 84.75 C-0.2 66.15, -0.36 47.35, 0 28.25 M0 28.25 C-1.53 10.15, 9.91 -1.76, 28.25 0 M0 28.25 C0.83 10.31, 11.5 -1.23, 28.25 0" stroke="#1e1e1e" stroke-width="2" fill="none"></path></g><g stroke-linecap="round" transform="translate(422.3108711655485 364.9845657749908) rotate(0 63.5 56.5)"><path d="M28.25 0 C48.7 2.78, 64.4 1.84, 98.75 0 C116.69 2.97, 123.99 8.01, 127 28.25 C126.45 47.9, 128.03 70.48, 127 84.75 C129.34 105.54, 117.09 114.43, 98.75 113 C78.22 115.75, 62.23 113.01, 28.25 113 C9.01 114.34, -0.03 103.73, 0 84.75 C-3.23 66.4, -0.69 48.37, 0 28.25 C-0.89 6.62, 10.92 -2.13, 28.25 0" stroke="none" stroke-width="0" fill="#a5d8ff"></path><path d="M28.25 0 C42.25 -2.32, 56.66 -1.41, 98.75 0 M28.25 0 C52.04 0.5, 73.39 -0.19, 98.75 0 M98.75 0 C117.67 -0.61, 126.08 10.72, 127 28.25 M98.75 0 C115.41 0.58, 128.32 8.57, 127 28.25 M127 28.25 C125.45 45.16, 125.19 62.97, 127 84.75 M127 28.25 C126.99 42.5, 126.14 56.32, 127 84.75 M127 84.75 C125.02 102.62, 118.24 113.73, 98.75 113 M127 84.75 C126 103.7, 116.59 114.45, 98.75 113 M98.75 113 C80.26 113.19, 57.74 112.78, 28.25 113 M98.75 113 C84.68 113.78, 69.56 113.36, 28.25 113 M28.25 113 C10.67 111.8, 0.4 102.42, 0 84.75 M28.25 113 C8.29 114.13, -1.94 101.67, 0 84.75 M0 84.75 C-0.93 66.32, 0.64 50.15, 0 28.25 M0 84.75 C-0.19 64.3, -0.73 44.49, 0 28.25 M0 28.25 C0.49 7.66, 10.14 0.78, 28.25 0 M0 28.25 C2.08 8.19, 9.74 0, 28.25 0" stroke="#1e1e1e" stroke-width="2" fill="none"></path></g><g stroke-linecap="round" transform="translate(558.7262075297826 364.39450745685366) rotate(0 63.5 56.5)"><path d="M28.25 0 C53.79 1.14, 74.46 1.83, 98.75 0 C114.58 -1.4, 130.04 9.97, 127 28.25 C127.67 47.49, 129.14 71.07, 127 84.75 C126.5 105.02, 115.84 113.25, 98.75 113 C75.03 113.61, 52.99 115.21, 28.25 113 C9.38 113.14, 1.64 102.5, 0 84.75 C0 74.58, 0.11 56.28, 0 28.25 C1.5 7.29, 11.4 0.72, 28.25 0" stroke="none" stroke-width="0" fill="#1e1e1e"></path><path d="M28.25 0 C51.51 -0.36, 78.24 -0.21, 98.75 0 M28.25 0 C53.44 -0.4, 79.94 -0.99, 98.75 0 M98.75 0 C116.66 1.3, 125.11 9.92, 127 28.25 M98.75 0 C118.9 -0.85, 127.04 7.78, 127 28.25 M127 28.25 C125.26 42.37, 125.77 54.7, 127 84.75 M127 28.25 C126.36 42.09, 126.09 56.89, 127 84.75 M127 84.75 C127.65 104.31, 116.72 113.1, 98.75 113 M127 84.75 C126.01 105.03, 117.17 113.66, 98.75 113 M98.75 113 C79.04 113.21, 59.84 114.49, 28.25 113 M98.75 113 C78.14 114.1, 59.34 113.03, 28.25 113 M28.25 113 C9.82 111.84, -0.98 104.56, 0 84.75 M28.25 113 C7.48 111.08, 0.25 103.41, 0 84.75 M0 84.75 C0.87 69.16, 1.46 52.43, 0 28.25 M0 84.75 C-0.64 68, 0.37 49.64, 0 28.25 M0 28.25 C0.72 10.2, 11.23 -1.07, 28.25 0 M0 28.25 C0.33 9.42, 8.09 0.81, 28.25 0" stroke="#1e1e1e" stroke-width="2" fill="none"></path></g><g stroke-linecap="round" transform="translate(691.4878225356127 366.54178807387564) rotate(0 63.5 56.5)"><path d="M28.25 0 C54.79 2.17, 80.11 -2.2, 98.75 0 C120.62 0.56, 129.22 8.71, 127 28.25 C129.59 43.9, 126.75 57.09, 127 84.75 C125.26 103.83, 118.36 110.21, 98.75 113 C72.35 114.25, 46.73 113.05, 28.25 113 C11.06 111.92, -2.62 100.05, 0 84.75 C-0.61 63.16, 1.78 45.05, 0 28.25 C1.99 10.14, 8.25 -3.17, 28.25 0" stroke="none" stroke-width="0" fill="#1e1e1e"></path><path d="M28.25 0 C42.97 -0.53, 58.02 2.18, 98.75 0 M28.25 0 C56.29 -0.5, 83.78 0.45, 98.75 0 M98.75 0 C115.69 0.5, 128.15 8.68, 127 28.25 M98.75 0 C117.62 -1.64, 125.59 8.09, 127 28.25 M127 28.25 C125.7 44.33, 125.76 61.7, 127 84.75 M127 28.25 C125.61 43.89, 126.92 60.86, 127 84.75 M127 84.75 C126.13 103.69, 116.72 114.26, 98.75 113 M127 84.75 C126.59 104.24, 116.71 114.61, 98.75 113 M98.75 113 C74.04 114.34, 52.9 113.48, 28.25 113 M98.75 113 C71.93 112.73, 44.06 112.75, 28.25 113 M28.25 113 C8.44 113.98, -1.68 101.92, 0 84.75 M28.25 113 C9.66 112.83, -0.35 102.47, 0 84.75 M0 84.75 C1.02 70.16, -0.11 55.36, 0 28.25 M0 84.75 C0.68 67.67, 0.79 52.74, 0 28.25 M0 28.25 C1.81 8.35, 9.7 0, 28.25 0 M0 28.25 C-1.33 10.23, 10.2 2.15, 28.25 0" stroke="#1e1e1e" stroke-width="2" fill="none"></path></g><g stroke-linecap="round" transform="translate(827.903158899847 365.9517297557385) rotate(0 63.5 56.5)"><path d="M28.25 0 C50.83 -2.45, 82.47 -0.49, 98.75 0 C119.8 -0.71, 124.93 10.29, 127 28.25 C127.16 44.75, 125.92 58.63, 127 84.75 C127.78 100.79, 120.06 111.95, 98.75 113 C78.07 113.62, 59.11 112.39, 28.25 113 C6.79 109.47, 1.17 102.59, 0 84.75 C1.75 61.49, 2.24 43.22, 0 28.25 C-1.17 6.25, 9.95 2.31, 28.25 0" stroke="none" stroke-width="0" fill="#1e1e1e"></path><path d="M28.25 0 C47.01 2.13, 65.06 -0.96, 98.75 0 M28.25 0 C50.92 0.86, 73.57 0.46, 98.75 0 M98.75 0 C118.73 -0.74, 127.03 7.99, 127 28.25 M98.75 0 C116.17 -1.32, 126.85 7.79, 127 28.25 M127 28.25 C125.9 47.26, 126.45 64.31, 127 84.75 M127 28.25 C126.77 41.48, 126.01 54.04, 127 84.75 M127 84.75 C126.14 104.84, 117.23 113.57, 98.75 113 M127 84.75 C126.13 105.2, 118.11 111.59, 98.75 113 M98.75 113 C77.11 113.93, 57.9 112.29, 28.25 113 M98.75 113 C74.5 112, 49.35 113.07, 28.25 113 M28.25 113 C7.73 111.33, 0.21 103.43, 0 84.75 M28.25 113 C9.07 111.88, -1.01 104.27, 0 84.75 M0 84.75 C-0.28 65.91, -0.6 46.43, 0 28.25 M0 84.75 C0.22 66.11, 0.77 46.17, 0 28.25 M0 28.25 C0.28 9.42, 8.26 0.71, 28.25 0 M0 28.25 C0.78 11.57, 11.47 1.27, 28.25 0" stroke="#1e1e1e" stroke-width="2" fill="none"></path></g><g stroke-linecap="round" transform="translate(425.4859828382973 483.27284734503195) rotate(0 63.5 56.5)"><path d="M28.25 0 C58.24 1.05, 84.38 -0.21, 98.75 0 C115.51 0.87, 125.8 11.76, 127 28.25 C125.12 48.52, 127.64 65.49, 127 84.75 C129.47 102.54, 117.32 112.6, 98.75 113 C76.62 111.97, 48.59 109.52, 28.25 113 C10.59 112.01, 2.66 102.7, 0 84.75 C1.56 72.92, -1.59 56.47, 0 28.25 C0.53 11.73, 10.56 -1.64, 28.25 0" stroke="none" stroke-width="0" fill="#1e1e1e"></path><path d="M28.25 0 C48.15 -1.91, 64.72 -0.55, 98.75 0 M28.25 0 C46.31 -0.21, 66.84 -0.83, 98.75 0 M98.75 0 C117.62 -1.42, 125.77 8.27, 127 28.25 M98.75 0 C117.44 -1.62, 127.73 8.38, 127 28.25 M127 28.25 C126.47 42.31, 125.32 57.26, 127 84.75 M127 28.25 C126.75 42.54, 126.75 57.35, 127 84.75 M127 84.75 C126.64 104.16, 116.83 114.4, 98.75 113 M127 84.75 C127.53 102.17, 117.64 110.77, 98.75 113 M98.75 113 C74.72 111.99, 48.06 114.42, 28.25 113 M98.75 113 C81.33 113.08, 64.05 111.76, 28.25 113 M28.25 113 C9.63 112.85, -0.3 102.61, 0 84.75 M28.25 113 C8.41 113.69, 0.59 104.95, 0 84.75 M0 84.75 C-0.28 66.6, 0.72 52, 0 28.25 M0 84.75 C0.7 72.24, -0.06 60.8, 0 28.25 M0 28.25 C-1.15 10.12, 10.1 1.87, 28.25 0 M0 28.25 C2.05 10.69, 10.87 -0.57, 28.25 0" stroke="#1e1e1e" stroke-width="2" fill="none"></path></g><g stroke-linecap="round" transform="translate(561.9013192025313 482.6827890268948) rotate(0 63.5 56.5)"><path d="M28.25 0 C48.88 -0.91, 62.99 0.67, 98.75 0 C116.38 2.34, 128.95 8.92, 127 28.25 C127.29 44.66, 128.98 65.61, 127 84.75 C126.74 103.18, 118.92 112.97, 98.75 113 C74.7 109.09, 57.05 111.63, 28.25 113 C12.08 112.11, -2.8 105.09, 0 84.75 C-1.73 67.98, -0.03 59.85, 0 28.25 C1.14 7.78, 11.91 -2.68, 28.25 0" stroke="none" stroke-width="0" fill="#1e1e1e"></path><path d="M28.25 0 C56.34 0.54, 82.7 -0.47, 98.75 0 M28.25 0 C54.55 -0.54, 79.72 -0.89, 98.75 0 M98.75 0 C116.36 -1.15, 126.87 8, 127 28.25 M98.75 0 C118.32 -1.04, 126.41 8.44, 127 28.25 M127 28.25 C125.47 43.97, 125.96 64.3, 127 84.75 M127 28.25 C126.32 47.88, 126.58 66.55, 127 84.75 M127 84.75 C126.24 104.99, 118.04 111.77, 98.75 113 M127 84.75 C127.05 101.35, 119.11 112.63, 98.75 113 M98.75 113 C76.9 113.84, 51.98 112.98, 28.25 113 M98.75 113 C80.85 112.51, 64.75 113.27, 28.25 113 M28.25 113 C9.12 112.03, -0.88 104.18, 0 84.75 M28.25 113 C10.01 114.37, -0.13 103.65, 0 84.75 M0 84.75 C0.81 69.54, -1.69 54.06, 0 28.25 M0 84.75 C-0.37 65.6, -1.09 46.8, 0 28.25 M0 28.25 C0.68 11.29, 11.2 1.11, 28.25 0 M0 28.25 C1.45 8.85, 11.31 -1.92, 28.25 0" stroke="#1e1e1e" stroke-width="2" fill="none"></path></g><g stroke-linecap="round" transform="translate(694.6629342083615 484.83006964391683) rotate(0 63.50000000000003 56.5)"><path d="M28.25 0 C48.42 1.12, 71.53 2.59, 98.75 0 C119.54 -0.5, 128.43 7.67, 127 28.25 C129.69 44.55, 126.96 62.54, 127 84.75 C128.34 103.55, 117.73 114.64, 98.75 113 C80.89 110.76, 63.34 110.87, 28.25 113 C6.62 114.5, -2.13 105.57, 0 84.75 C0.86 68.98, 1.47 46.95, 0 28.25 C2.49 6.73, 6.11 -2.94, 28.25 0" stroke="none" stroke-width="0" fill="#1e1e1e"></path><path d="M28.25 0 C44.3 -0.95, 62.85 -1.92, 98.75 0 M28.25 0 C51.18 -0.45, 73.47 -0.32, 98.75 0 M98.75 0 C117.46 -1.41, 127.64 8.51, 127 28.25 M98.75 0 C116.99 -0.97, 127.3 9.08, 127 28.25 M127 28.25 C125.63 41.8, 127.32 53.17, 127 84.75 M127 28.25 C126.58 45.78, 126.38 63.44, 127 84.75 M127 84.75 C127.46 102.35, 117.63 111.06, 98.75 113 M127 84.75 C128.52 103.22, 118.12 115.05, 98.75 113 M98.75 113 C80.54 113.84, 63.56 112.46, 28.25 113 M98.75 113 C74.25 112.34, 49.38 111.93, 28.25 113 M28.25 113 C8.54 113.6, 0.51 104.77, 0 84.75 M28.25 113 C9.28 113.07, -0.51 103.28, 0 84.75 M0 84.75 C-1.97 72.83, 0.57 61.28, 0 28.25 M0 84.75 C-0.66 71.17, 0.26 57.81, 0 28.25 M0 28.25 C1.78 10.52, 10.68 -0.49, 28.25 0 M0 28.25 C1.89 7.5, 8.52 1.94, 28.25 0" stroke="#1e1e1e" stroke-width="2" fill="none"></path></g><g stroke-linecap="round" transform="translate(831.0782705725957 484.2400113257797) rotate(0 63.5 56.5)"><path d="M28.25 0 C46.81 2.03, 69.73 -0.8, 98.75 0 C119.02 -1.74, 127.25 10.2, 127 28.25 C127.44 40.42, 129.04 53.36, 127 84.75 C127.14 105.22, 116.5 110.38, 98.75 113 C87.18 111.76, 67.48 114.15, 28.25 113 C7.29 114.99, 0.72 102.42, 0 84.75 C1 71.14, 2.34 58.12, 0 28.25 C-3.3 6.48, 12.16 -3.32, 28.25 0" stroke="none" stroke-width="0" fill="#1e1e1e"></path><path d="M28.25 0 C51.01 -1.57, 71.67 1.47, 98.75 0 M28.25 0 C46.19 -0.07, 65.3 -0.2, 98.75 0 M98.75 0 C118.22 -0.9, 126.48 8.57, 127 28.25 M98.75 0 C117.89 -0.34, 125.35 7.76, 127 28.25 M127 28.25 C127.46 38.75, 126.83 50.13, 127 84.75 M127 28.25 C126.52 49.46, 127.13 68.66, 127 84.75 M127 84.75 C127.05 101.64, 118.91 112.68, 98.75 113 M127 84.75 C127.53 105.64, 116.23 114.08, 98.75 113 M98.75 113 C72.02 112.16, 48.59 111.46, 28.25 113 M98.75 113 C83.32 112.46, 67.76 113.25, 28.25 113 M28.25 113 C9.93 114.19, -0.12 103.64, 0 84.75 M28.25 113 C8.91 112.69, -1.75 104.43, 0 84.75 M0 84.75 C1.28 68.21, -0.57 48.34, 0 28.25 M0 84.75 C0.67 68.73, 1.22 51.39, 0 28.25 M0 28.25 C1.26 8.92, 11.06 -1.67, 28.25 0 M0 28.25 C-0.9 11.36, 9.77 1.42, 28.25 0" stroke="#1e1e1e" stroke-width="2" fill="none"></path></g><g stroke-linecap="round" transform="translate(426.6739500092374 600.8462776067208) rotate(0 63.5 56.49999999999997)"><path d="M28.25 0 C53.05 -1.32, 75.39 -2.57, 98.75 0 C117.83 0.78, 124.21 11.89, 127 28.25 C128.26 43.52, 127.07 60.5, 127 84.75 C125.92 100.96, 114.05 114.17, 98.75 113 C76.75 114.19, 58.21 114.68, 28.25 113 C10.14 111.83, -3.17 104.11, 0 84.75 C2.17 61.49, -3.63 40.66, 0 28.25 C2.75 6.1, 8.09 1.3, 28.25 0" stroke="none" stroke-width="0" fill="#1e1e1e"></path><path d="M28.25 0 C46.65 1.81, 63.31 0.7, 98.75 0 M28.25 0 C44.32 -0.3, 60.84 -0.05, 98.75 0 M98.75 0 C117.07 -0.85, 127.26 9.12, 127 28.25 M98.75 0 C115.93 -1.66, 124.73 8.31, 127 28.25 M127 28.25 C127.31 46.18, 128.47 65.48, 127 84.75 M127 28.25 C127.02 46.21, 126.81 64.42, 127 84.75 M127 84.75 C128.32 103.26, 118.05 114.79, 98.75 113 M127 84.75 C125.65 104.66, 119.03 111.62, 98.75 113 M98.75 113 C77.18 110.97, 51.97 112.87, 28.25 113 M98.75 113 C77.69 112.96, 57.76 113.25, 28.25 113 M28.25 113 C9.3 113.06, -0.44 103.32, 0 84.75 M28.25 113 C7.66 113.84, 0.57 101.56, 0 84.75 M0 84.75 C-1.29 66.05, -0.22 45.63, 0 28.25 M0 84.75 C0.7 66.35, 0.44 46.6, 0 28.25 M0 28.25 C1.65 7.75, 8.64 1.69, 28.25 0 M0 28.25 C0.36 10.84, 8.96 -1.32, 28.25 0" stroke="#1e1e1e" stroke-width="2" fill="none"></path></g><g stroke-linecap="round" transform="translate(563.0892863734715 600.2562192885837) rotate(0 63.5 56.49999999999997)"><path d="M28.25 0 C55.42 -1.57, 79.97 0.95, 98.75 0 C114.79 2.47, 125.95 9.16, 127 28.25 C127.52 46.2, 126.3 58.26, 127 84.75 C123.47 104.75, 116.59 115.66, 98.75 113 C77.21 115.52, 60.65 112.36, 28.25 113 C6.25 113.53, 2.31 104.73, 0 84.75 C-4.01 67.43, 2.04 52.67, 0 28.25 C-1.33 10.72, 10.7 1.72, 28.25 0" stroke="none" stroke-width="0" fill="#1e1e1e"></path><path d="M28.25 0 C41.99 -0.37, 55.78 -1.63, 98.75 0 M28.25 0 C45.66 0.05, 62.18 0.07, 98.75 0 M98.75 0 C117.85 -0.29, 125.56 7.97, 127 28.25 M98.75 0 C115.31 -1.1, 127.75 10.25, 127 28.25 M127 28.25 C128.29 42.39, 127.6 56.49, 127 84.75 M127 28.25 C127.15 48.19, 127.79 69.91, 127 84.75 M127 84.75 C127.46 105.37, 116.41 113.94, 98.75 113 M127 84.75 C128.44 102.21, 118.04 111.66, 98.75 113 M98.75 113 C79.38 112.62, 63.2 112.11, 28.25 113 M98.75 113 C81.28 113.81, 63.23 113.24, 28.25 113 M28.25 113 C8.98 112.73, -1.53 104.32, 0 84.75 M28.25 113 C9.98 110.97, 0.83 104.48, 0 84.75 M0 84.75 C0.3 61.53, 1.01 41.31, 0 28.25 M0 84.75 C0.13 62.27, 0.32 39.44, 0 28.25 M0 28.25 C-0.78 11.1, 9.73 1.23, 28.25 0 M0 28.25 C-0.45 8.09, 9.97 -0.77, 28.25 0" stroke="#1e1e1e" stroke-width="2" fill="none"></path></g><g stroke-linecap="round" transform="translate(695.8509013793016 602.4034999056057) rotate(0 63.5 56.49999999999997)"><path d="M28.25 0 C48.68 1.39, 65.81 3.09, 98.75 0 C116.54 -0.26, 126.6 10.75, 127 28.25 C125.96 42.52, 123.51 63.21, 127 84.75 C126.01 106.25, 116.7 110.2, 98.75 113 C75.38 112.54, 47.39 114.23, 28.25 113 C11.73 114.14, -1.64 106.08, 0 84.75 C3.68 68.69, -0.4 60.57, 0 28.25 C1.28 11.14, 7.78 0.84, 28.25 0" stroke="none" stroke-width="0" fill="#1e1e1e"></path><path d="M28.25 0 C52.02 -1.24, 77.49 -0.14, 98.75 0 M28.25 0 C44.16 -0.1, 60.73 0.17, 98.75 0 M98.75 0 C116.15 -1.44, 125.02 8.46, 127 28.25 M98.75 0 C118.33 0.84, 126 9.54, 127 28.25 M127 28.25 C127.93 42, 128.76 57.73, 127 84.75 M127 28.25 C127.68 41.57, 127.25 56.1, 127 84.75 M127 84.75 C125.83 104.52, 118.84 111.8, 98.75 113 M127 84.75 C127.46 102.25, 116.46 114.13, 98.75 113 M98.75 113 C83.39 112.78, 67.35 112.2, 28.25 113 M98.75 113 C75.44 113.45, 52.03 113.29, 28.25 113 M28.25 113 C7.89 113.73, 0.49 101.82, 0 84.75 M28.25 113 C10.24 113.9, 2.08 102.36, 0 84.75 M0 84.75 C0.71 67.68, 1.87 51.02, 0 28.25 M0 84.75 C0.47 63.84, -0.75 45.44, 0 28.25 M0 28.25 C0.31 10.65, 9.02 -1.15, 28.25 0 M0 28.25 C0.55 8.65, 10.91 1.25, 28.25 0" stroke="#1e1e1e" stroke-width="2" fill="none"></path></g><g stroke-linecap="round" transform="translate(832.2662377435357 601.8134415874686) rotate(0 63.5 56.49999999999997)"><path d="M28.25 0 C43.2 2.2, 62.68 -0.53, 98.75 0 C117.18 1.34, 126.97 9.56, 127 28.25 C123.16 48.94, 125.7 69.96, 127 84.75 C126.11 100.78, 119.09 110.87, 98.75 113 C70.54 113.12, 50.97 113.73, 28.25 113 C7.78 115.49, -2.68 100.28, 0 84.75 C-2.11 73.71, 0.51 61.79, 0 28.25 C-1.64 10.26, 9.02 0.53, 28.25 0" stroke="none" stroke-width="0" fill="#1e1e1e"></path><path d="M28.25 0 C48.36 0.31, 69.36 1.07, 98.75 0 M28.25 0 C46.35 0.15, 63.46 -0.42, 98.75 0 M98.75 0 C115.61 -0.96, 127.65 10.14, 127 28.25 M98.75 0 C116.59 0.12, 126.01 10.87, 127 28.25 M127 28.25 C128.56 44.65, 125.93 60.18, 127 84.75 M127 28.25 C127.61 40.6, 126.79 51.64, 127 84.75 M127 84.75 C128.25 102.39, 117.98 111.84, 98.75 113 M127 84.75 C125.88 104.71, 115.65 111.08, 98.75 113 M98.75 113 C75.88 112.02, 55.54 113.41, 28.25 113 M98.75 113 C73.18 112.89, 47.29 113.39, 28.25 113 M28.25 113 C9.91 111.24, 0.72 104.36, 0 84.75 M28.25 113 C11.5 111.77, 0.33 103.59, 0 84.75 M0 84.75 C1.67 72.85, 0.91 58.64, 0 28.25 M0 84.75 C-0.85 70.04, -0.31 54.26, 0 28.25 M0 28.25 C-0.39 8.27, 9.9 -0.67, 28.25 0 M0 28.25 C1.5 10.66, 9.1 0.92, 28.25 0" stroke="#1e1e1e" stroke-width="2" fill="none"></path></g></svg>