<svg version="1.1" xmlns="http://www.w3.org/2000/svg" viewBox="0 0 272 279" width="272" height="279" filter="invert(93%) hue-rotate(180deg)" class="excalidraw-svg">
  <!-- svg-source:excalidraw -->
  
  <defs>
    <style class="style-fonts">
      
    </style>
    
  </defs>
  <rect x="0" y="0" width="272" height="279" fill="#ffffff"></rect><g stroke-linecap="round"><g transform="translate(68 269) rotate(0 68 -129.5)"><path d="M0 0 C28.87 -99.12, 58.54 -195.63, 77 -259 M0 0 C25.18 -86.32, 49.88 -170.52, 77 -259 M77 -259 C93.87 -193.61, 108.44 -128.41, 137 -3 M77 -259 C98.25 -165.39, 119.61 -73.45, 137 -3 M137 -3 C86.4 -46.88, 37.64 -93.61, -58 -176 M137 -3 C92.48 -41.09, 47.91 -81.33, -58 -176 M-58 -176 C-6.74 -176.4, 44.42 -175.33, 194 -174 M-58 -176 C35.42 -176.31, 128.33 -176.42, 194 -174 M194 -174 C118.09 -106.44, 45.43 -41.23, 0 0 M194 -174 C117.65 -105.85, 42.77 -38.27, 0 0" stroke="#1e1e1e" stroke-width="2" fill="none"></path></g></g><mask></mask></svg>