<svg version="1.1" xmlns="http://www.w3.org/2000/svg" viewBox="0 0 692.9857514027506 512" width="692.9857514027506" height="512" filter="invert(93%) hue-rotate(180deg)" class="excalidraw-svg">
  <!-- svg-source:excalidraw -->
  
  <defs>
    <style class="style-fonts">
      
    </style>
    
  </defs>
  <rect x="0" y="0" width="692.9857514027506" height="512" fill="#ffffff"></rect><g transform="translate(196 192) rotate(0 1 2)" stroke="none"><path fill="#1e1e1e" d="M 2.98,-3.98 Q 2.98,-3.98 4.21,-3.18 5.44,-2.37 2.81,-1.09 0.18,0.18 0.58,3.21 0.99,6.23 1.49,3.69 2.00,1.15 3.10,-1.61 4.21,-4.39 4.99,-4.29 5.77,-4.19 6.50,-3.90 7.23,-3.62 7.87,-3.17 8.51,-2.71 9.02,-2.12 9.54,-1.53 9.90,-0.83 10.25,-0.13 10.43,0.62 10.61,1.38 10.61,2.17 10.60,2.95 10.40,3.71 10.21,4.47 9.84,5.16 9.47,5.85 8.94,6.43 8.42,7.02 7.77,7.46 7.12,7.89 6.38,8.17 5.64,8.44 4.86,8.52 4.08,8.61 1.48,7.26 -1.12,5.92 -1.59,4.97 -2.06,4.03 -2.20,2.99 -2.35,1.95 -2.15,0.91 -1.96,-0.11 -1.44,-1.03 -0.93,-1.95 -0.14,-2.65 0.63,-3.36 1.59,-3.78 2.56,-4.20 3.61,-4.28 4.66,-4.37 5.68,-4.12 6.70,-3.87 7.59,-3.31 8.48,-2.74 9.14,-1.92 9.80,-1.10 10.17,-0.12 10.53,0.86 10.57,1.91 10.60,2.96 10.29,3.97 9.99,4.98 9.37,5.84 8.76,6.69 7.91,7.31 7.06,7.93 6.05,8.24 5.05,8.55 3.99,8.52 2.94,8.50 1.95,8.14 0.96,7.78 0.14,7.12 -0.67,6.46 -1.24,5.58 -1.81,4.69 -2.07,3.67 -2.33,2.65 -2.24,1.60 -2.16,0.55 -1.75,-0.41 -1.33,-1.37 -0.63,-2.16 0.06,-2.95 0.97,-3.47 1.89,-3.99 2.92,-4.19 3.95,-4.39 5.00,-4.25 6.04,-4.11 6.99,-3.65 7.93,-3.18 6.07,-3.79 4.21,-4.39 4.99,-4.29 5.77,-4.19 6.50,-3.90 7.23,-3.62 7.87,-3.17 8.51,-2.71 9.02,-2.12 9.54,-1.53 9.90,-0.83 10.25,-0.14 10.43,0.62 10.61,1.38 10.61,2.17 10.60,2.95 10.40,3.71 10.21,4.47 9.84,5.16 9.47,5.85 8.94,6.43 8.42,7.02 7.77,7.46 7.12,7.89 6.38,8.17 5.64,8.44 4.87,8.52 4.09,8.61 2.83,9.51 1.57,10.40 -0.64,10.22 -2.85,10.03 -5.37,7.75 -7.88,5.47 -8.37,3.28 -8.85,1.08 -6.54,-1.46 -4.23,-4.01 -0.89,-4.29 2.44,-4.56 4.59,-2.97 6.74,-1.37 6.97,2.23 7.20,5.84 3.17,5.83 -0.84,5.82 -1.91,4.90 -2.98,3.98 -3.42,3.56 -3.85,3.15 -4.17,2.64 -4.49,2.13 -4.68,1.57 -4.87,1.00 -4.92,0.40 -4.97,-0.19 -4.88,-0.78 -4.78,-1.38 -4.55,-1.93 -4.31,-2.48 -3.95,-2.96 -3.59,-3.44 -3.13,-3.82 -2.66,-4.20 -2.12,-4.46 -1.58,-4.72 -0.99,-4.84 -0.40,-4.96 0.19,-4.94 0.79,-4.91 1.37,-4.75 1.94,-4.58 2.46,-4.28 2.98,-3.98 2.98,-3.98 L 2.98,-3.98 Z"></path></g><g transform="translate(563 92) rotate(0 -2 9.5)" stroke="none"><path fill="#1e1e1e" d="M 4.19,2.93 Q 4.19,2.93 2.07,5.73 -0.04,8.53 -1.21,11.07 -2.38,13.61 -4.00,11.70 -5.63,9.79 -4.29,11.78 -2.96,13.77 -1.44,12.25 0.08,10.73 -1.86,9.78 -3.80,8.83 -1.83,10.06 0.12,11.30 2.66,10.15 5.20,9.00 5.27,8.86 5.34,8.72 4.98,9.86 4.63,11.00 3.93,11.96 3.23,12.93 2.26,13.62 1.28,14.31 0.14,14.66 -0.99,15.00 -2.18,14.97 -3.37,14.93 -4.49,14.51 -5.61,14.09 -6.54,13.34 -7.46,12.59 -8.10,11.58 -8.74,10.57 -9.02,9.42 -9.31,8.26 -9.20,7.07 -9.10,5.88 -8.62,4.79 -8.15,3.69 -7.35,2.81 -6.55,1.92 -5.50,1.34 -4.46,0.76 -3.29,0.54 -2.12,0.32 -0.94,0.49 0.23,0.65 1.30,1.19 2.37,1.72 3.21,2.57 4.05,3.42 4.57,4.49 5.10,5.56 5.25,6.74 5.41,7.93 5.18,9.10 4.95,10.27 4.36,11.30 3.76,12.34 2.87,13.13 1.98,13.92 0.88,14.39 -0.21,14.86 -1.40,14.95 -2.59,15.04 -3.74,14.75 -4.90,14.45 -5.90,13.80 -6.90,13.16 -7.65,12.22 -8.39,11.29 -8.80,10.17 -9.20,9.05 -9.23,7.85 -9.25,6.66 -9.25,6.66 -9.25,6.66 -7.92,3.41 -6.58,0.16 -2.61,-1.53 1.35,-3.24 3.76,-2.62 6.16,-2.01 7.81,-0.48 9.46,1.04 10.32,4.31 11.18,7.57 10.78,10.04 10.37,12.51 9.28,14.40 8.20,16.28 5.19,19.09 2.18,21.90 -1.37,22.26 -4.93,22.61 -8.44,20.24 -11.95,17.87 -12.95,14.26 -13.95,10.65 -13.43,7.98 -12.90,5.32 -11.50,3.65 -10.11,1.99 -7.06,1.07 -4.01,0.15 -1.49,0.50 1.02,0.86 3.12,2.23 5.22,3.60 6.39,7.29 7.57,10.97 7.41,13.29 7.25,15.61 6.60,17.81 5.95,20.02 3.50,22.11 1.04,24.20 -1.35,24.52 -3.74,24.84 -6.51,23.92 -9.28,23.00 -10.71,21.19 -12.14,19.38 -12.52,16.13 -12.90,12.89 -12.29,10.84 -11.69,8.78 -9.84,5.87 -8.00,2.96 -6.10,0.01 -4.19,-2.93 -3.78,-3.39 -3.37,-3.85 -2.86,-4.20 -2.35,-4.55 -1.77,-4.76 -1.19,-4.98 -0.57,-5.05 0.03,-5.12 0.64,-5.04 1.25,-4.96 1.83,-4.74 2.41,-4.52 2.91,-4.16 3.42,-3.81 3.83,-3.34 4.23,-2.88 4.52,-2.33 4.80,-1.78 4.94,-1.18 5.09,-0.58 5.08,0.03 5.08,0.65 4.93,1.25 4.77,1.84 4.48,2.39 4.19,2.93 4.19,2.93 L 4.19,2.93 Z"></path></g><g transform="translate(199 197) rotate(0 2 2.5)" stroke="none"><path fill="#1e1e1e" d="M 4.86,0.97 Q 4.86,0.97 4.67,2.30 4.47,3.64 4.71,4.38 4.94,5.13 4.74,5.73 4.54,6.34 4.20,6.88 3.86,7.42 3.40,7.86 2.94,8.31 2.39,8.63 1.84,8.95 1.23,9.13 0.62,9.31 -0.01,9.34 -0.64,9.37 -1.27,9.24 -1.89,9.12 -2.47,8.84 -3.05,8.57 -3.54,8.17 -4.04,7.77 -4.42,7.26 -4.81,6.75 -5.06,6.17 -5.31,5.58 -5.42,4.95 -5.52,4.33 -5.47,3.69 -5.43,3.05 -5.16,4.26 -4.89,5.46 -5.36,4.98 -5.83,4.50 -6.16,3.92 -6.50,3.34 -6.69,2.70 -6.88,2.06 -6.91,1.39 -6.94,0.72 -6.81,0.06 -6.68,-0.59 -6.39,-1.20 -6.11,-1.80 -5.69,-2.33 -5.26,-2.85 -4.73,-3.25 -4.20,-3.66 -3.58,-3.92 -2.96,-4.19 -2.30,-4.30 -1.64,-4.41 -0.97,-4.36 -0.30,-4.31 0.32,-4.10 0.96,-3.89 1.53,-3.53 2.10,-3.18 -0.43,-3.65 -2.96,-4.13 -0.85,-4.43 1.26,-4.73 3.47,-5.20 5.68,-5.66 6.41,-5.58 7.14,-5.49 7.83,-5.23 8.51,-4.97 9.12,-4.55 9.72,-4.13 10.21,-3.58 10.70,-3.03 11.04,-2.38 11.38,-1.73 11.55,-1.02 11.73,-0.31 11.73,0.42 11.73,1.15 11.56,1.87 11.38,2.58 11.04,3.23 10.70,3.88 10.21,4.43 9.72,4.98 9.12,5.40 8.51,5.82 7.83,6.08 7.14,6.34 6.41,6.43 5.68,6.51 3.45,6.31 1.22,6.11 0.25,5.94 -0.72,5.76 -1.58,5.28 -2.45,4.80 -3.12,4.07 -3.78,3.34 -4.18,2.44 -4.58,1.53 -4.67,0.55 -4.76,-0.43 -4.53,-1.39 -4.30,-2.35 -3.78,-3.19 -3.25,-4.03 -2.49,-4.66 -1.72,-5.28 -0.80,-5.63 0.12,-5.98 1.11,-6.02 2.10,-6.05 3.04,-5.77 3.99,-5.49 4.80,-4.92 5.61,-4.35 6.19,-3.55 6.78,-2.76 7.08,-1.81 7.38,-0.87 7.36,0.11 7.34,1.10 7.01,2.03 6.68,2.96 6.06,3.74 5.45,4.51 4.62,5.05 3.79,5.59 2.84,5.84 1.88,6.09 0.89,6.02 -0.08,5.95 -1.00,5.56 -1.91,5.18 -2.65,4.53 -3.39,3.87 -3.89,3.02 -4.38,2.16 -4.58,1.19 -4.77,0.22 -4.65,-0.75 -4.52,-1.73 -4.09,-2.62 -3.66,-3.51 -2.97,-4.22 -2.27,-4.92 -1.39,-5.37 -0.51,-5.82 0.46,-5.96 1.44,-6.10 1.44,-6.10 1.44,-6.10 3.56,-5.88 5.68,-5.66 6.41,-5.58 7.14,-5.49 7.82,-5.23 8.51,-4.97 9.12,-4.55 9.72,-4.13 10.21,-3.58 10.70,-3.03 11.04,-2.38 11.38,-1.73 11.55,-1.02 11.73,-0.31 11.73,0.42 11.73,1.15 11.56,1.87 11.38,2.58 11.04,3.23 10.70,3.88 10.21,4.43 9.72,4.98 9.12,5.40 8.51,5.82 7.83,6.08 7.14,6.34 6.41,6.43 5.68,6.51 6.46,6.28 7.23,6.04 3.93,6.15 0.63,6.25 -2.13,5.86 -4.89,5.46 -5.36,4.98 -5.82,4.50 -6.16,3.92 -6.50,3.34 -6.69,2.70 -6.88,2.06 -6.91,1.39 -6.94,0.72 -6.81,0.06 -6.68,-0.59 -6.39,-1.20 -6.11,-1.80 -5.69,-2.32 -5.27,-2.85 -4.73,-3.25 -4.20,-3.66 -3.58,-3.92 -2.97,-4.19 -2.30,-4.30 -1.64,-4.41 -0.97,-4.36 -0.31,-4.31 0.32,-4.10 0.96,-3.89 1.53,-3.53 2.10,-3.18 3.35,-1.47 4.60,0.23 4.77,2.68 4.94,5.13 4.74,5.73 4.54,6.34 4.20,6.88 3.86,7.42 3.40,7.86 2.95,8.31 2.39,8.63 1.84,8.95 1.23,9.13 0.62,9.31 -0.01,9.34 -0.64,9.37 -1.27,9.24 -1.89,9.12 -2.47,8.84 -3.05,8.57 -3.54,8.17 -4.04,7.77 -4.42,7.26 -4.81,6.75 -5.06,6.17 -5.31,5.58 -5.42,4.95 -5.52,4.33 -5.47,3.69 -5.43,3.05 -5.52,2.58 -5.62,2.10 -5.24,0.56 -4.86,-0.97 -4.67,-1.54 -4.49,-2.10 -4.17,-2.61 -3.85,-3.12 -3.42,-3.53 -2.99,-3.95 -2.48,-4.25 -1.96,-4.55 -1.38,-4.72 -0.81,-4.89 -0.21,-4.92 0.37,-4.94 0.96,-4.83 1.55,-4.71 2.09,-4.45 2.63,-4.20 3.10,-3.82 3.56,-3.45 3.92,-2.97 4.28,-2.49 4.52,-1.94 4.76,-1.39 4.85,-0.80 4.95,-0.21 4.91,0.37 4.86,0.97 4.86,0.97 L 4.86,0.97 Z"></path></g><g stroke-linecap="round"><g transform="translate(67 458) rotate(0 -4 -208.5)"><path d="M-1.03 0.75 C-2.09 -68.94, -6.3 -347.59, -7.37 -417.35 M0.64 0.09 C-0.44 -69.49, -6.56 -346.5, -7.98 -416" stroke="#1e1e1e" stroke-width="2" fill="none"></path></g><g transform="translate(67 458) rotate(0 -4 -208.5)"><path d="M1.07 -392.69 C0.18 -396.8, -3.62 -401.96, -7.98 -416 M1.07 -392.69 C-1.59 -397.58, -3.92 -404.42, -7.98 -416" stroke="#1e1e1e" stroke-width="2" fill="none"></path></g><g transform="translate(67 458) rotate(0 -4 -208.5)"><path d="M-16.03 -392.33 C-13.19 -396.37, -13.26 -401.61, -7.98 -416 M-16.03 -392.33 C-14.68 -397.31, -13.02 -404.25, -7.98 -416" stroke="#1e1e1e" stroke-width="2" fill="none"></path></g></g><mask></mask><g stroke-linecap="round"><g transform="translate(66 457) rotate(0 308.5 -1.5)"><path d="M-0.99 -0.87 C101.64 -1.33, 514.05 -1.48, 616.99 -1.99 M0.69 1.29 C103.06 0.44, 513.54 -2.85, 616.03 -3.59" stroke="#1e1e1e" stroke-width="2" fill="none"></path></g><g transform="translate(66 457) rotate(0 308.5 -1.5)"><path d="M592.6 5.14 C600.42 1.84, 612.88 -2.28, 616.03 -3.59 M592.6 5.14 C598.18 3.29, 602.56 1.82, 616.03 -3.59" stroke="#1e1e1e" stroke-width="2" fill="none"></path></g><g transform="translate(66 457) rotate(0 308.5 -1.5)"><path d="M592.47 -11.96 C600.45 -8.45, 612.96 -5.76, 616.03 -3.59 M592.47 -11.96 C597.95 -10.04, 602.36 -7.73, 616.03 -3.59" stroke="#1e1e1e" stroke-width="2" fill="none"></path></g></g><mask></mask><g stroke-linecap="round"><g transform="translate(67 457) rotate(0 65 -128.5)"><path d="M0.28 0.9 C21.7 -41.93, 107.52 -212.98, 128.95 -255.91 M-1.04 0.32 C20.71 -42.3, 109.08 -214.87, 131.1 -257.46" stroke="#1e1e1e" stroke-width="2" fill="none"></path></g><g transform="translate(67 457) rotate(0 65 -128.5)"><path d="M127.97 -232.66 C130.29 -242.72, 131.66 -251.2, 131.1 -257.46 M127.97 -232.66 C129.11 -240.41, 129.21 -248.77, 131.1 -257.46" stroke="#1e1e1e" stroke-width="2" fill="none"></path></g><g transform="translate(67 457) rotate(0 65 -128.5)"><path d="M112.76 -240.48 C120.24 -247.96, 126.69 -253.82, 131.1 -257.46 M112.76 -240.48 C118.87 -245.62, 123.91 -251.45, 131.1 -257.46" stroke="#1e1e1e" stroke-width="2" fill="none"></path></g></g><mask></mask><g stroke-linecap="round"><g transform="translate(68 456) rotate(0 242.5 -172)"><path d="M0.16 0.06 C80.88 -57.27, 403.51 -285.53, 484.25 -342.94 M-1.22 -0.95 C79.9 -58.09, 405.76 -287.45, 486.56 -344.5" stroke="#1e1e1e" stroke-width="2" fill="none"></path></g><g transform="translate(68 456) rotate(0 242.5 -172)"><path d="M472.29 -323.98 C476.37 -331.24, 482.2 -336.66, 486.56 -344.5 M472.29 -323.98 C476.45 -330.41, 480.82 -335.47, 486.56 -344.5" stroke="#1e1e1e" stroke-width="2" fill="none"></path></g><g transform="translate(68 456) rotate(0 242.5 -172)"><path d="M462.43 -337.96 C469.52 -341.16, 478.22 -342.49, 486.56 -344.5 M462.43 -337.96 C469.35 -340.64, 476.36 -341.94, 486.56 -344.5" stroke="#1e1e1e" stroke-width="2" fill="none"></path></g></g><mask></mask><g stroke-linecap="round"><g transform="translate(209 192) rotate(0 169 -42)"><path d="M0.28 -0.56 C56.52 -14.54, 281.52 -69.06, 337.79 -83.14 M-1.03 1.77 C55.01 -12.62, 280.38 -70.47, 336.72 -84.81" stroke="#1e1e1e" stroke-width="2" fill="none"></path></g><g transform="translate(209 192) rotate(0 169 -42)"><path d="M316.08 -70.7 C321.82 -75.72, 330.93 -80.18, 336.72 -84.81 M316.08 -70.7 C321.48 -74.55, 325.59 -75.77, 336.72 -84.81" stroke="#1e1e1e" stroke-width="2" fill="none"></path></g><g transform="translate(209 192) rotate(0 169 -42)"><path d="M311.85 -87.27 C319.07 -86.88, 329.57 -85.92, 336.72 -84.81 M311.85 -87.27 C318.14 -87.59, 323.16 -85.27, 336.72 -84.81" stroke="#1e1e1e" stroke-width="2" fill="none"></path></g></g><mask></mask><g transform="translate(28 452) rotate(0 -0.5 25)" stroke="none"><path fill="#1e1e1e" d="M 3.36,3.36 Q 3.36,3.36 1.03,5.63 -1.29,7.90 -3.69,10.43 -6.10,12.97 -7.48,15.08 -8.87,17.19 -9.92,19.76 -10.97,22.32 -11.69,25.04 -12.41,27.76 -12.68,30.42 -12.94,33.09 -13.00,35.37 -13.05,37.64 -11.90,39.95 -10.75,42.27 -8.27,43.03 -5.78,43.79 -2.98,43.53 -0.19,43.27 2.27,41.52 4.74,39.78 7.07,36.40 9.40,33.02 10.15,30.72 10.89,28.42 10.89,25.96 10.88,23.49 10.05,20.86 9.21,18.23 7.95,16.02 6.70,13.80 4.81,12.81 2.92,11.82 0.48,11.74 -1.95,11.66 -4.68,11.63 -7.42,11.60 -8.47,11.40 -9.52,11.21 -10.45,10.69 -11.38,10.17 -12.10,9.38 -12.81,8.60 -13.24,7.62 -13.67,6.64 -13.76,5.58 -13.86,4.52 -13.61,3.48 -13.36,2.45 -12.79,1.55 -12.22,0.64 -11.40,-0.02 -10.57,-0.69 -9.57,-1.07 -8.57,-1.44 -7.51,-1.48 -6.44,-1.52 -5.42,-1.21 -4.40,-0.90 -3.53,-0.29 -2.66,0.32 -2.03,1.18 -1.40,2.04 -1.08,3.06 -0.76,4.07 -0.79,5.14 -0.81,6.21 -1.17,7.21 -1.53,8.21 -2.19,9.05 -2.85,9.88 -3.75,10.46 -4.64,11.04 -5.67,11.31 -6.71,11.57 -7.77,11.49 -8.83,11.41 -9.82,11.00 -10.80,10.58 -11.60,9.88 -12.39,9.17 -12.92,8.25 -13.46,7.32 -13.66,6.28 -13.87,5.23 -13.73,4.18 -13.60,3.12 -13.13,2.16 -12.66,1.20 -11.92,0.44 -11.17,-0.31 -10.21,-0.79 -9.26,-1.27 -8.21,-1.42 -7.15,-1.57 -7.15,-1.57 -7.15,-1.57 -5.48,-1.51 -3.81,-1.45 -0.46,-1.22 2.88,-0.98 5.88,-0.38 8.87,0.22 11.83,2.36 14.79,4.51 16.58,6.80 18.36,9.09 19.45,10.97 20.53,12.84 21.08,15.57 21.63,18.30 22.33,20.91 23.03,23.52 22.82,25.98 22.62,28.44 21.74,31.71 20.86,34.99 19.83,36.97 18.80,38.96 17.32,41.24 15.85,43.52 13.76,46.04 11.67,48.56 9.18,50.39 6.69,52.22 4.39,53.11 2.08,53.99 -0.90,54.41 -3.89,54.82 -6.54,54.32 -9.18,53.83 -12.30,52.58 -15.42,51.34 -17.50,49.31 -19.58,47.28 -20.55,45.11 -21.51,42.93 -22.01,40.06 -22.50,37.18 -22.26,34.61 -22.02,32.04 -21.58,28.71 -21.15,25.38 -20.23,22.10 -19.31,18.83 -17.85,15.42 -16.39,12.01 -14.57,9.52 -12.75,7.03 -10.33,4.16 -7.90,1.29 -5.63,-1.03 -3.36,-3.36 -2.91,-3.72 -2.46,-4.07 -1.94,-4.31 -1.41,-4.54 -0.85,-4.65 -0.28,-4.75 0.28,-4.72 0.85,-4.68 1.40,-4.51 1.95,-4.34 2.44,-4.04 2.93,-3.75 3.34,-3.34 3.75,-2.93 4.04,-2.44 4.34,-1.95 4.51,-1.40 4.68,-0.85 4.72,-0.28 4.75,0.28 4.65,0.85 4.54,1.41 4.31,1.94 4.07,2.46 3.72,2.91 3.36,3.36 3.36,3.36 L 3.36,3.36 Z"></path></g><g transform="translate(138 166) rotate(0 20.5 -28)" stroke="none"><path fill="#1e1e1e" d="M -4.06,-1.35 Q -4.06,-1.35 -2.41,-5.59 -0.77,-9.83 0.22,-14.26 1.21,-18.70 2.61,-22.87 4.00,-27.04 5.48,-31.59 6.95,-36.13 8.04,-39.37 9.12,-42.60 9.71,-45.04 10.29,-47.48 11.34,-50.57 12.39,-53.67 13.57,-56.68 14.75,-59.68 18.48,-59.53 22.21,-59.38 24.19,-56.01 26.16,-52.64 27.40,-49.93 28.64,-47.23 29.57,-43.60 30.49,-39.96 31.38,-37.70 32.27,-35.43 33.40,-32.02 34.54,-28.62 35.63,-26.15 36.73,-23.69 37.80,-21.54 38.88,-19.38 40.55,-16.64 42.22,-13.90 43.43,-12.49 44.64,-11.08 45.06,-10.31 45.48,-9.55 45.63,-8.69 45.79,-7.83 45.66,-6.97 45.53,-6.11 45.13,-5.33 44.73,-4.56 44.11,-3.95 43.48,-3.34 42.69,-2.96 41.91,-2.59 41.04,-2.48 40.18,-2.38 39.32,-2.55 38.47,-2.73 37.72,-3.17 36.96,-3.61 36.39,-4.26 35.82,-4.92 35.48,-5.73 35.15,-6.53 35.09,-7.40 35.03,-8.27 35.25,-9.12 35.48,-9.96 35.96,-10.69 36.44,-11.41 37.12,-11.95 37.81,-12.49 38.63,-12.78 39.46,-13.07 40.33,-13.08 41.20,-13.09 42.03,-12.82 42.86,-12.55 43.56,-12.04 44.26,-11.52 44.76,-10.80 45.26,-10.09 45.50,-9.25 45.75,-8.41 45.71,-7.54 45.68,-6.67 45.36,-5.86 45.05,-5.04 44.50,-4.37 43.94,-3.70 43.20,-3.24 42.46,-2.78 41.61,-2.58 40.76,-2.38 39.89,-2.47 39.02,-2.55 38.23,-2.90 37.43,-3.26 36.79,-3.85 36.15,-4.44 36.15,-4.44 36.15,-4.44 34.65,-6.50 33.15,-8.56 31.58,-11.91 30.02,-15.25 29.00,-17.59 27.98,-19.92 26.85,-22.62 25.73,-25.32 24.34,-28.64 22.96,-31.95 21.98,-34.69 21.00,-37.43 20.23,-40.16 19.47,-42.88 17.93,-47.11 16.40,-51.34 18.75,-52.49 21.09,-53.63 20.53,-51.53 19.97,-49.43 18.68,-47.33 17.39,-45.22 16.40,-42.73 15.42,-40.23 14.17,-37.27 12.92,-34.32 11.62,-29.70 10.31,-25.08 9.22,-21.23 8.12,-17.37 7.32,-12.39 6.52,-7.41 5.29,-3.02 4.06,1.35 3.84,1.82 3.62,2.28 3.29,2.68 2.96,3.08 2.55,3.39 2.14,3.70 1.66,3.91 1.19,4.11 0.68,4.19 0.17,4.28 -0.34,4.23 -0.85,4.19 -1.34,4.03 -1.83,3.87 -2.27,3.59 -2.70,3.31 -3.06,2.94 -3.42,2.57 -3.68,2.12 -3.94,1.68 -4.08,1.18 -4.22,0.68 -4.24,0.17 -4.27,-0.34 -4.16,-0.84 -4.06,-1.35 -4.06,-1.35 L -4.06,-1.35 Z"></path></g><g transform="translate(148 141) rotate(0 8 -3)" stroke="none"><path fill="#1e1e1e" d="M -1.60,-4.40 Q -1.60,-4.40 1.58,-5.49 4.76,-6.59 7.12,-7.66 9.47,-8.73 11.54,-9.51 13.61,-10.29 14.38,-10.41 15.15,-10.54 15.93,-10.41 16.70,-10.28 17.39,-9.92 18.08,-9.55 18.61,-8.98 19.15,-8.42 19.48,-7.71 19.80,-7.00 19.89,-6.22 19.97,-5.44 19.80,-4.68 19.63,-3.92 19.23,-3.25 18.82,-2.58 18.23,-2.08 17.63,-1.57 16.91,-1.28 16.18,-0.99 15.40,-0.95 14.62,-0.91 13.87,-1.12 13.11,-1.33 12.47,-1.77 11.82,-2.21 11.35,-2.83 10.88,-3.46 10.63,-4.20 10.38,-4.94 10.38,-5.72 10.38,-6.50 10.64,-7.24 10.89,-7.98 11.36,-8.60 11.83,-9.22 12.48,-9.66 13.13,-10.10 13.88,-10.30 14.63,-10.51 15.41,-10.47 16.19,-10.43 16.92,-10.13 17.64,-9.84 18.24,-9.34 18.83,-8.83 19.24,-8.16 19.64,-7.49 19.80,-6.73 19.97,-5.96 19.88,-5.19 19.80,-4.41 19.47,-3.70 19.14,-2.99 18.60,-2.43 18.06,-1.86 17.37,-1.50 16.68,-1.13 16.68,-1.13 16.68,-1.13 14.91,-0.63 13.14,-0.12 10.51,0.93 7.88,1.99 4.74,3.19 1.60,4.40 1.05,4.52 0.50,4.65 -0.06,4.64 -0.62,4.64 -1.17,4.49 -1.72,4.35 -2.21,4.08 -2.71,3.81 -3.13,3.43 -3.54,3.05 -3.86,2.58 -4.17,2.11 -4.37,1.58 -4.56,1.05 -4.62,0.49 -4.68,-0.06 -4.60,-0.62 -4.53,-1.18 -4.32,-1.70 -4.11,-2.23 -3.78,-2.69 -3.46,-3.15 -3.03,-3.52 -2.60,-3.89 -2.10,-4.14 -1.60,-4.40 -1.60,-4.40 L -1.60,-4.40 Z"></path></g><g transform="translate(569 10) rotate(0 19.5 27)" stroke="none"><path fill="#1e1e1e" d="M 4.55,0 Q 4.55,0 4.29,4.31 4.04,8.62 4.16,12.62 4.29,16.63 4.54,20.94 4.80,25.25 5.38,28.13 5.95,31.00 6.56,33.65 7.17,36.29 7.79,38.50 8.41,40.70 9.77,44.23 11.13,47.77 11.63,50.22 12.14,52.68 12.12,53.31 12.10,53.94 11.93,54.54 11.76,55.15 11.45,55.69 11.14,56.24 10.71,56.69 10.28,57.15 9.75,57.49 9.23,57.83 8.63,58.03 8.04,58.23 7.41,58.29 6.79,58.35 6.17,58.25 5.55,58.15 4.97,57.91 4.39,57.67 3.89,57.30 3.38,56.93 2.98,56.44 2.58,55.96 2.31,55.40 2.04,54.83 1.90,54.22 1.77,53.61 1.67,51.21 1.57,48.81 1.77,45.42 1.98,42.03 3.37,38.05 4.76,34.06 6.38,31.41 8.01,28.77 10.18,26.73 12.36,24.69 14.42,23.35 16.49,22.02 18.79,21.26 21.10,20.50 24.28,19.36 27.46,18.22 29.90,17.91 32.34,17.59 35.57,18.14 38.80,18.68 40.54,20.20 42.27,21.71 43.73,24.36 45.18,27.00 45.47,29.64 45.77,32.28 44.69,35.87 43.62,39.47 40.97,42.15 38.32,44.83 36.03,46.10 33.74,47.37 31.69,48.43 29.64,49.49 26.75,51.47 23.85,53.46 20.74,54.78 17.63,56.09 16.52,56.33 15.41,56.57 14.29,56.44 13.16,56.30 12.14,55.82 11.11,55.34 10.29,54.55 9.48,53.77 8.95,52.77 8.43,51.76 8.25,50.64 8.08,49.52 8.27,48.41 8.46,47.29 9.00,46.29 9.54,45.29 10.36,44.52 11.19,43.75 12.22,43.28 13.25,42.81 14.38,42.70 15.51,42.58 16.61,42.83 17.72,43.09 18.68,43.68 19.65,44.27 20.38,45.14 21.11,46.00 21.52,47.06 21.93,48.11 21.98,49.25 22.04,50.38 21.72,51.47 21.41,52.56 20.77,53.49 20.13,54.42 19.22,55.10 18.32,55.78 17.24,56.13 16.16,56.49 15.03,56.48 13.90,56.47 12.83,56.10 11.76,55.73 10.86,55.04 9.96,54.35 9.33,53.41 8.70,52.47 8.41,51.37 8.11,50.28 8.18,49.15 8.25,48.02 8.68,46.97 9.11,45.92 9.85,45.06 10.59,44.20 11.56,43.63 12.54,43.05 12.53,43.05 12.53,43.05 14.34,42.44 16.15,41.84 18.58,40.18 21.01,38.51 23.16,37.26 25.31,36.02 27.22,35.05 29.13,34.07 31.20,32.32 33.27,30.57 30.90,30.68 28.52,30.80 25.70,31.79 22.88,32.78 20.20,34.57 17.52,36.35 15.76,38.66 14.00,40.98 13.28,43.52 12.56,46.07 12.35,49.38 12.14,52.68 12.12,53.31 12.10,53.94 11.93,54.54 11.76,55.14 11.45,55.69 11.14,56.24 10.71,56.69 10.28,57.15 9.75,57.49 9.23,57.83 8.63,58.03 8.04,58.23 7.42,58.29 6.79,58.35 6.17,58.25 5.55,58.15 4.97,57.91 4.39,57.67 3.89,57.30 3.38,56.93 2.98,56.44 2.58,55.96 2.31,55.40 2.04,54.83 1.90,54.22 1.77,53.61 1.81,53.03 1.85,52.44 1.74,49.92 1.63,47.40 0.88,44.94 0.12,42.49 -0.23,40.08 -0.60,37.68 -0.96,34.90 -1.32,32.13 -1.67,29.01 -2.01,25.90 -2.57,21.52 -3.14,17.14 -3.59,12.88 -4.04,8.62 -4.29,4.31 -4.55,0 -4.48,-0.54 -4.41,-1.08 -4.22,-1.60 -4.02,-2.11 -3.71,-2.56 -3.40,-3.01 -2.99,-3.38 -2.58,-3.74 -2.09,-3.99 -1.61,-4.25 -1.08,-4.38 -0.54,-4.51 0.00,-4.51 0.54,-4.51 1.08,-4.38 1.61,-4.25 2.09,-3.99 2.58,-3.74 2.99,-3.38 3.40,-3.01 3.71,-2.56 4.02,-2.11 4.22,-1.60 4.41,-1.08 4.48,-0.54 4.55,0.00 4.55,0.00 L 4.55,0 Z"></path></g></svg>